<svg xmlns="http://www.w3.org/2000/svg" xmlns:xlink="http://www.w3.org/1999/xlink" width="715" height="401.137" viewBox="0 0 715 401.137"><defs><clipPath id="a"><rect width="400.633" height="500.425" fill="#fff6db"/></clipPath><clipPath id="b"><rect width="715" height="379.665" fill="none"/></clipPath></defs><g transform="translate(-705 -3760.463)"><g transform="translate(1300.425 3760.463) rotate(90)"><g clip-path="url(#a)"><path d="M386.68,242.519s42.757,107.455-21.426,159.172-148-74.129-212.036,55.789C108,549.224-14.321,502.3,1.383,405.168,19.252,294.645,81.6,369.8,44.549,125.762,26.2,4.92,283.081-84.382,386.68,242.519" transform="translate(0 -6.43)" fill="#fff6db"/><path d="M475.954,33.57S502.2,45.576,498.7,62.785s-36.095,2.45-41.414-12.932,9.631-21.947,18.673-16.283" transform="translate(-182.431 -12.621)" fill="#fff6db"/><path d="M400.631,9.118a12.549,12.549,0,0,1,17.831-7.749c5.581,2.8,10.962,7.529,9.329,15.148-3.158,14.743-18.161,6.921-24.674,1.751-2.762-2.193-3.116-6.772-2.486-9.149" transform="translate(-160.115 0)" fill="#fff6db"/><path d="M535.69,693.03s25.62-9.664,34.731,2.924-22.1,24.732-35.3,18.988-8.53-19.414.572-21.912" transform="translate(-210.729 -275.741)" fill="#fff6db"/><path d="M618.392,662.966a11.1,11.1,0,0,0-6.455,15.944c2.6,4.874,6.9,9.527,13.607,7.913,12.969-3.123,12.273-16.9,2.3-22.512a15.272,15.272,0,0,0-9.455-1.344" transform="translate(-244.19 -265.028)" fill="#fff6db"/></g></g><g transform="translate(705 3781.933)"><path d="M376.72,582.126l-2.073,3.96-5.224-1.349-1.7,4.512,1.207,2.45,1.724-4.587,5.022,1.3,2.187-4.178,3.915.355.174-1.984Z" transform="translate(-281.356 -445.395)" fill="#f7a491"/><path d="M355.591,452.757l-1.678-7.48-5.65.522-1.912-7.323-5.541-.328-2.141-5.313-2.08.971,2.864,7.106,5.251.311,1.99,7.618,5.557-.514,1.521,6.778Z" transform="translate(-257.53 -331.17)" fill="#f7cc7f"/><g transform="translate(0 0.002)"><g clip-path="url(#b)"><path d="M2268.294,839.41a5.087,5.087,0,0,1,1.887-3.932,3.939,3.939,0,0,1,5.631.571c1.608,1.934,1.814,5.633-.935,11.282-6.057,1.671-9.655.792-11.263-1.142a3.939,3.939,0,0,1,.467-5.641,5.089,5.089,0,0,1,4.211-1.138" transform="translate(-1731.195 -638.529)" fill="#f48c7f"/><path d="M2222.078,893.262a52.487,52.487,0,0,0,5-3.315c.483-.362,1.428-.847,1.452-1.512a.635.635,0,0,0-.515-.7c-.657-.135-1.266.568-1.753.933-1.485,1.111-3.218,2.3-5.038,3.4a.745.745,0,0,0-.171,1.029.754.754,0,0,0,1.03.171" transform="translate(-1699.269 -679.21)" fill="#f48c7f"/><path d="M2339.8,834.58c.719-.52,1.428-1.052,2.139-1.583a8.128,8.128,0,0,0,2.044-1.7.64.64,0,0,0-.714-1,8.03,8.03,0,0,0-2.206,1.472c-.71.533-1.42,1.063-2.122,1.608a.738.738,0,0,0,.858,1.2" transform="translate(-1789.349 -635.253)" fill="#f48c7f"/><path d="M2278.393,912.4a9.229,9.229,0,0,1,.924-4.628.6.6,0,0,0-1-.622c-1.317,1.345-1.589,3.623-1.386,5.407a.736.736,0,0,0,1.462-.158" transform="translate(-1742.081 -693.924)" fill="#f48c7f"/><path d="M2320.6,905.827a6.53,6.53,0,0,1-1.237-2.4c-.146-.543-.168-2.345-1.168-1.943-.941.379-.4,1.988-.184,2.675a7.709,7.709,0,0,0,1.383,2.533c.6.734,1.806-.116,1.206-.862" transform="translate(-1773.292 -689.698)" fill="#f48c7f"/><path d="M2339.01,876.878l1.828-.02c.608-.007,1.3.13,1.739-.364a.653.653,0,0,0-.085-.9c-.418-.436-1.261-.251-1.816-.242l-1.827.031a.757.757,0,0,0-.666.827.767.767,0,0,0,.826.665" transform="translate(-1788.991 -669.717)" fill="#f48c7f"/><path d="M2234.224,843.572c-4.214-2.516-4.2-2.556-4.726-2.629a.653.653,0,0,0-.624,1.014c.332.45.285.37,4.729,3a.763.763,0,0,0,1-.382.777.777,0,0,0-.382-1" transform="translate(-1705.266 -643.419)" fill="#f48c7f"/><path d="M2269.66,818.456a11.2,11.2,0,0,0-.877-2.247c-.346-.667-.788-1.736-1.649-1.74a.558.558,0,0,0-.466.339c-.251.719.456,1.452.774,2.068a13.327,13.327,0,0,1,.846,2.1.742.742,0,0,0,.948.425.752.752,0,0,0,.425-.948" transform="translate(-1734.234 -623.167)" fill="#f48c7f"/><path d="M2311.926,803.7a.653.653,0,0,0-.826-.37c-.635.17-.926,1.124-1.157,1.674a12.824,12.824,0,0,0-.637,1.976.747.747,0,0,0,.62.845.759.759,0,0,0,.845-.62c.709-2.525,1.4-2.625,1.156-3.5" transform="translate(-1766.885 -614.622)" fill="#f48c7f"/><path d="M538.4,176.656c-.5,3.919,3.584,7.029,7.213,6.784a8.931,8.931,0,0,0,8-7.5c.635-4.268-1.929-7.681-5.9-7.994a4.95,4.95,0,0,0-5.217,6.6c.8,2.487,3.07,3.414,4.213,2.728a1.136,1.136,0,0,0-.242-2.121,1.115,1.115,0,0,0-1.108.477c-.945-.375-1.844-2.094-1.234-3.951.779-2.372,3.778-2.508,5.64-1.4,2.37,1.408,2.743,4.44,1.873,6.856a7.294,7.294,0,0,1-6.116,4.727,5.684,5.684,0,0,1-6.022-5.2.555.555,0,0,0-1.108,0" transform="translate(-411.91 -128.482)" fill="#f79c8d"/><path d="M2056.844,705.2c-.5,3.919,3.584,7.029,7.213,6.784a8.931,8.931,0,0,0,8-7.5c.635-4.268-1.929-7.681-5.9-7.994a4.949,4.949,0,0,0-5.217,6.6c.8,2.487,3.069,3.414,4.213,2.728a1.136,1.136,0,0,0-.242-2.122,1.115,1.115,0,0,0-1.108.478c-.944-.375-1.844-2.095-1.233-3.952.779-2.372,3.778-2.507,5.64-1.4,2.371,1.408,2.743,4.44,1.873,6.856a7.294,7.294,0,0,1-6.116,4.727,5.684,5.684,0,0,1-6.021-5.2.555.555,0,0,0-1.108,0" transform="translate(-1573.702 -532.884)" fill="#9bc1f9"/><path d="M1899.692,274.523l-.03-3.737-3.1-2.094a.514.514,0,0,1,.125-.912l3.545-1.183,1.035-3.591a.514.514,0,0,1,.906-.163l2.22,3.006,3.735-.125a.514.514,0,0,1,.435.812l-2.172,3.04,1.273,3.513a.514.514,0,0,1-.638.665l-3.563-1.126-2.948,2.3a.513.513,0,0,1-.829-.4" transform="translate(-1450.93 -200.948)" fill="#f47458"/><path d="M1652.553,122.47a4.756,4.756,0,1,1,5.074,4.415,4.756,4.756,0,0,1-5.074-4.415" transform="translate(-1264.394 -89.814)" fill="#f7cc7f"/><path d="M1677.063,180.312a31.779,31.779,0,0,0-.926-4.186,1.086,1.086,0,0,0-2.1.434,34.116,34.116,0,0,0,.9,4.5,1.136,1.136,0,0,0,1.44.69,1.16,1.16,0,0,0,.69-1.44" transform="translate(-1280.839 -134.225)" fill="#f7cc7f"/><path d="M1701.556,159.933a47.126,47.126,0,0,1-4.4-3.18,1.087,1.087,0,0,0-1.427,1.64,20.686,20.686,0,0,0,4.806,3.614,1.168,1.168,0,0,0,1.55-.523,1.18,1.18,0,0,0-.524-1.55" transform="translate(-1297.181 -119.738)" fill="#f7cc7f"/><path d="M1707.837,132.211a.818.818,0,0,0-.208,1.1c.533.967,1.886.919,2.848.886a10.275,10.275,0,0,0,2.954-.561,1.153,1.153,0,0,0-.765-2.174c-2.751.939-3.793-.08-4.829.751" transform="translate(-1306.447 -100.531)" fill="#f7cc7f"/><path d="M1694.794,94.245c-1.385,2.025-2.516,2.709-2.339,3.824a.958.958,0,0,0,1.247.82c.744-.169,1.148-.957,1.595-1.51.427-.53.846-1.062,1.228-1.627a1.185,1.185,0,0,0-.112-1.619,1.155,1.155,0,0,0-1.618.113" transform="translate(-1294.919 -71.812)" fill="#f7cc7f"/><path d="M1670.539,85.923a5.06,5.06,0,0,0-1.114-2.245,1,1,0,0,0-1.622.551,4.826,4.826,0,0,0,.562,2.458,1.152,1.152,0,0,0,2.174-.765" transform="translate(-1276.056 -63.841)" fill="#f7cc7f"/><path d="M1641.443,100.57c-2-1.516-2.4-1.943-3.185-1.86a.949.949,0,0,0-.875,1.006c.187.959.744,1.219,2.579,2.557a1.159,1.159,0,0,0,1.592-.11,1.139,1.139,0,0,0-.111-1.592" transform="translate(-1252.786 -75.517)" fill="#f7cc7f"/><path d="M1619.117,132.435a1.055,1.055,0,0,0,.381,1.888c.817.107,1.132-.025,5.093-.748a1.186,1.186,0,0,0,1.069-1.229,1.159,1.159,0,0,0-1.228-1.069c-4.114.742-4.526.739-5.315,1.157" transform="translate(-1238.475 -100.433)" fill="#f7cc7f"/><path d="M1635.721,162.562c-2.171,2.1-2.489,1.73-3.347,3.015a.975.975,0,0,0,.937,1.4,4.11,4.11,0,0,0,2.253-1.213c.664-.526,1.3-1.089,1.908-1.677a1.17,1.17,0,0,0-.114-1.638,1.186,1.186,0,0,0-1.638.114" transform="translate(-1248.873 -124.08)" fill="#f7cc7f"/><path d="M1985.442,475.288l4.046.213s5.36-3.443,5.611-4.776-.383-4.236.432-4.537a2.654,2.654,0,0,1,3.439,1.389c.676,1.346-.3,6.016.157,6.365a21.412,21.412,0,0,0,4.3.516,3,3,0,0,1,2.553,1.782v0a1.6,1.6,0,0,1-.526,1.947l-.954.69.643.992a1.6,1.6,0,0,1-.465,2.209l-.75.493.448.589a1.6,1.6,0,0,1-.451,2.342l-.664.4.083.182a1.6,1.6,0,0,1-.67,2.057l-.665.376-10.776-.568a7.426,7.426,0,0,1-2.9-.761l-3.757-.827a.835.835,0,0,1-.654-.872l.64-9.422a.835.835,0,0,1,.877-.777" transform="translate(-1517.941 -356.548)" fill="#fae0b2"/><path d="M418.24,269.218c16.21-1.982,30.338,4.483,31.556,14.44.609,4.979-2.125,9.888-7.037,13.8l8.374,13.877-15.24-9.72a45.025,45.025,0,0,1-13.242,3.662c-16.21,1.983-30.338-4.483-31.556-14.44s10.936-19.637,27.146-21.62" transform="translate(-299.171 -205.711)" fill="#fae0b2"/><path d="M497.768,310.618a10.3,10.3,0,1,1-8.743-11.661,10.3,10.3,0,0,1,8.743,11.661" transform="translate(-365.163 -228.658)" fill="#f7cc7f"/><path d="M496.752,346.3a5.509,5.509,0,1,0,10.908,1.56Z" transform="translate(-380.033 -264.959)" fill="#efefef"/><path d="M639.931,1072.4s82.777-133.25,114.317-139.2,58.559,48.546,58.559,48.546,14.28-12.453,36.235-7.589,139.716,115.375,139.716,115.375l-354.871-4.425Z" transform="translate(-485.001 -713.665)" fill="#9bc1f9"/><path d="M340.82,1063.182c73.491,12.228,183.762,122.12,267.752,122.12s102.074-26.284,133.571-20.726,73.779,20.726,73.779,20.726l-624.133,1.844s75.54-136.193,149.031-123.965" transform="translate(-146.742 -812.869)" fill="#86b1f2"/><path d="M985.151,867.778,970.79,983.835h28.722Z" transform="translate(-742.772 -663.955)" fill="#3c8f7c"/><path d="M1099.542,978.12l-14.361,116.057H1113.9Z" transform="translate(-830.295 -748.381)" fill="#3c8f7c"/><rect width="4.399" height="48.766" transform="translate(67.331 314.632)" fill="#355389"/><path d="M249.247,936.775l-14.361,116.057h28.722Z" transform="translate(-179.716 -716.746)" fill="#3c8f7c"/><path d="M257.061,1234.928l20.477,17.56-.788-6.363L257.7,1229.786Z" transform="translate(-196.683 -940.935)" fill="#50bfa5"/><path d="M270.463,1129.111,283,1133.4l-.59-4.764-11.408-3.9Z" transform="translate(-206.937 -860.557)" fill="#50bfa5"/><rect width="3.165" height="55.453" transform="translate(100.753 295.624)" fill="#355389"/><path d="M388.423,837.7,372.829,949.634h31.189Z" transform="translate(-285.259 -640.946)" fill="#3c8f7c"/><path d="M377.041,1245.387l27.981-8.821-.423-3.036-27.1,8.542Z" transform="translate(-288.482 -943.8)" fill="#50bfa5"/><path d="M398.016,1104.532l18.542-5.846-.423-3.035-17.658,5.567Z" transform="translate(-304.53 -838.306)" fill="#50bfa5"/><path d="M191.79,1351.322s80.575-69.991,184.468-74.29c34.887-1.444,177.741,27.5,298.036,50.244,5.057.956,15.991,10.315,21.111,11.278,56.948,10.7,110.021,12.967,127.187,13.658Z" transform="translate(-146.743 -977.044)" fill="#96d9c9"/><path d="M2784.67,1219.736l.116-6.027a7.867,7.867,0,0,0-7.619-8.094c-10.6,0-19.2,9.132-19.2,20.4v8.235a9.476,9.476,0,0,1-4.726,8.313,8.37,8.37,0,0,0-4.113,7.344v4.342a15.822,15.822,0,0,0,5.528,12.03,9.6,9.6,0,0,1,3.311,7.326v6.148c0,6.8,5.187,12.306,11.584,12.306h3.65c6.4,0,11.584-5.51,11.584-12.306-1.05-8.585,1.5-13.54,4.432-16.371a22.555,22.555,0,0,0,6.845-16.216v-.869a22.4,22.4,0,0,0-7.586-16.822c-2.1-1.838-3.806-4.838-3.806-9.736" transform="translate(-2103.416 -922.442)" fill="#50bfa5"/><path d="M2538.422,1407.049s-29.579-39.29-48.193-45.315-1.07,17.907-1.07,17.907-33.02-36.107-45.137-32.852c-11.107,2.984,0,25.365,0,25.365s-12.51-12.393-27.682-12.393,11.726,46.406,11.726,46.406Z" transform="translate(-1845.243 -1030.298)" fill="#9bc1f9"/><path d="M2166.765,1442.857s-20.219-54.071-45.259-47.818c-20.292,5.067-5.865,32.273-7.1,31.037s-12.12-19.7-29.73-19.7,5.406,24.922,5.406,24.922-37.519-11.717-40.457.587c-2.438,10.212,11.2,10.975,11.2,10.975Z" transform="translate(-1567.986 -1066.989)" fill="#86b1f2"/><path d="M1459.451,1254.553a41.3,41.3,0,0,1,4.2,3.172c7.365,5.85,14.838,11.512,25,23.414a153.024,153.024,0,0,1,29.918,53.722c.222.706,1.338.4,1.113-.307a152.444,152.444,0,0,0-16.915-36.057c-19.4-30.3-43.571-44.1-43.309-43.944" transform="translate(-1116.655 -959.884)" fill="#466eb6"/><path d="M1615.607,1269.353c1.623,10.691,7.2,20.3,11.047,30.282,10.286,26.689,11.975,47.015,12.9,49.267a.214.214,0,0,0,.417-.057c.256-2.091-2.011-16.729-6.48-31.953-7.43-25.312-15.208-35.2-17.533-47.637-.043-.233-.385-.131-.351.1" transform="translate(-1236.133 -971.034)" fill="#466eb6"/><path d="M1497.257,1243.127a9.632,9.632,0,0,0-1.578,3.851,7.43,7.43,0,0,0,.424,3.656,8.019,8.019,0,0,1-2.513-3.256c-.941-2.014-.871-4.993-.181-6.069,1.124-2.375,3.569-2.928,4.191-1.933.651.984.2,2.5-.343,3.751" transform="translate(-1142.239 -947.913)" fill="#466eb6"/><path d="M1569.265,1315.556a9.591,9.591,0,0,0-1.1,4,7.4,7.4,0,0,0,.851,3.566,7.987,7.987,0,0,1-2.871-2.923c-1.169-1.881-1.452-4.835-.9-5.982.83-2.481,3.184-3.318,3.917-2.408.76.9.49,2.452.1,3.751" transform="translate(-1197.391 -1003.416)" fill="#466eb6"/><path d="M1659.828,1354.122a7.093,7.093,0,0,0-2.816,1.208,5.482,5.482,0,0,0-1.665,2.139,5.911,5.911,0,0,1,.36-3.008,5.789,5.789,0,0,1,3.038-3.281c1.815-.667,3.385.3,3.2,1.148-.166.853-1.188,1.416-2.117,1.793" transform="translate(-1266.497 -1033.647)" fill="#466eb6"/><path d="M1668.9,1376.33a7.088,7.088,0,0,0-2.816,1.209,5.467,5.467,0,0,0-1.664,2.14,5.912,5.912,0,0,1,.36-3.008,5.791,5.791,0,0,1,3.038-3.281c1.816-.668,3.385.3,3.2,1.148-.166.853-1.188,1.416-2.116,1.793" transform="translate(-1273.442 -1050.64)" fill="#466eb6"/><path d="M1468.064,1288.688a8.872,8.872,0,0,1,2.622-2.794,6.837,6.837,0,0,1,3.224-1.043,7.382,7.382,0,0,0-3.689-.86c-2.047-.018-4.515,1.18-5.153,2.17-1.56,1.849-1.088,4.109-.016,4.25,1.073.169,2.171-.793,3.011-1.723" transform="translate(-1120.188 -982.398)" fill="#466eb6"/><path d="M1511.99,1329.243a8.868,8.868,0,0,1,2.622-2.794,6.84,6.84,0,0,1,3.225-1.044,7.384,7.384,0,0,0-3.689-.86c-2.047-.018-4.515,1.18-5.153,2.17-1.559,1.849-1.087,4.109-.016,4.25,1.073.169,2.171-.793,3.01-1.723" transform="translate(-1153.797 -1013.428)" fill="#466eb6"/><path d="M1592.333,1295.454a8.875,8.875,0,0,1,3.8.483,6.844,6.844,0,0,1,2.738,2,7.384,7.384,0,0,0-1.469-3.491c-1.187-1.668-3.606-2.963-4.781-2.9-2.413-.177-3.965,1.532-3.45,2.482.493.968,1.916,1.292,3.162,1.426" transform="translate(-1215.832 -988.179)" fill="#466eb6"/><path d="M1605.2,1326.582a8.871,8.871,0,0,1,3.8.483,6.841,6.841,0,0,1,2.738,2,7.383,7.383,0,0,0-1.469-3.491c-1.187-1.668-3.606-2.963-4.782-2.9-2.412-.177-3.965,1.532-3.45,2.482.493.968,1.916,1.292,3.162,1.426" transform="translate(-1225.678 -1011.996)" fill="#466eb6"/><path d="M1567.915,1391.743a8.864,8.864,0,0,1,2.622-2.794,6.838,6.838,0,0,1,3.225-1.044,7.386,7.386,0,0,0-3.689-.86c-2.047-.018-4.515,1.18-5.153,2.17-1.559,1.85-1.088,4.109-.016,4.25,1.073.169,2.171-.793,3.011-1.723" transform="translate(-1196.587 -1061.248)" fill="#466eb6"/><path d="M1446.9,1261.378a5.693,5.693,0,0,1,2.016-1.408,4.391,4.391,0,0,1,2.163-.229,4.745,4.745,0,0,0-2.2-1.027,4.645,4.645,0,0,0-3.522.682c-1.223.955-1.226,2.437-.571,2.667.651.248,1.468-.211,2.118-.684" transform="translate(-1105.096 -963)" fill="#466eb6"/><path d="M1458.65,1237.658a5.687,5.687,0,0,0,.086,2.457,4.39,4.39,0,0,0,1.117,1.866,4.742,4.742,0,0,1-2.145-1.143,4.644,4.644,0,0,1-1.572-3.225c.028-1.552,1.21-2.444,1.787-2.059s.714,1.3.727,2.1" transform="translate(-1114.111 -945.281)" fill="#466eb6"/><path d="M2823.358,1238.721a217.583,217.583,0,0,1,10.022,74.479h.958a218.992,218.992,0,0,0-10.065-73.885c-1.757-5.535-3.519-12.016-8.686-15.376-.1-.065-.186.09-.092.157,4.648,3.334,6.219,9.449,7.863,14.625" transform="translate(-2154.163 -936.45)" fill="#466eb6"/><path d="M2749.564,1381.243a271.916,271.916,0,0,0-38.832-68.314c-.168-.215-.55.075-.382.294a271.611,271.611,0,0,1,38.027,68.02Z" transform="translate(-2073.714 -1004.492)" fill="#466eb6"/><path d="M2842.131,1217.748a9.6,9.6,0,0,0-2.927,2.935,7.4,7.4,0,0,0-1.013,3.524,7.987,7.987,0,0,1-1.062-3.957c-.093-2.213,1.115-4.925,2.162-5.649,1.944-1.752,4.4-1.323,4.595-.169.221,1.154-.78,2.375-1.755,3.317" transform="translate(-2170.743 -928.417)" fill="#466eb6"/><path d="M2811.019,1291.616a9.592,9.592,0,0,1,3.984-1.145,7.4,7.4,0,0,1,3.575.815,7.993,7.993,0,0,0-2.952-2.842c-1.893-1.15-4.85-1.4-5.99-.836-2.473.855-3.286,3.217-2.368,3.941.9.751,2.456.465,3.752.066" transform="translate(-2147.618 -984.954)" fill="#466eb6"/><path d="M2821.96,1330.883a9.6,9.6,0,0,1,3.984-1.145,7.4,7.4,0,0,1,3.575.815,7.983,7.983,0,0,0-2.952-2.841c-1.893-1.15-4.85-1.4-5.991-.836-2.472.856-3.285,3.217-2.368,3.941.9.751,2.457.465,3.752.066" transform="translate(-2155.989 -1014.999)" fill="#466eb6"/><path d="M2729.435,1390.355a9.592,9.592,0,0,1,3.984-1.145,7.4,7.4,0,0,1,3.575.815,8,8,0,0,0-2.953-2.841c-1.892-1.15-4.849-1.4-5.99-.836-2.473.855-3.286,3.217-2.368,3.941.9.751,2.456.465,3.752.066" transform="translate(-2085.197 -1060.501)" fill="#466eb6"/><path d="M2701.556,1348.411a9.594,9.594,0,0,1,3.984-1.145,7.391,7.391,0,0,1,3.574.815,7.984,7.984,0,0,0-2.952-2.841c-1.892-1.151-4.849-1.4-5.99-.836-2.473.855-3.285,3.217-2.368,3.941.9.751,2.457.465,3.752.066" transform="translate(-2063.865 -1028.409)" fill="#466eb6"/><path d="M2858.436,1263.652a9.593,9.593,0,0,0-3.354,2.437,7.4,7.4,0,0,0-1.556,3.32,7.987,7.987,0,0,1-.424-4.075c.257-2.2,1.876-4.687,3.025-5.237,2.2-1.424,4.557-.612,4.564.557.037,1.175-1.144,2.223-2.256,3" transform="translate(-2182.88 -963.546)" fill="#466eb6"/><path d="M2872.923,1306.187c-.665.153-2.849.167-4.28,1.415a6.4,6.4,0,0,0-2.2,3.3,10.6,10.6,0,0,1-.113-5.1c.525-2.534,2.72-4.8,4.159-4.939,2.785-.719,5.552,1.33,5.446,2.742-.071,1.432-1.6,2.16-3.012,2.59" transform="translate(-2192.87 -995.198)" fill="#466eb6"/><path d="M2887.2,1372.068c-.681.039-2.836-.314-4.458.675a6.393,6.393,0,0,0-2.722,2.878,10.587,10.587,0,0,1,.746-5.05c.944-2.41,3.488-4.271,4.93-4.169,2.866-.24,5.25,2.245,4.907,3.619-.31,1.4-1.936,1.861-3.4,2.047" transform="translate(-2203.53 -1045.451)" fill="#466eb6"/><path d="M2790.152,1392.22c-.533.162-2.308.3-3.4,1.395a5.215,5.215,0,0,0-1.6,2.805,8.639,8.639,0,0,1-.383-4.145c.283-2.091,1.939-4.057,3.1-4.254,2.225-.744,4.593.766,4.586,1.92.024,1.169-1.175,1.848-2.3,2.279" transform="translate(-2130.584 -1061.853)" fill="#466eb6"/><path d="M2795.7,1223.422a5.686,5.686,0,0,1,2.306-.852,4.39,4.39,0,0,1,2.151.326,4.743,4.743,0,0,0-1.871-1.552,4.644,4.644,0,0,0-3.58-.232c-1.426.615-1.8,2.047-1.229,2.435a2.522,2.522,0,0,0,2.222-.125" transform="translate(-2137.151 -934.101)" fill="#466eb6"/><path d="M2813.254,1202.186a5.692,5.692,0,0,0-.539,2.4,4.384,4.384,0,0,0,.608,2.088,4.737,4.737,0,0,1-1.786-1.649,4.646,4.646,0,0,1-.7-3.518c.42-1.494,1.79-2.058,2.25-1.54a2.522,2.522,0,0,1,.17,2.219" transform="translate(-2150.534 -917.976)" fill="#466eb6"/><path d="M2689.388,1314.243a5.694,5.694,0,0,1,2.306-.852,4.389,4.389,0,0,1,2.15.326,4.734,4.734,0,0,0-1.871-1.552,4.644,4.644,0,0,0-3.58-.232c-1.425.614-1.8,2.047-1.228,2.435a2.522,2.522,0,0,0,2.222-.125" transform="translate(-2055.81 -1003.59)" fill="#466eb6"/><path d="M2709.255,1293.254a5.7,5.7,0,0,0-.733,2.347,4.388,4.388,0,0,0,.435,2.131,4.742,4.742,0,0,1-1.645-1.79,4.646,4.646,0,0,1-.414-3.564c.542-1.455,1.953-1.9,2.37-1.35a2.522,2.522,0,0,1-.012,2.225" transform="translate(-2070.954 -987.617)" fill="#466eb6"/><path d="M1835.766,1552.364a22.974,22.974,0,0,1,2.843,2.391,21.255,21.255,0,0,1,5.03,8.57c.066.217.087.416.288.542a.111.111,0,0,0,.149-.039c.122-.229.02-.44-.047-.679a20,20,0,0,0-2.994-5.96,14.167,14.167,0,0,0-5.257-4.846.012.012,0,0,0-.012.02" transform="translate(-1404.579 -1187.729)" fill="#466eb6"/><path d="M1818.876,1553.062a5.693,5.693,0,0,1,2.306-.852,4.4,4.4,0,0,1,2.15.326,4.738,4.738,0,0,0-1.871-1.552,4.644,4.644,0,0,0-3.58-.232c-1.426.614-1.8,2.047-1.229,2.435a2.525,2.525,0,0,0,2.223-.125" transform="translate(-1389.763 -1186.315)" fill="#466eb6"/><path d="M1836.429,1531.825a5.694,5.694,0,0,0-.539,2.4,4.393,4.393,0,0,0,.608,2.088,4.74,4.74,0,0,1-1.786-1.649,4.647,4.647,0,0,1-.7-3.518c.42-1.494,1.79-2.058,2.251-1.54a2.521,2.521,0,0,1,.17,2.219" transform="translate(-1403.146 -1170.19)" fill="#466eb6"/><path d="M1251.4,1479.354c14.306,4.375,26.688,13.408,38.593,22.184,8.028,5.918,7.353,7.041,9.032,8.014a.368.368,0,0,0,.535-.411c-.432-1.5-2.071-2.774-3.184-3.8a49.875,49.875,0,0,0-4.092-3.352c-3.027-2.252-6.171-4.358-9.29-6.48a149.92,149.92,0,0,0-19.774-11.776,75.973,75.973,0,0,0-11.789-4.493.061.061,0,0,0-.032.117" transform="translate(-957.438 -1131.793)" fill="#466eb6"/><path d="M1297.268,1457.721a9.593,9.593,0,0,0-1.1,4,7.4,7.4,0,0,0,.851,3.566,7.99,7.99,0,0,1-2.871-2.923c-1.169-1.881-1.451-4.836-.9-5.982.831-2.481,3.184-3.318,3.917-2.407.76.9.49,2.451.1,3.751" transform="translate(-989.28 -1112.189)" fill="#466eb6"/><path d="M1348.341,1487.745a9.6,9.6,0,0,0-1.1,4,7.4,7.4,0,0,0,.851,3.566,7.984,7.984,0,0,1-2.871-2.923c-1.169-1.881-1.452-4.835-.9-5.982.83-2.481,3.183-3.318,3.917-2.407.76.9.49,2.452.1,3.751" transform="translate(-1028.358 -1135.162)" fill="#466eb6"/><path d="M1399.307,1523.135a9.6,9.6,0,0,0-1.1,4,7.4,7.4,0,0,0,.851,3.566,7.988,7.988,0,0,1-2.871-2.923c-1.169-1.881-1.452-4.835-.9-5.982.831-2.481,3.184-3.318,3.917-2.407.76.9.49,2.452.1,3.751" transform="translate(-1067.353 -1162.239)" fill="#466eb6"/><path d="M1272.162,1503.854a8.876,8.876,0,0,1,2.622-2.795,6.847,6.847,0,0,1,3.225-1.043,7.385,7.385,0,0,0-3.689-.86c-2.047-.018-4.515,1.18-5.153,2.17-1.559,1.85-1.087,4.109-.016,4.25,1.073.17,2.171-.793,3.011-1.723" transform="translate(-970.3 -1147.027)" fill="#466eb6"/><path d="M1325.329,1534.85a8.869,8.869,0,0,1,2.622-2.794,6.84,6.84,0,0,1,3.225-1.044,7.388,7.388,0,0,0-3.688-.86c-2.047-.018-4.516,1.18-5.153,2.17-1.559,1.849-1.087,4.109-.016,4.25,1.073.169,2.171-.792,3.011-1.723" transform="translate(-1010.979 -1170.742)" fill="#466eb6"/><path d="M1237.4,1481.215a5.687,5.687,0,0,1,2.016-1.408,4.386,4.386,0,0,1,2.163-.229,4.742,4.742,0,0,0-2.2-1.027,4.644,4.644,0,0,0-3.522.682c-1.223.955-1.226,2.436-.572,2.667.651.248,1.468-.211,2.118-.684" transform="translate(-944.805 -1131.202)" fill="#466eb6"/><path d="M1249.152,1457.5a5.692,5.692,0,0,0,.086,2.457,4.391,4.391,0,0,0,1.117,1.866,4.744,4.744,0,0,1-2.145-1.143,4.645,4.645,0,0,1-1.573-3.225c.028-1.552,1.211-2.444,1.788-2.06s.714,1.3.727,2.1" transform="translate(-953.819 -1113.483)" fill="#466eb6"/><path d="M712.306,1598.88H2.694a2.694,2.694,0,0,1,0-5.387H712.306a2.694,2.694,0,1,1,0,5.387" transform="translate(0 -1219.215)" fill="#3c8f7c"/><path d="M493.5,552.817c-5.563,1.488-6.489,22.931-6.489,22.931l-17.633-2.022s3.214-22.36,12.527-31.7,32.846-3.632,41.794,2.186,5.066,13.228,5.066,13.228-29.7-6.107-35.265-4.619" transform="translate(-359.129 -410.925)" fill="#13375b"/><path d="M442.975,679.973c-.922,20.365-6.63,22.169-6.743,22.452-.119.022-4.678,3.527-9.723-1.109l1.677-1.7a6.89,6.89,0,0,0,2.871,1.695,5.137,5.137,0,0,0,4.047-.614,6.768,6.768,0,0,0,1.92-1.811c2.928-3.916,4.325-14.091,4.721-18.954Z" transform="translate(-326.331 -520.229)" fill="#355389"/><path d="M603.394,560.325a100.186,100.186,0,0,0-2.757,17.591c-.282,7.887-5.719,14.465-6.426,34.2A363.963,363.963,0,0,1,590.685,650s-21.9,1.525-26.214-3.123-2.444-46.9,1.82-67.444-14.483-26.143-4.743-32.873,22.408-2.17,27.77-.342,14.232,9.753,14.076,14.1" transform="translate(-427.476 -415.467)" fill="#184655"/><path d="M509.742,606.9a127.657,127.657,0,0,0-.642,31.723c1.944,15.963-1.151,47.455-1.151,47.455s-16.316,11.391-21.11,2.347c-.9-1.7-3.053-21.872-3.247-30.306-.206-8.958,1.027-40.247,1.442-50.387a12.474,12.474,0,0,1,1.827-6.005c3.565-5.823,11.749-18.711,14.594-19.157,3.714-.581,10.237,7.45,8.286,24.33" transform="translate(-369.989 -445.712)" fill="#f7cc7f"/><path d="M487.979,725.521c2.295,2.237,16.879,16.264,24.2,17.276q-.128-1.339-.224-2.664c-5.724-.918-18.621-12.8-23.85-17.871-.04,1.038-.082,2.128-.125,3.259" transform="translate(-373.363 -552.618)" fill="#13375b"/><path d="M509.7,888.1q.024-1.314.034-2.618c-4.423,1.9-19.987.685-26.157,0-.008.913-.011,1.753-.009,2.51,5.656.63,20.858,2.294,26.132.108" transform="translate(-369.989 -677.5)" fill="#13375b"/><path d="M489.863,960.739c.091.826.182,1.633.275,2.414,6.149,1.232,18-4.019,23.68-6.486.059-.932.117-1.893.174-2.879-5.286,2.3-18.722,7.969-24.129,6.951" transform="translate(-374.804 -729.764)" fill="#13375b"/><path d="M487.445,959.471c2.733,1.146,19.742,8.443,23.626,8.692.06-.72.125-1.52.194-2.39-2.737-.254-15.686-5.668-24.094-9.174.088.957.18,1.918.275,2.872" transform="translate(-372.744 -731.914)" fill="#13375b"/><path d="M547.541,871.64H553a3.565,3.565,0,0,0,3.565-3.565V836.061A3.565,3.565,0,0,0,553,832.5h-5.459a3.565,3.565,0,0,0-3.565,3.565v32.013a3.565,3.565,0,0,0,3.565,3.565" transform="translate(-416.207 -636.961)" fill="#50bfa5"/><rect width="12.59" height="2.636" transform="translate(127.769 207.189)" fill="#13375b"/><path d="M522.941,1468.317s-5.831,5.353-5.844,5.363c-.817.6-3.009,1.929-3.645,2.583-2.39,2.457,12.923,8.582,11.54,5.1-.125-.315-.36-3.087.38-3.994,1.141-1.4,3.194-3.39,3.194-3.39Z" transform="translate(-392.659 -1123.44)" fill="#f7a491"/><path d="M512.936,1498.486a54.819,54.819,0,0,1-4.781-2.848c-1.493-1.095-1.681-4.368-3.023-4.848-1.478-.528-7.685,5.82-7.685,5.82s12.133,13.186,18.482,17.58a5.69,5.69,0,0,0,3.611.655c2.243.04-3.077-9.489-6.6-16.359" transform="translate(-380.606 -1140.611)" fill="#184655"/><path d="M867.3,1505.321s1.811,8.765,1.813,8.783c.113,1.145.128,4.042.393,5.038,1,3.744,15.756-7.626,11.594-8.288a5.377,5.377,0,0,1-2.893-1.967,34.909,34.909,0,0,1-2.183-5.774Z" transform="translate(-663.588 -1150.064)" fill="#f7a491"/><path d="M884.7,1535.966a61.856,61.856,0,0,1-5.513,3.011c-1.92.821-5.433-1.458-6.671-.428-1.364,1.133.856,11.172.856,11.172s25.248-6.693,30.62-10.168c2.128-1.376-10.613-3.054-19.292-3.587" transform="translate(-667.243 -1175.2)" fill="#184655"/><path d="M811,774.256c-4.028-1.775-4.2-1.039-4.707-1.281-.6-.285-5.052-7.865-5.052-7.865s-13.268-22.247-13.94-23.474l-2.643-26.808L770.6,712.8s3.673,29.063,4.139,30.54,22.064,29.385,23.882,31.9c0,0,1,3.827,1.716,6.206s2.484,4.29,2.791,4.926a21.17,21.17,0,0,0,3.319,4.289c1.829,1.844.989-.753.989-.753s-2.739-4.031-2.368-4.2c.286-.129,1.645,2.164,3.646,4.224.515.53,1.025,1.051,1.5,1.526,1.24,1.246,2.4.832,1.328-.682a16.827,16.827,0,0,0-1.594-1.961,13.891,13.891,0,0,1-1.38-1.927,18.194,18.194,0,0,1-1.409-2c.089-.013.092-.363.656.182a42.61,42.61,0,0,0,2.872,3.257c.611.5,1.819,1.63,1.819,1.63a15.3,15.3,0,0,0,2.294,1.26c.7-.54-.5-1.885-1.425-2.459a11.361,11.361,0,0,0-1.694-1.817s-2.088-2.924-1.657-3.233c.183-.132,1.689,1.5,3.431,2.873,1.618,1.27,3.475,2.288,3.792,2.005.538-.481-1.1-2.084-1.1-2.084s-1.21-1.061-1.582-1.445c-.438-.45-1.638-1.9-1.638-1.9s-3.931-5.237-3.5-5.5a3.331,3.331,0,0,1,2.158-.267c.362.238.778,1.022,1.14,1.26a1.141,1.141,0,0,0,1.4-.184c.35-.422-.923-2.242-.923-2.242A6.824,6.824,0,0,0,811,774.256" transform="translate(-589.603 -545.378)" fill="#f8a492"/><path d="M769.873,615.424c10.879,2.592,13.62,26.871,14.279,30.007-3.606,1.267-7.884,2.545-11.586,3.624l-4.429-34.121a17.6,17.6,0,0,0,1.736.49" transform="translate(-587.718 -470.499)" fill="#3c8f7c"/><path d="M764.481,1000.537l15.646,62.542,9.892,60.566-12.317,1.66s-17.349-46.317-17.832-51.648-9.192-30.251-9.192-30.251Z" transform="translate(-574.359 -765.532)" fill="#355389"/><path d="M566.116,969.712s1.171,59.966.205,65.539-27.178,53.118-27.178,53.118l8.825,9.592s37.505-43.485,39.158-47.321c2.591-6.014,15.384-73.811,15.384-73.811Z" transform="translate(-412.509 -741.947)" fill="#13375b"/><path d="M658.837,615.28s-6.645-.609-9.3,5.69-5.313,36.587-4.105,51.125-3.887,34.659-3.887,34.659c23.164,11.989,39.627-.979,39.627-.979s6.116-55.632,3.864-65.906c-4.708-21.474-13.758-24.936-13.758-24.936Z" transform="translate(-490.859 -470.499)" fill="#96d9c9"/><path d="M590.626,777.239c-2.509-4.09-3.073-3.509-3.381-4.043-.364-.631.04-10.367.04-10.367s1.006-28.706,1.113-30.254l12.85-26.5-11.108-10.4s-13.225,29.221-13.654,30.875,2.629,40.668,2.79,44.11c0,0-1.288,4.162-2.012,6.8s-.259,5.49-.351,6.267a25.041,25.041,0,0,0,.469,6c.553,2.82,1.288-.1,1.288-.1s-.109-5.4.309-5.335c.322.053.211,3.006.791,6.134.149.8.3,1.6.442,2.324.377,1.909,1.627,2.231,1.543.172a19.906,19.906,0,0,0-.282-2.788,16.461,16.461,0,0,1-.114-2.627,21.491,21.491,0,0,1-.1-2.708c.085.043.285-.282.469.567.221,1.02.224,3.29.663,4.766.249.837.665,2.617.665,2.617a17.461,17.461,0,0,0,1.288,2.561c.912-.08.63-2.054.148-3.148a13.386,13.386,0,0,0-.449-2.715s-.168-3.981.382-4.008c.234-.011.622,2.42,1.368,4.748.693,2.161,1.736,4.232,2.173,4.161.741-.12.221-2.6.221-2.6s-.455-1.719-.563-2.3c-.127-.682-.356-2.754-.356-2.754s-.468-7.247.056-7.227a3.4,3.4,0,0,1,2.032,1.061c.181.44.1,1.421.282,1.861a1.169,1.169,0,0,0,1.328.68c.543-.18.463-2.642.463-2.642a8,8,0,0,0-.8-3.182" transform="translate(-441.05 -532.271)" fill="#f8a492"/><path d="M611.462,645.074l14.561,11.294s6.43-6.131,9.659-12.911c3.269-6.864-.712-24.951-4.191-24.021-7.782,2.082-20.028,25.637-20.028,25.637" transform="translate(-467.842 -473.918)" fill="#3c8f7c"/><path d="M719.913,556.367l-2.179,14.36s7.957,17.1,12.706,15.615c3.985-1.244,1.534-16.373,1.534-16.373s-2.173-8.125-1.521-12.19-10.54-1.412-10.54-1.412" transform="translate(-549.153 -425.038)" fill="#f7a491"/><path d="M736.962,557.78c.652-4.066-10.54-1.412-10.54-1.412l-.181,1.191a6.618,6.618,0,0,0,1.214,2,14.734,14.734,0,0,0,9.786,4.428,22.168,22.168,0,0,1-.279-6.209" transform="translate(-555.662 -425.038)" fill="#f47458"/><path d="M716.372,458.03c-.316-.115-2.536,16.355,1.676,20.887s12.417,6.015,15.36,2.446c3.255-3.948,3.092-21.65-3.456-26.312s-13.58,2.979-13.58,2.979" transform="translate(-547.448 -347.017)" fill="#f7a491"/><path d="M701.08,422.12a18.186,18.186,0,0,0-9.544,5.443c-2.3.272-5.421,1.542-8.646,6.882-3.966,6.566-1.037,13.841,3.579,17.41s4.552,7.692,4.552,7.692l.73-2.132a11.921,11.921,0,0,0,.578-5.023,9.813,9.813,0,0,0-.747-3.02c-1.11-2.384,2.385-3.968,3.365-5.95.755-1.527.791-5.021,1.981-7.545l1.42-1.927s3.276-2.549,6.481-1.83,2.744-11.323-3.749-10" transform="translate(-521.069 -322.896)" fill="#184655"/><path d="M725.683,513.883c.034,2.009-.88,3.654-2.04,3.674s-2.128-1.593-2.161-3.6.88-3.655,2.04-3.675,2.128,1.593,2.161,3.6" transform="translate(-552.02 -390.427)" fill="#f7a491"/><path d="M661.29,631.073c.3-12.512-.472-29.709-12.406-34.588-4.264-1.789-9.471.222-13.42,1.692a19.7,19.7,0,0,1,11.776,2.513c9.823,4.966,9.747,19.194,9.391,30.274-.9,27.861-22.246,24.91-22.246,24.91l-.5,1.855s8.021,2.633,18.252-2.416c8.158-4.026,9.15-24.239,9.15-24.239" transform="translate(-485.001 -455.845)" fill="#184655"/><path d="M2408.474,1126.935s-6.593,32.407-3.587,35.414,19.645,9.143,23.423,7.74,11.55-38.427,9.391-42.1-27.476-6.216-29.228-1.057" transform="translate(-1839.428 -860.012)" fill="#466eb6"/><path d="M2434.107,1540.76s.432,3.721.432,4.352v.631l-.309.642-.123.255,2.226,3.123s8.938.133,9.137.133-1.2-2.16-1.2-2.16-2.958-2.226-3.489-3.788.451-4.818.451-4.818Z" transform="translate(-1862.386 -1177.622)" fill="#f7a491"/><path d="M2204.337,1429.418s-3.183,1.975-3.677,2.368l-.494.393-.311.641-.123.254-3.831.2s-5.661-6.918-5.785-7.074,1.628.234,1.628.234,3.574.483,5.127-.071,4.7-3.65,4.7-3.65Z" transform="translate(-1675.698 -1088.547)" fill="#f7a491"/><path d="M2262.149,1302.614l-34.289,29.205,5.283,7.476s33.648-21.145,35.492-21.394,4.74.4,5.088,1.748,1.424,41.183,1.424,41.183h9.155l4.774-50.833Z" transform="translate(-1704.582 -996.658)" fill="#b75742"/><path d="M2527.986,1066.228c2.537-1.663,8.5-8.058,10.515-10.235a6.818,6.818,0,0,1,1.838-3.615c1.146-1.328,2.015-4.357,2.767-3.5s-1.114,3.265-.26,3.281,5.1-4.75,5.776-3.972-3.624,5.015-2.86,5.029,4.259-4.277,5.223-3.176-4.581,4.667-4.064,5.257,3.952-1.748,4.728-.863-4.846,2.971-4.4,2.98,3.694-.079,3.718.545c.027.706-8.206,1.8-9.214,3.027-2.152,3.425-5.981,9.682-9.859,12.427-4.744,3.359-15.71,10.483-15.71,10.483l-5.447-7.037s14.238-8.66,17.247-10.633" transform="translate(-1921.019 -801.926)" fill="#f7a491"/><path d="M2645.023,1071.827a3.388,3.388,0,0,1,.331,1.323,3.3,3.3,0,0,1-1.071,2.663,5.625,5.625,0,0,0,.74-3.986" transform="translate(-2023.196 -820.078)" fill="#f48c7f"/><path d="M2304.919,1018.066c-2.013-2.268-6.094-10-7.473-12.629a6.816,6.816,0,0,0-.828-3.969c-.76-1.581-.805-4.732-1.755-4.1s.221,3.442-.608,3.235-3.675-5.917-4.536-5.344,2.187,5.788,1.445,5.6-2.993-5.242-4.211-4.432,3.2,5.7,2.548,6.137-3.358-2.721-4.338-2.069,3.9,4.135,3.464,4.026-3.544-1.042-3.73-.446c-.211.674,7.448,3.888,8.1,5.331,1.18,3.869,3.24,10.908,6.266,14.572,3.7,4.483,12.421,14.227,12.421,14.227l7.1-5.367s-11.478-12.082-13.866-14.773" transform="translate(-1748.22 -761.462)" fill="#f7a491"/><path d="M2320.3,1024.365a3.389,3.389,0,0,0-.666,1.19,3.294,3.294,0,0,0,.338,2.85,5.626,5.626,0,0,1,.328-4.041" transform="translate(-1774.66 -783.763)" fill="#f48c7f"/><path d="M2368.176,1114.616l-6.4,8.351,7.947,11.822s-.748,8.784-1.894,11.525-7.775,14-7.775,14,16.1,9.868,31.847,8.423c0,0,4.436-22.826,5.681-25.019s13.257-13.057,13.257-13.057l-5.831-9.42-10.068,5.583s-18.4-2.974-19.287-3.86-7.476-8.351-7.476-8.351" transform="translate(-1805.726 -852.816)" fill="#f7cc7f"/><path d="M2430.288,1038.7s-6.213-3.289-8.339,2.159c0,0-5.582-.565-4.619,5.216,0,0-5.615,2.824-2.06,10.1,0,0-1.562,6.845,6.446,7.277,0,0,1.2,2.426,4.851,1.861s4.585-1.528,4.585-1.528,6.479,1.894,8.439-3.954c0,0,4.452-1.063,1.462-6.778,0,0,3.888-7.409-2.957-9.635,0,0-.8-7.576-7.808-4.718" transform="translate(-1847.071 -793.979)" fill="#f47458"/><path d="M2492.994,1103.7c-.5,1.408-.142,2.827.81,3.168s2.133-.524,2.638-1.932.142-2.828-.81-3.169-2.134.524-2.639,1.933" transform="translate(-1907.268 -842.931)" fill="#f7a491"/><path d="M2422.371,1086.979c-.071,1.495.691,2.745,1.7,2.793s1.887-1.125,1.958-2.62-.691-2.745-1.7-2.793-1.887,1.125-1.958,2.62" transform="translate(-1853.403 -829.665)" fill="#f7a491"/><path d="M2448.488,1130.529c0,.1-.807,3.567-1.235,5.4a1.474,1.474,0,0,0,.826,1.676c1.708.78,5.068,1.869,7.389-.235a.973.973,0,0,0,.315-.754l-.284-8.28Z" transform="translate(-1872.414 -863.314)" fill="#f7a491"/><path d="M2450.8,1132.473c1.808.911,4.082.93,6.632-.565a10.143,10.143,0,0,0,.913-.6l-.1-2.967-7.01,2.193c0,.047-.189.884-.433,1.943" transform="translate(-1875.155 -863.315)" fill="#f48c7f"/><path d="M2442.06,1055.966a8.9,8.9,0,0,1,4.857,3.785c1.8,2.977,2.791,11.582-3.629,15.346s-11.092-2.065-10.971-7.579,2.573-12.563,9.742-11.552" transform="translate(-1861.015 -807.867)" fill="#f7a491"/><path d="M2425.816,1575.681c-1.365-.173.992-4.906,1.75-5.664l10.044,1.351s4.834,2.242,5.981,3.389c.272.272.307.748-.873.924a100.528,100.528,0,0,1-16.9,0" transform="translate(-1855.723 -1201.254)" fill="#466eb6"/><path d="M2176.956,1446.71c1.179.709,3.324-3.9,3.446-4.966l-8.11-6.387s-6.258-1.794-7.521-.531c-1.146,1.146,9.507,10.276,12.184,11.885" transform="translate(-1656.246 -1097.471)" fill="#466eb6"/><path d="M2490.317,1192.49c-6.475-6.475-5.191-26.372-4.006-34.778l2.779.391c-1,7.119-2.373,26.818,3.211,32.4Z" transform="translate(-1901.589 -885.79)" fill="#466eb6"/><path d="M2387.837,1173.511l-.314-2.522a223.668,223.668,0,0,1,9.688-23.511l2.506,1.264c-.045.089-5.356,12.633-11.88,24.769" transform="translate(-1826.744 -877.96)" fill="#466eb6"/><path d="M1908.442,1152.8s-11.046-1.465-15.076.619-6.236,26.9-6.236,26.9l3.578,1.087s-.509,17.186,2.226,18.379,21.948-2.511,26.329-6.892-3.866-41.013-3.866-41.013Z" transform="translate(-1443.883 -881.332)" fill="#3c8f7c"/><path d="M2040.967,991.7c1.287-2.889,2.906-11.858,3.448-14.905a7.108,7.108,0,0,1-.428-4.206c.257-1.811-.691-4.957.453-4.628s.865,3.491,1.623,3.023,1.789-7.038,2.825-6.74-.35,6.441.328,6.023,1.323-6.152,2.788-5.731-1.385,6.676-.6,6.9,2.48-3.762,3.659-3.423-2.573,5.339-2.174,5.093,3.193-2.153,3.566-1.619c.422.6-6.177,6.211-6.372,7.851.046,4.217.217,11.863-1.635,16.457-2.266,5.621-7.863,18.053-7.863,18.053l-8.745-3.1s7.6-15.624,9.126-19.05" transform="translate(-1554.604 -737.755)" fill="#f7a491"/><path d="M2096.028,998.623a3.525,3.525,0,0,1,1.036.974,3.435,3.435,0,0,1,.563,2.939,5.868,5.868,0,0,0-1.6-3.912" transform="translate(-1603.715 -764.068)" fill="#f48c7f"/><path d="M1796.008,1132.851a6.432,6.432,0,0,0-.576-3.778c-.616-1.513-.535-4.452-1.408-3.912s.063,3.22-.668,2.983-3.05-5.7-3.842-5.214,1.727,5.507,1.072,5.3-2.467-5.04-3.586-4.348,2.636,5.48,2.035,5.851-2.892-2.709-3.792-2.152,3.321,4.055,2.936,3.931-3.124-1.154-3.313-.608c-.215.618,5.468,3.105,6,4.484s9.238,15.508,12.127,15.824,16.809-7.068,18.058-9.822.4-5.909-1.448-6.506-14.883,6.809-15.463,6.621-8.126-8.651-8.126-8.651" transform="translate(-1365.633 -859.154)" fill="#f7a491"/><path d="M1818.64,1149.454a3.524,3.524,0,0,0-.7,1.238,3.436,3.436,0,0,0,.338,2.973,5.867,5.867,0,0,1,.361-4.211" transform="translate(-1390.794 -879.472)" fill="#f48c7f"/><path d="M1834.228,1435.2c-1.5-.52-4.2-3.256-4.2-3.256-3.471,2.682-10.667,11.052-10.667,11.052a2.9,2.9,0,0,0,2.492.405c1.147-.521,6.427-2.884,8.883-2.032.639.222,7.8,2.651,14.15,4.287.781-2.276-1.365-6.828-.305-8.965-3.389-1.1-9.856-1.32-10.351-1.491" transform="translate(-1392.03 -1095.612)" fill="#f7a491"/><path d="M1824.936,1428.485s-6.227,6.365-6.834,7.495c-.495.92-8.223,4.08-8.611,2.9s9.194-13.831,10.705-14.293,4.74,3.9,4.74,3.9" transform="translate(-1384.471 -1089.954)" fill="#07345a"/><path d="M2036.163,1494.717c-.522,1.449-3.328,4.089-3.328,4.089,2.819,3.318,11.576,10.165,11.576,10.165a2.648,2.648,0,0,0,.392-2.408c-.553-1.1-3.352-7.951-2.5-10.328a56.108,56.108,0,0,1,3.394-7.835,61.657,61.657,0,0,1-6.919-2.847c-1.105,3.28-2.446,8.686-2.619,9.166" transform="translate(-1555.364 -1136.626)" fill="#f7a491"/><path d="M1994.95,1314.5s16.205,16,17.856,19.086c1.234,2.306-6.245,26.02-6.245,26.02s-7.031-.535-9.972-3.371c0,0,3.72-16.545,2.948-17.29s-19.289-11.486-19.289-11.486l2.3-9.8Z" transform="translate(-1515.13 -1005.756)" fill="#b75742"/><path d="M1932.523,1304.067s-4.231,9.82-4.231,13.652c0,2.934,1.3,26.438-4.9,28.7-3.515,1.286-20.066-.612-20.066-.612l1.5-10.641s7.881,1.17,8.573.5-6.311-18.391-4.85-24.472,13.608-9.789,13.608-9.789Z" transform="translate(-1456.276 -995.739)" fill="#f47458"/><path d="M2025.042,1118.413s1.975.592,8.057,8.858l-9.764,15.434-5.948-14.344Z" transform="translate(-1543.544 -855.721)" fill="#9bc1f9"/><path d="M1911.148,1157.068a50.5,50.5,0,0,0,7.332-1.314c1.942-.7,14.679,41.332,10.224,42.289-9.305,2-33.477,7.323-33.477,7.323a15.3,15.3,0,0,1,.882-6.551c2.257-7.184,3.535-23.624,3.535-26.522,0-1.7-8.819,4.2-8.819,4.2l-3.7-13.354s11.259-4.522,15.205-5.335c1.1-.227,8.813-.735,8.813-.735" transform="translate(-1443.882 -884.286)" fill="#9bc1f9"/><path d="M2016.638,1181.9c-1.417-6.861-13.474-27.45-13.579-27.644l2.475-1.325c.433.809,10.191,18.215,11.689,25.473Z" transform="translate(-1532.582 -882.129)" fill="#3c8f7c"/><path d="M2028.163,1531.146s7.024,6.408,8.3,7.027c1.036.5,3.432,8.086,2.115,8.5s-14.355-8.979-14.891-10.548,4.481-4.983,4.481-4.983" transform="translate(-1548.33 -1171.512)" fill="#07345a"/><path d="M1920.832,1194.1l-1.263-2.011c.107-.067,10.773-6.876,11.976-15.564,1.216-8.779-4.973-18-5.035-18.094l1.962-1.338c.277.406,6.768,10.06,5.425,19.757-1.356,9.791-12.588,16.95-13.066,17.25" transform="translate(-1468.702 -885.316)" fill="#3c8f7c"/><path d="M1927.936,1039.7a6.014,6.014,0,0,1,7.02,2.775c2.756,4.32,1.266,3.91,2.607,6.07s4.842,1.713,4.842,5.065-1.564,3.873-1.564,3.873a5.705,5.705,0,0,1-.149,5.288c-1.564,2.681-5.464,4.99-8.728,4.618,0,0-4.9,2.687-9.818,1.418s-3.2-1.269-5.214-1.269-7.448-2.756-6.554-6.778c0,0-3.313-3.936-.1-7.15s3.823-6.48,5.684-10.8,9.738-4.152,11.973-3.109" transform="translate(-1460.52 -795.022)" fill="#184655"/><path d="M1976.89,1131.369s-.179,5.932.378,6.489a2.165,2.165,0,0,1,.516,2.9c-.82,1.415-4.376.512-6.033-.3a7.838,7.838,0,0,1-2.617-2.224l.83-9.4Z" transform="translate(-1506.625 -863.697)" fill="#f7a491"/><path d="M1976.849,1133.827a8.317,8.317,0,0,1-4.678-3.675l.116-1.316,6.926,2.532s-.043,1.447-.021,2.979a7.952,7.952,0,0,1-2.344-.521" transform="translate(-1508.949 -863.697)" fill="#b75742"/><path d="M1956.627,1090.842s-.168-3.487-2.31-2.81-.51,5.94,1.266,5.767,1.044-2.957,1.044-2.957" transform="translate(-1494.51 -832.41)" fill="#f7a491"/><path d="M1968.1,1051.568a6.33,6.33,0,0,1,5.064,2.532c1.713,2.607,3.575,10.055.745,15.195s-6.443,3.873-7.932,3.351-4.432-1.676-5.921-6.48-.41-15.6,8.044-14.6" transform="translate(-1499.247 -804.527)" fill="#f7a491"/><path d="M1921.12,443.145l-1.913,3.535-6.028-2.451-3.435,4.823-4.811-1.1-.555,2.435,6.434,1.466,3.255-4.571,6.271,2.549,2.88-5.319Z" transform="translate(-1457.08 -339.06)" fill="#50bfa5"/><path d="M2436.712,860.592l-3.117,3.476,1.1,4.538a.455.455,0,0,1-.626.523l-4.269-1.89-3.977,2.445a.455.455,0,0,1-.691-.434l.478-4.644-3.554-3.027a.455.455,0,0,1,.2-.791l4.564-.98,1.781-4.316a.455.455,0,0,1,.814-.055l2.342,4.038,4.655.36a.455.455,0,0,1,.3.758" transform="translate(-1853.041 -654.339)" fill="#fed333"/><path d="M1980.788,824.49l-3.117,3.476,1.1,4.538a.455.455,0,0,1-.626.523l-4.269-1.89-3.977,2.445a.455.455,0,0,1-.691-.434l.478-4.644-3.554-3.027a.455.455,0,0,1,.2-.791l4.564-.98,1.78-4.315a.455.455,0,0,1,.814-.055l2.342,4.038,4.654.36a.455.455,0,0,1,.3.758" transform="translate(-1504.204 -626.717)" fill="#fed333"/><path d="M909.965,195.742c0,.89-4.1,1.612-9.168,1.612s-9.168-.722-9.168-1.612,4.1-1.612,9.168-1.612,9.168.722,9.168,1.612" transform="translate(-682.204 -148.533)" fill="#f48c7f"/><path d="M906.061,78.914c-4.171,0-7.552,3.017-7.552,6.739s7.552,21.935,7.552,21.935,7.552-18.213,7.552-21.935-3.381-6.739-7.552-6.739m0,10.654a3.2,3.2,0,1,1,3.2-3.2,3.2,3.2,0,0,1-3.2,3.2" transform="translate(-687.468 -60.379)" fill="#f47458"/><path d="M1385.428,864.819c-1.406-1.215-2.478-5.026-2.2-5.3.356-.359,1.668-.1,2.084.056s.918.3,1.333.462a.867.867,0,0,0,1.11-.523c.234-.5-1.287-1.495-1.88-1.733a70.525,70.525,0,0,0-7.758-1.857c-.664-.152-8.277-9.427-11.138-12.4h0c-4.539-5-8.953-10.371-9.431-10.9L1345.113,806.5l-11.345.832s13.389,29.179,14.225,30.562c.4.658,11.815,11.436,11.82,11.432,5.956,4.953,11.217,9.3,12.2,10.167a31.549,31.549,0,0,0,2.361,6.095c.839,1.433,10.793-.582,11.051-.77" transform="translate(-1020.494 -617.072)" fill="#f48c7f"/><path d="M1332.971,720.41s8.747-1.541,13.095,30.27l-14.868,4.146-6.187-16.811Z" transform="translate(-1013.794 -551.192)" fill="#f47458"/><path d="M1432.919,1162.243v16.5a5.78,5.78,0,0,0,5.78,5.779h36.147a5.78,5.78,0,0,0,5.78-5.779v-16.5Z" transform="translate(-1096.356 -889.257)" fill="#b75742"/><path d="M1478.65,1180.335l1.974-1.555c0-.013,0-.025,0-.038v-1.033l-2.657,2.094-2.839-2.215,2.828-2.229,2.667,2.082v-1.066l-1.988-1.551,1.988-1.567v-1.071l-2.67,2.1-2.839-2.215,2.828-2.229,2.681,2.092v-1.066l-2-1.562,2-1.578v-1.071l-2.684,2.116-2.839-2.215,2.828-2.229,2.695,2.1v-1.067l-2.015-1.572,1.969-1.552h-1.358l-1.293,1.019-1.307-1.019h-1.367l1.994,1.555-2.828,2.229-2.839-2.216,1.991-1.569h-1.358l-1.315,1.037-1.328-1.037H1468.2l2.015,1.573-2.828,2.229-2.839-2.215,2.013-1.586h-1.358l-1.337,1.054-1.351-1.054h-1.366l2.037,1.589-2.828,2.23-2.839-2.216,2.034-1.6H1458.2l-1.359,1.071-1.372-1.071H1454.1l2.059,1.607-2.828,2.229-2.839-2.215,2.056-1.621h-1.358l-1.381,1.088-1.394-1.088h-1.366l2.081,1.624-2.828,2.229-2.839-2.216,2.078-1.638h-1.358l-1.4,1.106-1.417-1.106H1440l2.1,1.641-2.828,2.229-2.839-2.215,2.1-1.655h-1.358l-1.424,1.123-1.439-1.123h-1.366l2.125,1.658-2.151,1.7v2.128l2.165,1.689-2.165,1.706v2.107l2.179,1.7-2.179,1.717v2.086l2.192,1.71-1.446,1.139a5.787,5.787,0,0,0,.468.7l1.66-1.309,2.839,2.215-1.437,1.133a5.783,5.783,0,0,0,1.123.185l1-.785,1.024.8h1.366l-1.71-1.335,2.828-2.229,2.839,2.215-1.711,1.349h1.358l1.035-.816,1.046.816h1.366l-1.732-1.352,2.828-2.229,2.839,2.216-1.733,1.366h1.358l1.057-.833,1.067.833h1.367l-1.755-1.369,2.828-2.229,2.839,2.216-1.755,1.383h1.358l1.079-.85,1.09.85h1.366l-1.776-1.386,2.828-2.229,2.839,2.215-1.776,1.4h1.358l1.1-.868,1.112.868h1.367l-1.8-1.4,2.828-2.229,2.839,2.215-1.8,1.417h1.358l1.123-.885,1.078.842a5.787,5.787,0,0,0,1.069-.232l-1.468-1.145,2.828-2.229,1.576,1.23a5.813,5.813,0,0,0,.441-.722Zm-1.376-5.509-2.828,2.229-2.839-2.215,2.828-2.23Zm-37.307-2.665,2.828-2.229,2.839,2.215-2.828,2.229Zm2.159,2.751-2.828,2.23-2.839-2.216,2.828-2.229Zm4.19-2.233,2.839,2.216-2.828,2.229-2.839-2.216Zm.68-.536,2.828-2.229,2.839,2.216-2.828,2.229Zm6.35.519,2.839,2.215-2.828,2.229-2.839-2.215Zm.68-.536,2.828-2.229,2.839,2.215-2.828,2.23Zm6.35.518,2.839,2.216-2.828,2.229-2.839-2.216Zm.68-.536,2.828-2.229,2.839,2.215-2.828,2.229Zm6.35.519,2.839,2.215-2.828,2.229-2.839-2.216Zm.68-.536,2.828-2.229,2.839,2.216-2.828,2.229Zm6.336-4.994,2.839,2.215-2.828,2.229-2.839-2.215Zm-3.521-2.748,2.839,2.215-2.828,2.229-2.839-2.215Zm-3.508,2.765,2.839,2.215-2.828,2.229-2.839-2.216Zm-3.521-2.748,2.839,2.215-2.828,2.229-2.839-2.215Zm-3.508,2.765,2.839,2.215-2.828,2.229-2.839-2.215Zm-3.522-2.748,2.839,2.215-2.828,2.229-2.839-2.216Zm-3.508,2.765,2.839,2.215-2.828,2.229-2.839-2.215Zm-3.521-2.748,2.839,2.216-2.828,2.229-2.839-2.215Zm-3.508,2.765,2.839,2.215-2.828,2.229-2.839-2.215Zm-3.521-2.748,2.839,2.215-2.828,2.229-2.839-2.215Zm-3.508,2.765,2.839,2.215-2.828,2.229-2.839-2.215Zm-6.35-.519,2.828-2.229,2.839,2.215-2.828,2.229Zm.013,5.513,2.828-2.229,2.839,2.215-2.828,2.229Zm2.853,7.729-2.839-2.216,2.828-2.229,2.839,2.216Zm3.522,2.748-2.839-2.215,2.828-2.229,2.839,2.215Zm3.508-2.765-2.839-2.216,2.828-2.229,2.839,2.216Zm3.521,2.748-2.839-2.215,2.828-2.229,2.839,2.216Zm3.508-2.765-2.839-2.215,2.828-2.229,2.839,2.215Zm3.521,2.748-2.839-2.216,2.828-2.229,2.839,2.216Zm3.508-2.765-2.839-2.215,2.828-2.23,2.839,2.216Zm3.522,2.748-2.839-2.215,2.828-2.229,2.839,2.215Zm3.508-2.765-2.839-2.216,2.828-2.229,2.839,2.215Zm3.521,2.748-2.839-2.215,2.828-2.229,2.839,2.215Zm3.508-2.765-2.839-2.216,2.828-2.229,2.839,2.216Zm3.521,2.748-2.839-2.215,2.829-2.229,2.839,2.215Z" transform="translate(-1096.356 -889.258)" fill="#f48c7f"/><path d="M1470.295,1139.2h-50.81a1.18,1.18,0,0,1-1.18-1.18V1133.3a1.18,1.18,0,0,1,1.18-1.18h50.81a1.18,1.18,0,0,1,1.18,1.18v4.715a1.18,1.18,0,0,1-1.18,1.18" transform="translate(-1085.175 -866.209)" fill="#f47458"/><path d="M1490.449,1132.12l10.936,11.419,8.883-11.419Z" transform="translate(-1140.374 -866.209)" fill="#fae0b2"/><path d="M1490.567,1069.647h0a1.785,1.785,0,0,1-1.785-1.785v-8.022c0-7-5.059-14.05-11.628-14.05l-2.485-.054c-6.57,0-10.979,7.1-10.979,14.1v8.022a1.785,1.785,0,1,1-3.569,0v-8.022c0-8.969,6.946-16.267,15.484-16.267h1.263c8.538,0,15.484,7.3,15.484,16.267v8.022a1.785,1.785,0,0,1-1.785,1.785" transform="translate(-1117.168 -798.46)" fill="#b75742"/><path d="M1587.72,1143.874a1.016,1.016,0,1,1-1.016-1.016,1.016,1.016,0,0,1,1.016,1.016" transform="translate(-1213.244 -874.425)" fill="#fae0b2"/><path d="M1465.847,1140.294a1.016,1.016,0,1,1-1.016-1.016,1.015,1.015,0,0,1,1.016,1.016" transform="translate(-1119.996 -871.686)" fill="#fae0b2"/><path d="M1503.988,1036.872s-.917,5.829,1.835,6.476,9.057-1.754,8.463-2.779-6.412-5.478-7.275-4.614-1.835.162-3.022.917" transform="translate(-1150.62 -792.546)" fill="#f7a491"/><path d="M1177.614,554.461c-1.686-10.99-11.628-18.891-22.026-13.559a24.676,24.676,0,0,0-7.12,5.706c-4.442,5.7-5.519,12.766-10.227,18.249-4.06,4.727-14.9,3.835-19.956,7.47s-8.607,10.154-8.607,17.95c0,8.72,1.969,17.976,8.725,23.488s16.358,6.886,24.759,4.55,15.609-8.06,20.8-15.069a76.039,76.039,0,0,0,11.441-23.019,59.494,59.494,0,0,0,2.215-25.767" transform="translate(-849.038 -412.55)" fill="#184655"/><path d="M1225.926,704.241c-5.422-12.081-23.521-13.44-35.026-6.886-3.419,1.948-4.029,1.8-6.174,3.95-5.626,5.626-13.843,63.217,3.32,66.846s31.748,1.975,37.408-6.913c3.79-5.951,8.814-38.408.472-57" transform="translate(-901.117 -530.584)" fill="#f7cc7f"/><path d="M1385.918,1501.737s.875,9.548.3,12.662a12,12,0,0,1-.444,1.527c-.593,1.746,1.03,7.076,1.03,7.076l21.758.08c1.185,0,.393-.747-.571-1.436-1.578-1.128-2.85-1.871-7.875-4.221-.328-.153-1.523-.891-1.954-1.147a15.059,15.059,0,0,1-3.146-2.7c-1.583-1.716-1.824-10.131-1.824-10.131Z" transform="translate(-1060.185 -1149.011)" fill="#f7a491"/><path d="M1394.5,1562.555a19.734,19.734,0,0,1-12.391-.332c-.592,1.743-1.706,7.636-1.042,7.636,5.456,0,10.074,1.032,25.707.786.56-.009.492-1.931.126-2.356-1.008-1.172-11.969-5.478-12.4-5.734" transform="translate(-1056.528 -1195.29)" fill="#355389"/><path d="M1270.632,959.42s.309,13.629,4.215,22.357c3.8,8.5,22.011,29.466,26.851,41.7-1.5,6.9-5.608,16.6-5.311,24.254.337,8.669-.167,31.608-.167,31.608l9.771.31,12.818-59.2-19.316-63.87-8.765-15.51Z" transform="translate(-972.187 -720.038)" fill="#184655"/><path d="M1046.254,1443.94s-6,8.239-8.648,10.321c-1.416,1.115-5.262,2.613-5.668,4.458s17.418,18.159,17.418,18.159c.943.836.838-.321.552-1.548-.469-2.008-.962-3.494-3.326-8.9-.154-.352-.591-1.781-.756-2.288a16,16,0,0,1-.614-4.368c-.06-2.482,5.654-9.371,5.654-9.371Z" transform="translate(-789.552 -1104.789)" fill="#f7a491"/><path d="M1040.445,1500.755a20.978,20.978,0,0,1-9.662-8.962c-1.7.976-6.258,3.058-5.857,3.64,3.153,4.574,6.423,10.263,19.081,21.038.453.386,2.311-1.837,2.317-2.433.017-1.644-5.714-12.776-5.879-13.283" transform="translate(-784.173 -1141.402)" fill="#355389"/><path d="M1098.278,437.039s-12.765-22.784-15.871-27.627-11.2-24.089-11.485-24.847,5.572-9.866,4.263-10.178-2.756,4.8-4.151,4.191-5.473-12.921-6.268-12.31c-1.488,1.142,2.2,7.636,1.4,8.046s-3.2-7.145-4.755-6.922,2.963,6.924,2.527,7.515-5.129-5.722-5.978-4.376c-.461.731,4.315,5.512,3.4,5.959s-5.166-2.638-5.616-1.748,3.93,2.108,5.239,4.507,3.54,3.436,4.466,7.879,2.311,20.519,7.055,28.54,15.178,25.773,15.178,25.773Z" transform="translate(-807.748 -280.222)" fill="#f79c8d"/><path d="M1118.086,982.014s-7.555,11.348-9.353,20.74c-1.752,9.147,1.16,36.762-1.884,49.564-5.18,4.8-14.109,10.4-18.247,16.837-4.69,7.3-18.245,25.811-18.245,25.811l7.831,5.852,44.419-41.176,17.982-54.933,6.17-16.064Z" transform="translate(-818.952 -751.36)" fill="#13375b"/><path d="M1251.652,707.013s-10-.636-13.96,3.669,8.778,38.355,9.5,43.833-5.9,16.4-5.9,16.4,27.529,12.872,34.244,8.437c0,0-1.077-43.905-1.8-47.818s-6.715-19.827-8.155-21.393-13.928-3.13-13.928-3.13" transform="translate(-946.402 -540.926)" fill="#f47458"/><path d="M1301.828,649.606s-.052.294-.145.794c-.446,2.4-2.164,10.361-3.324,12.55-1.4,2.645,4.8,11.081,10.77,10.051,1.777-.307-1.5-7.751-1.344-8.54.3-1.51.711-3.569,1.129-5.681l.7-3.534c.638-3.226,1.159-5.864,1.159-5.864Z" transform="translate(-993.249 -496.858)" fill="#f7a491"/><path d="M1312.279,650.4c.093-.5.145-.794.145-.794l8.945-.223s-.521,2.638-1.159,5.864l-.7,3.514a8.387,8.387,0,0,1-4.271-2.137,11.26,11.26,0,0,1-3.235-4.8c.11-.564.2-1.051.271-1.423" transform="translate(-1003.845 -496.858)" fill="#f47458"/><path d="M1307.468,563.863a8.071,8.071,0,0,0-6.859,2.925c-2.643,3.411-5.491,13.96,1.074,19.7s13.052-.757,14.014-7.64,1.335-15.229-8.229-14.981" transform="translate(-992.868 -431.406)" fill="#f7a491"/><path d="M1370.993,615.037c-.784,1.52-2.1,2.362-2.938,1.88s-.884-2.1-.1-3.625,2.1-2.362,2.938-1.88.884,2.1.1,3.625" transform="translate(-1046.223 -467.7)" fill="#f7a491"/><path d="M1295.1,558.792s-5.633,10.032-9.662,10.5-4.559,5.794-4.559,5.794,1.441-12.283,5.43-14.652a14.843,14.843,0,0,1,8.791-1.638" transform="translate(-980.024 -427.463)" fill="#184655"/><path d="M1291.052,605.335c.328,1.781-.332,3.415-1.472,3.649s-2.331-1.021-2.658-2.8.331-3.415,1.472-3.649,2.331,1.021,2.659,2.8" transform="translate(-984.585 -460.99)" fill="#f7a491"/><path d="M1189.253,636.212s14.12,15.153,16.22,21.26-2.047,14.843-7.772,15.225-18.467-26.9-18.467-26.9Z" transform="translate(-902.256 -486.78)" fill="#b75742"/><path d="M1252.913,695.946c6.227,8.333,9.07,21.557,4.868,34.3a52.227,52.227,0,0,1-7.411,14.954c-4.695,6.257-8.382,7.9-8.058,7.708l-1.383-2.687a19.22,19.22,0,0,0,4.1-3.277,39.214,39.214,0,0,0,8.646-14.1c8.107-20.594-3.263-33.673-3.454-34.161-.079-.107-.156-.462-.209-.526Z" transform="translate(-949.461 -532.483)" fill="#f7cc7f"/><path d="M1358.2,760.541c-1.871-24.935-12.218-46.286-12.332-46.425l2.818-.228c.128.156,3.16,1.812,6.04,8.716a68.622,68.622,0,0,1,5.1,26.094c.009,2.37-1.627,11.843-1.627,11.843" transform="translate(-1029.749 -546.211)" fill="#f7cc7f"/><path d="M1201.412,15.819l-4.724-4.71,1.524-1.529,3.048,3.039,3.419-4.126,1.662,1.377Z" transform="translate(-915.611 -6.499)" fill="#50bfa5"/><path d="M1671.868,259.339a20.969,20.969,0,1,1,29.413,3.777,20.992,20.992,0,0,1-29.413-3.777m35.555-27.463a23.958,23.958,0,1,0-22.011,38.408c21.151,2.715,34.976-21.624,22.011-38.408" transform="translate(-1273.543 -170.283)" fill="#86b1f2"/><path d="M1681.653,269.124a20.969,20.969,0,1,1,29.413,3.777,20.993,20.993,0,0,1-29.413-3.777" transform="translate(-1283.327 -180.068)" fill="#fff"/><path d="M1742.82,264.458a7.182,7.182,0,0,0-7.26,7.091c.068,3.844,7.386,12,7.386,12s7.447-8.418,7.379-12.262a7.182,7.182,0,0,0-7.505-6.83m.172,9.744a2.79,2.79,0,1,1,2.9-2.836,2.873,2.873,0,0,1-2.9,2.836" transform="translate(-1327.913 -202.342)" fill="#86b1f2"/><path d="M1742.963,369.579l.922-.016.059.475h.022a1.177,1.177,0,0,1,2.033.007h.014c.688-.991,2.3-.9,2.33.889l.036,2.076-1.067.019-.034-1.917c-.009-.512-.18-.8-.533-.8a.586.586,0,0,0-.536.673l.036,2.061-1.067.019-.034-1.975c-.008-.447-.172-.747-.518-.741a.6.6,0,0,0-.543.68l.036,2.054-1.067.019c-.05-2.244-.022-2.451-.091-3.523" transform="translate(-1333.578 -282.647)" fill="#86b1f2"/><path d="M1769.844,364.174a.552.552,0,1,1-.012-1.1.552.552,0,1,1,.012,1.1m-.471,3.966-.062-3.524,1.1-.019.062,3.524Z" transform="translate(-1353.699 -277.794)" fill="#86b1f2"/><path d="M1777.755,369.1l.951-.017.059.482h.022a1.3,1.3,0,0,1,2.366.91l.037,2.09-1.1.019-.035-1.953c-.008-.454-.172-.761-.568-.754a.625.625,0,0,0-.586.695l.036,2.032-1.1.019c-.05-2.244-.022-2.451-.091-3.524" transform="translate(-1360.197 -282.316)" fill="#86b1f2"/><path d="M1793.754,558.176a20.969,20.969,0,1,1,20.622,21.31,20.993,20.993,0,0,1-20.622-21.31m44.921.737A23.958,23.958,0,1,0,1797.5,575.18c14.829,15.324,40.823,4.939,41.171-16.267" transform="translate(-1370.149 -409.005)" fill="#86b1f2"/><path d="M1803.491,567.913a20.969,20.969,0,1,1,20.622,21.31,20.993,20.993,0,0,1-20.622-21.31" transform="translate(-1379.887 -418.743)" fill="#fff"/><path d="M1893.073,599.543h0a1.007,1.007,0,0,1-1.008-1.007v-30.8a1.007,1.007,0,0,1,2.015,0v30.8a1.007,1.007,0,0,1-1.007,1.007" transform="translate(-1447.658 -433.617)" fill="#86b1f2"/><path d="M1853.43,590.6h-15a.646.646,0,0,1-.39-.131l-4.252-3.211a.648.648,0,0,1-.026-1.013l4.271-3.589a.646.646,0,0,1,.416-.152h14.984a.648.648,0,0,1,.648.648v6.8a.648.648,0,0,1-.648.648" transform="translate(-1402.871 -445.689)" fill="#86b1f2"/><path d="M1875.163,630.585h15a.645.645,0,0,0,.39-.131l4.252-3.211a.648.648,0,0,0,.026-1.013l-4.271-3.589a.648.648,0,0,0-.417-.152h-14.984a.648.648,0,0,0-.647.648v6.8a.648.648,0,0,0,.647.648" transform="translate(-1434.231 -476.28)" fill="#86b1f2"/><path d="M1879.111,633.021v-5.937h14.395l3.735,3.139-3.7,2.8Z" transform="translate(-1437.747 -479.796)" fill="#fdfffe"/><path d="M649.974,156.938a20.969,20.969,0,1,1,20.622,21.31,20.993,20.993,0,0,1-20.622-21.31m44.921.737a23.958,23.958,0,1,0-41.171,16.267c14.829,15.324,40.823,4.938,41.171-16.267" transform="translate(-495.019 -102.009)" fill="#86b1f2"/><path d="M659.711,166.675a20.969,20.969,0,1,1,20.622,21.31,20.993,20.993,0,0,1-20.622-21.31" transform="translate(-504.756 -111.747)" fill="#fff"/><path d="M720.06,210.027h0a.8.8,0,0,1-.8-.8v-24.6a.8.8,0,0,1,1.609,0v24.6a.8.8,0,0,1-.8.8" transform="translate(-550.318 -140.647)" fill="#86b1f2"/><path d="M774.622,210.027h0a.8.8,0,0,1-.8-.8v-24.6a.8.8,0,0,1,1.609,0v24.6a.8.8,0,0,1-.8.8" transform="translate(-592.064 -140.647)" fill="#86b1f2"/><path d="M711.706,183.53c0,3.332-2.007,6.034-4.483,6.034s-4.482-2.7-4.482-6.034,2.007-6.034,4.482-6.034,4.483,2.7,4.483,6.034" transform="translate(-537.682 -135.806)" fill="#86b1f2"/><path d="M766.8,180.065h-1.034a.345.345,0,0,0-.345.345v6.68a.345.345,0,0,1-.345.345h-.819a.345.345,0,0,1-.345-.345v-6.68a.345.345,0,0,0-.345-.345H762.19a.345.345,0,0,0-.345.345v6.68a.345.345,0,0,1-.345.345h-.819a.345.345,0,0,1-.345-.345v-6.68a.345.345,0,0,0-.345-.345h-1.121a.345.345,0,0,0-.345.345V188.6a4.31,4.31,0,0,0,8.62,0V180.41a.345.345,0,0,0-.345-.345" transform="translate(-580.364 -137.772)" fill="#86b1f2"/><path d="M1390.156,102.947a20.969,20.969,0,1,1,25.2-15.63,20.993,20.993,0,0,1-25.2,15.63m10.254-43.741a23.958,23.958,0,1,0,7.159,43.686c18.121-11.239,13.49-38.845-7.159-43.686" transform="translate(-1048.963 -44.811)" fill="#86b1f2"/><path d="M1399.906,112.7a20.969,20.969,0,1,1,25.2-15.629,20.993,20.993,0,0,1-25.2,15.629" transform="translate(-1058.714 -54.561)" fill="#fff"/><path d="M1441.934,200.109h-.016l-1.007.5-.221-.93,1.4-.68,1.032-.018.094,5.324-1.2.021Z" transform="translate(-1102.302 -152.246)" fill="#86b1f2"/><path d="M1467.469,200.025h.017c.288-.546.478-.78,1.068-1.707l1.5-.026-1.4,1.647,1.68,2.354-1.532.027-1-1.629-.312.4.022,1.253-1.245.022-.1-5.815,1.245-.022Z" transform="translate(-1121.792 -150.368)" fill="#86b1f2"/><path d="M1485.406,203.425l1.048-.019.067.54h.024a1.337,1.337,0,0,1,2.311.008h.016a1.5,1.5,0,0,1,1.266-.7c.77-.014,1.361.517,1.382,1.712l.042,2.359-1.212.021-.039-2.179c-.01-.581-.2-.914-.606-.907a.666.666,0,0,0-.609.765l.041,2.342-1.212.021-.04-2.244c-.022-1.252-1.222-.979-1.205-.069l.041,2.334-1.212.021c-.056-2.55-.025-2.786-.1-4" transform="translate(-1136.515 -155.512)" fill="#86b1f2"/><path d="M1448.681,146.37h0a8.3,8.3,0,0,1-8.3-8.3v-3.909h16.6v3.909a8.3,8.3,0,0,1-8.3,8.3" transform="translate(-1102.065 -102.65)" fill="#86b1f2"/><path d="M1493.694,147h-3.009a3.182,3.182,0,0,1,0-6.364h3.009a3.182,3.182,0,0,1,0,6.364m-3.009-5.257a2.075,2.075,0,0,0,0,4.151h3.009a2.075,2.075,0,0,0,0-4.151Z" transform="translate(-1138.12 -107.607)" fill="#86b1f2"/><path d="M1460.164,89.546c.428,1.72-1.348,2.271-1.206,3.5.111,1.791,1.855,1.482,1.978,3.475a1.831,1.831,0,0,1-.6,1.471,2.485,2.485,0,0,0,.175-.575,2.02,2.02,0,0,0-.431-1.584c-.377-.439-.942-.677-1.314-1.121a2.309,2.309,0,0,1,.112-3.258c.58-.591.973-.771,1.228-1.6.02-.1.037-.2.059-.3" transform="translate(-1115.66 -68.514)" fill="#86b1f2"/><path d="M1478.228,89.546c.428,1.72-1.348,2.271-1.206,3.5.111,1.791,1.855,1.482,1.978,3.475a1.831,1.831,0,0,1-.6,1.471,2.5,2.5,0,0,0,.175-.575,2.02,2.02,0,0,0-.431-1.584c-.377-.439-.942-.677-1.314-1.121a2.308,2.308,0,0,1,.112-3.258c.58-.591.973-.771,1.228-1.6.02-.1.036-.2.06-.3" transform="translate(-1129.481 -68.514)" fill="#86b1f2"/><path d="M1067.971,82.51a20.969,20.969,0,1,1,5.266-29.183,20.993,20.993,0,0,1-5.266,29.183m-25.622-36.9A23.958,23.958,0,1,0,1079.59,69.54c3.786-20.986-19.819-36.029-37.241-23.934" transform="translate(-789.641 -31.593)" fill="#86b1f2"/><path d="M1077.753,92.389a20.969,20.969,0,1,1,5.266-29.183,20.992,20.992,0,0,1-5.266,29.183" transform="translate(-799.423 -41.472)" fill="#fff"/><path d="M1071.545,98.318s-5.572,13.55-7.918,16.776h34.548s-7.625-13.021-8.212-16.776Z" transform="translate(-813.803 -75.226)" fill="#86b1f2"/><path d="M1150.169,98.741c-.455,1.477-.986,2.924-1.549,4.359-.275.72-.578,1.428-.87,2.141s-.613,1.413-.926,2.118c-.636,1.4-1.308,2.793-2.039,4.153-.365.68-.744,1.354-1.152,2.012-.1.164-.2.33-.31.491s-.215.322-.327.481c-.211.324-.465.622-.705.922.09-.172.183-.341.274-.51.045-.085.1-.166.137-.253l.126-.26c.083-.173.171-.344.256-.515s.162-.348.244-.522c.165-.346.331-.691.485-1.044s.326-.694.478-1.047l1.891-4.2.959-2.1c.327-.7.642-1.4.976-2.09.656-1.391,1.328-2.776,2.051-4.142" transform="translate(-873.991 -75.549)" fill="#fff"/><path d="M1058.722,162.318h.777a.349.349,0,0,0-.052-.167l-1.2-1.92a.352.352,0,1,0-.6.373Z" transform="translate(-809.191 -122.47)" fill="#86b1f2"/><path d="M1208.253,162.318h-.777a.348.348,0,0,1,.052-.167l1.2-1.92a.352.352,0,1,1,.6.373Z" transform="translate(-923.865 -122.47)" fill="#86b1f2"/><path d="M1313.154,12.758,1305.714,9.5l-1.69,5.137-2.462-.81,2.581-7.845,7.4,3.24,1.887-6.077,6.807,2.837L1323.03,0l2.347,1.1-3.849,8.227-6.471-2.7Z" transform="translate(-995.852 -0.002)" fill="#fae0b2"/></g></g></g><rect width="380" height="191" rx="6" transform="translate(1040 3770)" fill="#ffd357"/><text transform="translate(1058 3785)" fill="#12263f" font-size="16" font-family="Roboto-Regular, Roboto"><tspan x="0" y="17">Por ejemplo, en la sesin inicial Zarpando a la </tspan><tspan x="0" y="41">aventura se proponen metforas que refieren a </tspan><tspan x="0" y="65">un viaje en barco por el mar, estas se podran </tspan><tspan x="0" y="89">ajustar a viajes por el ro o caminatas, en los </tspan><tspan x="0" y="113">casos en los cuales la referencia al mar no </tspan><tspan x="0" y="137">resulte tan cercana para las familias con las que </tspan><tspan x="0" y="161">se trabaja.</tspan></text></g></svg>