<svg xmlns="http://www.w3.org/2000/svg" xmlns:xlink="http://www.w3.org/1999/xlink" width="274.781" height="306.947" viewBox="0 0 274.781 306.947"><defs><clipPath id="a"><rect width="274.781" height="306.947" fill="none"/></clipPath></defs><g transform="translate(-285 -11072.738)"><g transform="translate(285 11072.738)"><g clip-path="url(#a)"><path d="M93.163,90.964s-16.794,6.669-18.77,18.277-.494,14.818-.494,14.818L107.487,153.2l54.088-13.337s-12.1-60.756-17.041-61.5-13.831,0-13.831,0-.494,27.662-37.541,12.6" transform="translate(-13.583 -14.448)" fill="#e7b332"/><line x2="6.916" y2="38.528" transform="translate(77.604 91.582)" fill="none" stroke="#6a1d1b" stroke-linecap="round" stroke-linejoin="round" stroke-width="0.75"/><path d="M117.678,17.647C106.895-4.779,73.39-4.827,57.555,11.836a30.154,30.154,0,0,0-7.641,27.845,19.5,19.5,0,0,0-2.131-.773c-4.236-1.28-8.1-.068-11.712,2.317A24.065,24.065,0,0,0,27.336,51.7c-1.781,4.329-1.235,8.46.21,12.8,1.123,3.368.264,5.491-2.517,7.639a20.28,20.28,0,0,0-3.964,3.5A16.232,16.232,0,0,0,17.858,85.8c.147,8.369,6.276,14.832,13.069,18.894.922.552,1.706-.737,1.221-1.491-4.6-7.175-2.821-16.775,6.652-17.947,6.034-.746,11.433-.318,16.846-3.625A22.18,22.18,0,0,0,65.653,68.155a23.5,23.5,0,0,0,.653-6.632,33.3,33.3,0,0,0,7.629,3.056c17.936,4.729,38.673-2.457,45.143-20.7a35.261,35.261,0,0,0-1.4-26.233" transform="translate(-3.306 0)" fill="#2c2a45"/><path d="M118.7,20.2a29.378,29.378,0,0,0-4.2-6.42,29.5,29.5,0,0,1-.733,9.635c-1.934,7.384-6.864,14.516-12.574,19.5C95.248,48.1,87.968,51.432,80.418,53.528A104.164,104.164,0,0,1,54.994,57.39c.649,7.382,1.18,14.924-6.2,19.283-6.622,3.911-15.02,3.35-20.733,9.077-3.983,3.993-5.125,9.131-4.548,14.394a32.45,32.45,0,0,0,8.437,7.1c.922.552,1.706-.737,1.221-1.491-4.6-7.175-2.821-16.775,6.652-17.947,6.034-.746,11.433-.318,16.846-3.625A22.18,22.18,0,0,0,66.674,70.705a23.471,23.471,0,0,0,.653-6.632,33.3,33.3,0,0,0,7.629,3.056c17.936,4.729,38.673-2.457,45.143-20.7A35.261,35.261,0,0,0,118.7,20.2" transform="translate(-4.327 -2.551)" fill="#1f1f30"/><path d="M102.224,70.784,103.7,82.361s10.465,11.684,19.232,11.092,11.034-10.569,11.034-10.569l-7.22-21.5Z" transform="translate(-18.925 -11.364)" fill="#c8695a"/><path d="M114.653,80.192a90.869,90.869,0,0,0,12.689-5.015c1.1-.5,2.3-1.026,3.5-1.606L126.746,61.38l-24.522,9.4,1.4,11a44.464,44.464,0,0,0,11.027-1.59" transform="translate(-18.925 -11.364)" fill="#ba5047"/><path d="M72.259,70.592c-.865-1.478-2.715-2.383-3.943-3.52a37.535,37.535,0,0,1-4.89-5.629c-.835-1.158-1.615-2.352-2.363-3.565-1.341-1.741-2.408-3.693-3.684-5.512a18.234,18.234,0,0,1-2.851-4.948,10.057,10.057,0,0,0-4.752-2.92c-1.492-.3-4.606-.6-5.467,1.124-.9,1.815,1.49,3.59,2.721,4.419A10.963,10.963,0,0,0,50.6,51.657c-2.3,1.913-4.3,4.553-2.643,7.165,1.308,2.056,2.951,1.583,4.54.534a8.129,8.129,0,0,0,1.552,6.906c1.946,2.392,4.236,1.572,5.875-.232.251,2.353,1.1,4.659,2.9,5.937a2.63,2.63,0,0,0,3.877-.384c.494,1.556,1.474,2.833,3.382,2.859a2.412,2.412,0,0,0,2.168-3.85" transform="translate(-8.166 -8.195)" fill="#e7b332"/><path d="M111,62.121l-4.437.853A22.509,22.509,0,0,1,80.209,45.118L78.447,35.95A22.509,22.509,0,0,1,96.3,9.6l4.437-.852A22.508,22.508,0,0,1,127.092,26.6l1.762,9.167C131.2,47.977,124.71,59.841,111,62.121" transform="translate(-14.448 -1.544)" fill="#c8695a"/><path d="M84.167,41.023c2.164,5.673.316,11.645-4.128,13.341s-9.8-1.529-11.965-7.2S67.758,35.515,72.2,33.82s9.8,1.529,11.965,7.2" transform="translate(-12.435 -6.178)" fill="#c8695a"/><path d="M123.891,15.9a.855.855,0,0,0,.032-.361,7.5,7.5,0,0,0-2.537-4.786,7.15,7.15,0,0,0-1.86-1.066c-.5-.2-1.587-.233-1.972-.538-3.751-2.976-8.111-5.062-12.97-4.913a5.713,5.713,0,0,0-3.176,1.078c0-.052,0-.1,0-.154a.149.149,0,0,0-.26-.117c-.059.059-.112.12-.168.179-.037-.079-.065-.161-.106-.24-.119-.237-.535-.26-.566.059-.011.12-.024.24-.037.359-2.6-1.68-7.687-1.4-10.153-1.065A17.107,17.107,0,0,0,79.443,9.989a15.159,15.159,0,0,0-3.549,11.668,40.332,40.332,0,0,0,3.015,11.815,18.176,18.176,0,0,0,1.239,2.606c.1-5.5,3.836-8.978,8.563-11.06,2.948-1.3,6.192-2.427,8.626-4.615a14.748,14.748,0,0,0,4.484-8.4,9.812,9.812,0,0,0,4.419,2.137c3.022.548,5.5-.451,8.425-.835a10.456,10.456,0,0,1,5.357,1.1c.877.376,1.729.805,2.581,1.235.563.284,1.14.649,1.287.262" transform="translate(-14.037 -0.756)" fill="#2c2a45"/><path d="M112.826,43.582a3.715,3.715,0,0,0,2.984-5.152" transform="translate(-20.888 -7.115)" fill="none" stroke="#6a1d1b" stroke-linecap="round" stroke-linejoin="round" stroke-width="0.75"/><path d="M119.849,28.039a3.253,3.253,0,0,0,4.1,1.283A2.852,2.852,0,0,0,125,25.3" transform="translate(-22.188 -4.684)" fill="none" stroke="#6a1d1b" stroke-linecap="round" stroke-linejoin="round" stroke-width="0.75"/><path d="M94.468,39.034a3.449,3.449,0,1,0,6.279-2.854" transform="translate(-17.489 -6.698)" fill="none" stroke="#6a1d1b" stroke-linecap="round" stroke-linejoin="round" stroke-width="0.75"/><path d="M70.054,39.417a2.616,2.616,0,0,1,2.5-.3,6.852,6.852,0,0,1,2.181,1.443,14.515,14.515,0,0,1,4.559,6.187" transform="translate(-12.969 -7.208)" fill="none" stroke="#6a1d1b" stroke-linecap="round" stroke-linejoin="round" stroke-width="0.75"/><path d="M77.361,43.426a5.73,5.73,0,0,0-1.006,7.5" transform="translate(-13.957 -8.04)" fill="none" stroke="#6a1d1b" stroke-linecap="round" stroke-linejoin="round" stroke-width="0.75"/><path d="M125.1,19.616c-3.851-.8-9.367,1.111-9.111,5.839a.166.166,0,0,0,.279.116c2.273-2.4,4.685-4.584,8.251-3.849,1.372.284,1.959-1.821.581-2.106" transform="translate(-21.471 -3.599)" fill="#2c2a45"/><path d="M100.219,32.214c-1.5-.993-3.525-.886-5.244-.628a7.232,7.232,0,0,0-4.37,3,1.2,1.2,0,0,0,.187,1.448,1.187,1.187,0,0,0,.527.307,1.223,1.223,0,0,0,1.349-.549,9.7,9.7,0,0,1,3.218-2.559c1.346-.737,2.729-.583,4.212-.571a.242.242,0,0,0,.121-.447" transform="translate(-16.742 -5.815)" fill="#2c2a45"/><path d="M123.829,60.109a2.822,2.822,0,0,1-2.6,1.723" transform="translate(-22.445 -11.128)" fill="none" stroke="#6a1d1b" stroke-linecap="round" stroke-linejoin="round" stroke-width="0.75"/><path d="M100.647,52.728s13.131,3.977,19.11,3.1c0,0-1.6-5.105,2.48-11.814,0,0-7.292,8.751-21.59,8.713" transform="translate(-18.633 -8.149)" fill="#6a1d1b"/><path d="M112.766,51.87a31.447,31.447,0,0,1-12.119,2.312s11.724,3.549,18.061,3.2a13.587,13.587,0,0,0-5.941-5.513" transform="translate(-18.633 -9.603)" fill="#971f1e"/><path d="M119.922,49.448a19.515,19.515,0,0,1,2.315-5.432s-7.292,8.75-21.59,8.712c0,0,3.208.971,7.174,1.847,4.4-.909,8.222-2.9,12.1-5.127" transform="translate(-18.633 -8.149)" fill="#fff"/><path d="M100.647,52.324a28.992,28.992,0,0,0,23.161-10.49" transform="translate(-18.633 -7.745)" fill="none" stroke="#6a1d1b" stroke-linecap="round" stroke-linejoin="round" stroke-width="0.75"/><path d="M101.066,52.461a9.018,9.018,0,0,0-1.549,4.491" transform="translate(-18.424 -9.712)" fill="none" stroke="#6a1d1b" stroke-linecap="round" stroke-linejoin="round" stroke-width="0.75"/><path d="M122.413,44.015s-3.657,5.7-2.48,11.814c0,0-5.82,1.174-18.333-3.024" transform="translate(-18.81 -8.149)" fill="none" stroke="#6a1d1b" stroke-linecap="round" stroke-linejoin="round" stroke-width="0.75"/><path d="M97.442,88.2c-1.412-1.3-7.064-7.716-9.135-4.726-.877,1.268-.317,2.427.808,3.431-4.18-.267-8.286.523-8.3,4.408-.006,2.1,1.814,3.127,3.73,3.057,1.758-.064,3.593-1.061,5.2-1.673,2.178-.832,4.386-1.565,6.609-2.264A1.3,1.3,0,0,0,97,90a1.083,1.083,0,0,0,.447-1.8" transform="translate(-14.963 -15.308)" fill="#4a8087"/><path d="M138.853,80.309c-1.974-4.32-9.321-3.97-9.321-3.97s8.092,15.78-8.036,16.525c-16.1.745-19.348-10.085-19.36-10.12-.378-1.157-5.321,1.452-5.786,2.1-3.39,4.741,1.187,11.927,4.824,15.055,3.412,2.934,7.654,4.338,11.464,6.618,5.673,3.4,10.55,7.894,15.348,12.4l4.187,3.007s2.617-5.917,2.164-9.324.016-6.335,2.959-12.2,3.533-15.775,1.558-20.095" transform="translate(-17.618 -14.132)" fill="#63aabc"/><path d="M134.279,110.829a18.745,18.745,0,0,0-1.9-.593c-4.087-1.019-8.083-.668-11.772-3.021a1.6,1.6,0,0,1,.377-2.884,7.793,7.793,0,0,0,2.545-1.39c-2.045-1.912-5.552-1.845-8.218-2.092a22.024,22.024,0,0,1-7.858-1.9,19.968,19.968,0,0,1-10.77-12.535,1.651,1.651,0,0,0-.332.3c-3.389,4.741,1.187,11.927,4.825,15.055,3.411,2.934,7.654,4.338,11.464,6.618,5.673,3.4,10.55,7.894,15.348,12.4l4.187,3.007s2.617-5.917,2.164-9.324a14.316,14.316,0,0,1-.057-3.642" transform="translate(-17.618 -15.999)" fill="#5797a1"/><path d="M131.1,92.706a38.158,38.158,0,0,0,5.187-1.317c6.833-4.034,4.775-10.538,3.227-14.8a16.883,16.883,0,0,0-3.33-.251S138.671,89.4,131.1,92.706" transform="translate(-24.272 -14.132)" fill="#4a8087"/><path d="M278.449,114.1c5.555-1.491,11.934-1.4,16.892-.845,1.422.158,2.4-1.281,2.506-2.51.28-3.406,2.7-11.661-2.327-12.518-2.7-.46-6.149-.162-8.7-1-2.057-.676-1.146.187-1.917-1.8a24.492,24.492,0,0,1-.587-3.823c-.37-1.886-1-4-3.275-4.127-5.548-.323-10.637,3.585-16.455,2.875C260.115,89.809,255.3,87,253.7,82.627a52.183,52.183,0,0,1-1.655-7.845,9.721,9.721,0,0,0-.8-5.121c-1.022-2.5-2.348-4.625-5.371-4.6-5.676.048-9.946,5.948-11.546,10.758s-3.269,11.706,3.447,12.674c1.646.237,3.364.095,4.992.442a6.292,6.292,0,0,1,1.5.539,16.184,16.184,0,0,1,3.432,5.693,15.6,15.6,0,0,1,.614,8.376,17.98,17.98,0,0,1-3.154,7.061,8.671,8.671,0,0,1-1.521,1.453,6.838,6.838,0,0,1-2.1,1.1c-.416.052-.83.111-1.247.181a.318.318,0,0,0-.183.509c-.249,1.288-.354,2.586-.583,3.876a57.692,57.692,0,0,1-4.76,10.175,1.366,1.366,0,0,0,.811,1.992c5.914.984,11.1,3.582,16.123,6.789,5.379,3.435,5.891,9.85,8.038,15.4,1.628,4.207,3.849,9.667,7.1,13.464,1.49,2.108,3.352,4.053,5.745,4.474a11.262,11.262,0,0,0,3.164.044,11.906,11.906,0,0,0,3.906-.856.921.921,0,0,0,.156-.092,15.694,15.694,0,0,0,4.953-2.7,4.889,4.889,0,0,0,.68.1c2.278.156,4.795-1.728,6.6-2.894a15.214,15.214,0,0,0,5.516-5.866,1,1,0,0,0-.585-1.438c-9.668-3.694-8.255-17.927-11.666-25.692-3.083-7.019-8.474-9.249-14.655-12.654a19.7,19.7,0,0,1,7.793-3.863" transform="translate(-43.118 -12.045)" fill="#2c2a45"/><path d="M291.7,163.568a33.051,33.051,0,0,1-8.046-8.236c-2.8-4.219-3.266-8.784-4.355-13.611-1.265-5.607-4.523-8.888-8.946-12.23-3.18-2.4-6.437-4.8-8.478-8.306-2.44-4.2-2.023-7.744-1.155-12.271.831-4.336-.618-7.517-2.885-11.119-3.306-5.253-6.125-10.243-4.354-15.856a66.987,66.987,0,0,1-1.429-7.156,9.716,9.716,0,0,0-.8-5.122c-1.023-2.5-2.348-4.624-5.372-4.6-5.676.049-9.946,5.948-11.546,10.758s-3.268,11.706,3.448,12.674c1.646.237,3.363.095,4.992.442a6.3,6.3,0,0,1,1.5.539,16.18,16.18,0,0,1,3.432,5.693,15.61,15.61,0,0,1,.614,8.375,18,18,0,0,1-3.154,7.062,8.736,8.736,0,0,1-1.521,1.453,6.826,6.826,0,0,1-2.1,1.1c-.416.053-.83.112-1.246.181a.318.318,0,0,0-.184.509c-.249,1.288-.354,2.587-.583,3.877a57.57,57.57,0,0,1-4.76,10.174,1.367,1.367,0,0,0,.811,1.992c5.914.984,11.1,3.582,16.124,6.79,5.378,3.435,5.89,9.849,8.037,15.4,1.628,4.207,3.849,9.667,7.1,13.464,1.491,2.109,3.352,4.053,5.745,4.474a11.3,11.3,0,0,0,3.165.044,11.917,11.917,0,0,0,3.906-.856.964.964,0,0,0,.156-.091,15.693,15.693,0,0,0,4.953-2.7,5.027,5.027,0,0,0,.68.1c2.218.152,4.661-1.63,6.456-2.8-.068-.05-.138-.1-.205-.145" transform="translate(-43.118 -12.045)" fill="#1d1d30"/><path d="M254.51,98.6c5.434,5.434,10.011,7.556,16.177,7.9,8.768.494,18.647-3.457,18.647-3.457s4.693,1.481,6.792,1.235,4.693-.124,5.557,1.729,1.605,9.632-.988,12.719l-.741.741-6.792-.37a45.843,45.843,0,0,0-12.349,1.605,15.744,15.744,0,0,0-8.273,5.31s-5.557,3.581-10.126,3.088" transform="translate(-47.119 -18.254)" fill="none" stroke="#1b1b2d" stroke-linecap="round" stroke-linejoin="round" stroke-width="0.75"/><path d="M159.453,85.7s1.236,5.434.247,9.138-5.927,21.981-3.951,28.4,11.609,20.745,11.609,20.745l42.727-8.149S193.537,63.962,159.453,85.7" transform="translate(-28.749 -15.107)" fill="#1d1d30"/><path d="M218.067,159.807l-.494-20.746-40.751,6.669-.988,15.312-6.449,2.016c-3.422,4.95-7.146,9.7-11,14.331,6.356,5.825,18.733,11.942,42.148,9.586,41.74-4.2,45.692-18.77,45.692-18.77Z" transform="translate(-29.322 -25.745)" fill="#8a361e"/><path d="M222.111,159.807l-.494-20.746-40.751,6.669-.637,9.875a24.579,24.579,0,0,0,7.043,4.589c5.6,2.271,11.589,1.612,17.471,1.681,12.639.15,21.161,10.292,29.319,18.731,14.367-5.639,16.206-12.4,16.206-12.4Z" transform="translate(-33.367 -25.745)" fill="#6b2117"/><path d="M199.074,140.391h0a29.884,29.884,0,0,1-29.884-29.884V90.748a29.884,29.884,0,1,1,59.769,0v19.758a29.884,29.884,0,0,1-29.884,29.884" transform="translate(-31.323 -11.268)" fill="#8a361e"/><path d="M248.388,105.632c0,6.888-3.925,12.472-8.768,12.472s-8.768-5.584-8.768-12.472,3.926-12.472,8.768-12.472,8.768,5.584,8.768,12.472" transform="translate(-42.739 -17.247)" fill="#8a361e"/><path d="M174,106.07c0,6.888-3.925,12.472-8.768,12.472s-8.768-5.584-8.768-12.472S160.386,93.6,165.228,93.6,174,99.182,174,106.07" transform="translate(-28.966 -17.328)" fill="#8a361e"/><path d="M185.872,103.117c0,1.909-.885,3.457-1.977,3.457s-1.976-1.548-1.976-3.457.885-3.457,1.976-3.457,1.977,1.547,1.977,3.457" transform="translate(-33.68 -18.451)" fill="#2c2a45"/><path d="M219.414,102.511c0,1.908-.885,3.457-1.976,3.457s-1.976-1.549-1.976-3.457.885-3.458,1.976-3.458,1.976,1.548,1.976,3.458" transform="translate(-39.89 -18.338)" fill="#2c2a45"/><path d="M187.753,90.546c-3.464-2.594-7.6-.919-10.968.913-2.1,1.142-2.191,5.443.564,3.964.283-.152.564-.3.846-.438a1.987,1.987,0,0,0,.532-.207,8.711,8.711,0,0,1,.912-.452l.195-.077q.376-.153.773-.281c.106-.034.212-.064.318-.1.267-.077.539-.15.815-.211a8.351,8.351,0,0,1,4.591.259c2.137.735,2.968-2.218,1.423-3.375" transform="translate(-32.444 -16.516)" fill="#2c2a45"/><path d="M210.792,90.142c3.464-2.594,7.6-.919,10.968.913,2.1,1.142,2.191,5.443-.564,3.964-.283-.152-.564-.3-.845-.438a2.009,2.009,0,0,1-.533-.207,8.708,8.708,0,0,0-.912-.452l-.195-.077q-.376-.153-.773-.281c-.106-.034-.212-.064-.318-.1-.267-.077-.539-.15-.815-.211a8.351,8.351,0,0,0-4.591.259c-2.137.735-2.968-2.218-1.423-3.375" transform="translate(-38.878 -16.441)" fill="#2c2a45"/><path d="M194.806,117.022c-.011.517.447.913.891,1.177,2.391,1.427,7.214,1.3,8.861-.836" transform="translate(-36.065 -21.665)" fill="none" stroke="#2c2a45" stroke-linecap="round" stroke-linejoin="round" stroke-width="0.75"/><path d="M182.728,125.845s6.586,5.1,17.453,4.611A29.686,29.686,0,0,0,217.8,123.7" transform="translate(-33.829 -22.902)" fill="none" stroke="#2c2a45" stroke-linecap="round" stroke-linejoin="round" stroke-width="0.75"/><path d="M224.151,121.684c1.629.665,2.21,2.7,2.533,4.434" transform="translate(-41.498 -22.528)" fill="none" stroke="#2c2a45" stroke-linecap="round" stroke-linejoin="round" stroke-width="0.75"/><path d="M184.034,123.958a4.922,4.922,0,0,0-2.356,4.736" transform="translate(-33.629 -22.949)" fill="none" stroke="#2c2a45" stroke-linecap="round" stroke-linejoin="round" stroke-width="0.75"/><path d="M241.33,106.466a7.23,7.23,0,0,1,6.254-7.394" transform="translate(-44.678 -18.342)" fill="none" stroke="#2c2a45" stroke-linecap="round" stroke-linejoin="round" stroke-width="0.75"/><path d="M242.312,104.391a5.769,5.769,0,0,1,4.034,5.531" transform="translate(-44.861 -19.326)" fill="none" stroke="#2c2a45" stroke-linecap="round" stroke-linejoin="round" stroke-width="0.75"/><path d="M167.094,106.466a7.23,7.23,0,0,0-6.255-7.394" transform="translate(-29.777 -18.342)" fill="none" stroke="#2c2a45" stroke-linecap="round" stroke-linejoin="round" stroke-width="0.75"/><path d="M166.617,104.391a5.77,5.77,0,0,0-4.034,5.531" transform="translate(-30.099 -19.326)" fill="none" stroke="#2c2a45" stroke-linecap="round" stroke-linejoin="round" stroke-width="0.75"/><path d="M198.6,137.106a6.7,6.7,0,0,0,8.152-.257" transform="translate(-36.768 -25.336)" fill="none" stroke="#2c2a45" stroke-linecap="round" stroke-linejoin="round" stroke-width="0.75"/><path d="M269.6,172.54c-5.927-5.927-47.42-5.269-47.42-5.269s-36.388,35.4-50.63-1.235l-16.92,4.923c.935,9.937-3.523,18.6-3.912,28.669-.33,8.54.015,16.9-1.41,25.375a89.668,89.668,0,0,1-14.057,35.36c5.778,22.1,18.269,70.9,18.269,70.9l104.719-12.349,7.41-95.333s9.879-11.855,20.087-8.233c0,0-10.209-36.882-16.136-42.81" transform="translate(-25.04 -30.739)" fill="#345753"/><path d="M279.49,233.3c-1.833-3.356-4.094-6.566-6.242-9.716a61.239,61.239,0,0,0-8.185-10.223c-2.765-2.61-6.285-4.214-9.253-6.563a17.548,17.548,0,0,1-5.711-8.052c-3.738-10.54,2.816-20.692,4.484-30.952-9.628-.376-17.828-.247-17.828-.247s-9.278,9.026-20.3,13.246a52.157,52.157,0,0,0-2.1,11.006,72.221,72.221,0,0,0,1.137,22.546c2.148,9.443,7.958,17.94,15.413,24.011a46.849,46.849,0,0,0,16.958,8.742l27.529,40.042,1.976-28.155-4.254-11.591a31.409,31.409,0,0,0,5.425-1.886Z" transform="translate(-39.613 -31.015)" fill="#294542"/><path d="M210.79,317.052c-6.853-.411-14.307-.8-20.425-4.247-7.036-3.966-8.186-10.967-7.674-18.454.724-10.577,2.932-20.953,3.9-31.494,1.063-11.555-1.435-22.225-4.387-33.315-2.86-10.743-5.372-21.267-5.591-32.444a190.9,190.9,0,0,1,.981-20.74,33.09,33.09,0,0,1-6.045-10.321l-16.92,4.923c.935,9.938-3.523,18.6-3.912,28.669-.33,8.541.015,16.9-1.409,25.377a89.684,89.684,0,0,1-14.058,35.359c5.778,22.1,18.269,70.9,18.269,70.9l104.719-12.348.2-2.529c-15.292,3.921-32.249,1.588-47.648.665" transform="translate(-25.04 -30.739)" fill="#294542"/><path d="M239.154,41.006a14.487,14.487,0,0,1-1.1-5.342,1.352,1.352,0,0,0-1.32-1.32,24.944,24.944,0,0,0-7.171.406c3.188-2.011,7.192-5.051,5.949-8.424-1.091-2.96-6.808-7.241-10-5.394-1.727,1-2.91,3.14-4.531,4.428-1.122.891-2.287,1.723-3.466,2.534,1-1.437,1.944-2.911,2.817-4.43,1.355-2.361,3.608-5.7,3.77-8.485.181-3.132-2.606-3.736-5-4.585-1.655-.586-2.881-1.477-4.635-1.263-4.208.512-5.551,4.083-7.581,7.405-.522.854-1.251,1.857-1.937,2.926.015-1.541-.026-3.03-.105-4.417-.14-2.448.034-6.867-2.53-8.281-1.29-.711-3.123-.347-4.485-.314-2.436.06-4.874.094-7.31.162a1.71,1.71,0,0,0-1.624,2.131c1.294,6.5,2.379,13.122,3.083,19.749a56.443,56.443,0,0,0-5.09-10.056c-1.155-1.88-3.4-6.421-5.759-6.926-2.881-.616-6.851,2.147-9.023,3.686a1.646,1.646,0,0,0-.326,2.529c2.617,3.286,5.147,6.674,7.622,10.1q0,.6.029,1.2a94.721,94.721,0,0,0-7.674-6.388,1.588,1.588,0,0,0-2.431.313c-1.329,1.721-4,4.03-4.424,6.173-.374,1.883,1.594,3.185,2.758,4.376a77.157,77.157,0,0,0,7.945,7.565,7.517,7.517,0,0,0-.862.622,6.615,6.615,0,0,0-.524.5c-.135.095-.27.178-.4.281a11.349,11.349,0,0,0-2.9,3.4,19.955,19.955,0,0,0-3,1.063,14.93,14.93,0,0,0-6.675,5.452,16.287,16.287,0,0,0-1.9,5.677c-4.1,5.116-3.432,14.342,1.648,18.359a9.739,9.739,0,0,0,7.85,1.92,6.541,6.541,0,0,0,2.751-1.218,13.631,13.631,0,0,1-.467-3.344,2.524,2.524,0,0,1-.026-.4c0-.029.018-.05.024-.076s0-.032,0-.048a.181.181,0,0,1,.186-.186.342.342,0,0,1,.379.065c.088.086.182.161.274.237a.137.137,0,0,1,.145-.035c.856.319,1.719.605,2.59.852.24.037.479.065.72.086a17.437,17.437,0,0,0,4.6-1.253.215.215,0,0,0-.071-.077c-3.229-1.854-4.958-4.9-5.949-8.342,2.915,3.077,7.379,4.779,12.274,4.992a.878.878,0,0,0,.614-1.481,22.122,22.122,0,0,1-4.858-8.211c1.441,1.519,3.29,2.94,5.176,3.217a16.347,16.347,0,0,0,2.88,1.124,1.18,1.18,0,0,0,1.314-1.71c-1.166-2.753-1.288-7.121.108-9.826-.134.259,1.349,3.236,1.5,3.607.877,2.212,1.434,5.363,3.231,7.041a.9.9,0,0,0,1.25,0,22.82,22.82,0,0,0,4.254-7.265,36.6,36.6,0,0,0,2.106,6.757.549.549,0,0,0,.79.321c2.978-1.5,5.426-4.284,7.525-6.835a14.916,14.916,0,0,1-3.029,6.35c-.441.5-.024,1.408.687,1.18,2.618-.842,5-2.132,7.531-3.114-.247.1-.8,1.38-1.011,1.652a21.312,21.312,0,0,1-2,2.178c-.488.481.033,1.138.613,1.052.873-.13,1.784-.231,2.715-.323.3-.029,1.14,2.414,1.243,2.751a7.78,7.78,0,0,1,.3,3.484c-.381,2.374-1.763,4.544-2.524,6.807a24.9,24.9,0,0,0-1.517,11.248c.618,4.638,4.716,12.277,10.295,12.459a5.964,5.964,0,0,0,1.358-.156,4.684,4.684,0,0,0,1.006-.372,5.418,5.418,0,0,0,1.965-2.085c.068-.152.121-.315.177-.475a9.026,9.026,0,0,0-.016-3.025c-.554-3.724-4.087-5.749-4.713-9.619-.413-2.556.344-5.145,1.374-7.731q.226-.682.5-1.344a28.4,28.4,0,0,1,2.413-6c.81-2.753.963-5.469-.67-8.1.245.4,2.617-2.824,4.181-5.206.017.045.029.092.045.138a34.383,34.383,0,0,0,1.434-3.154c.318-3.688-3.365-10.339-7.667-7.714a4.72,4.72,0,0,0-.121-1.864c3.52-1.6,7.63-2.014,11.411-2.542a1.457,1.457,0,0,0,1.017-1.79" transform="translate(-29.004 -1.171)" fill="#2c2a45"/><path d="M234.694,55.27s-1.192-1.945-4.61-.6-8.48-5.325-16.384-6.437-10.5.618-10.5.618-14.524-4.716-24.365-.32c0,0-3.484,1.987-4.687,4.8" transform="translate(-32.242 -8.637)" fill="none" stroke="#1b1b2d" stroke-linecap="round" stroke-linejoin="round" stroke-width="0.75"/><path d="M230.213,49.038c1.811-4.611,8.891-7.245,8.891-7.245s6.422-.823,8.726-1.152a5.7,5.7,0,0,1,3.623.494,30.587,30.587,0,0,0,.658,4.281c.329.823,1.345,2.537.494,3.128a9.21,9.21,0,0,1-2.305.988s-7.4.174-9.958,2.145l-.744,1.972" transform="translate(-42.621 -7.51)" fill="none" stroke="#1b1b2d" stroke-linecap="round" stroke-linejoin="round" stroke-width="0.75"/><path d="M237.521,24.25a31.113,31.113,0,0,0-2.989,3.162c-.988,1.318-5.008,3.8-5.008,3.8s-6.353,7.23-8,12.664" transform="translate(-41.012 -4.49)" fill="none" stroke="#1b1b2d" stroke-linecap="round" stroke-linejoin="round" stroke-width="0.75"/><path d="M222.527,10.348a10.361,10.361,0,0,0-2.964,2.8c-.658,1.318-4.611,7.574-4.611,7.574a91.1,91.1,0,0,0-2.47,10.7c-.329,3.293-.658,10.044-.658,10.044" transform="translate(-39.216 -1.916)" fill="none" stroke="#1b1b2d" stroke-linecap="round" stroke-linejoin="round" stroke-width="0.75"/><path d="M196.215,9.292l2.018,12.057,1.064,7.692s1.569,9.432.911,11.078" transform="translate(-36.326 -1.72)" fill="none" stroke="#1b1b2d" stroke-linecap="round" stroke-linejoin="round" stroke-width="0.75"/><path d="M183.739,31.767s1.976,3.457,2.8,4.775,3.128,7.244,3.128,7.244" transform="translate(-34.017 -5.881)" fill="none" stroke="#1b1b2d" stroke-linecap="round" stroke-linejoin="round" stroke-width="0.75"/><path d="M234.052,170.6s24.586,1.262,29.19-18.612L249.076,153.6s-9.385,6.669-9.385,7.163-4.364,3.128-5.64,9.838" transform="translate(-43.331 -28.138)" fill="#a15786"/><path d="M264.082,148.819c-3.457-8.15-22.475-24.2-22.475-24.2s-.568-.359-1.525-.884a29.774,29.774,0,0,1-9.165,19.98l.316,13.259-.086.18,5.025,3.525-6.669,33.589s14.078,12.843,21.734,6.915,16.3-44.209,12.843-52.359" transform="translate(-42.49 -22.907)" fill="#c8695a"/><path d="M231.47,157.149l5.025,3.525-3.581,18.034c.1-.047.2-.09.295-.139,5.759-2.817,8.849-7.951,11.834-13.368,2.747-4.984,5.642-9.544,10.306-12.954a23.444,23.444,0,0,1,8.786-4c-4.052-8.3-22.207-23.633-22.207-23.633s-.568-.36-1.525-.885a29.773,29.773,0,0,1-9.165,19.98l.316,13.259Z" transform="translate(-42.811 -22.907)" fill="#ba5047"/><path d="M230.751,158.328l2.511,6.38c4.186-6.088,13.035-14.758,20.349-16.862a54.8,54.8,0,0,1,8.842-1.75c-5.636-8.543-20.958-21.481-20.958-21.481s-.567-.359-1.524-.885a29.772,29.772,0,0,1-9.165,19.98L228.9,154.993Z" transform="translate(-42.377 -22.907)" fill="#dca0c3"/><path d="M236.326,144.806c2.3-5.588,6.866-11.022,12.476-13.651-4.056-3.793-7.306-6.539-7.306-6.539s-.567-.359-1.525-.885a29.778,29.778,0,0,1-9.164,19.98L228.9,154.993l1.852,3.334,2.511,6.38a46.031,46.031,0,0,1,2.855-3.695,22.613,22.613,0,0,1,.208-16.208" transform="translate(-42.377 -22.907)" fill="#d286b3"/><path d="M230.454,201.5s8.274,6.916,12.719,8.644,12.225-.988,12.225-.988,19.635,16.3,10.373,23.092c-7.316,5.365-17.406,1.868-21.323.163a9.338,9.338,0,0,1-2.723-1.808l-15.1-14.408Z" transform="translate(-41.957 -37.304)" fill="#2c2a45"/><path d="M263.409,229.343c-3.391-1.367-4.553,1.059-6.956,2.74a7.107,7.107,0,0,1-6.108,1.076c-5.2-1.428-10.246-5.84-14.107-9.448a57.533,57.533,0,0,1-8.434-9.727l-1.177,4.521,15.1,14.408a9.342,9.342,0,0,0,2.724,1.808c3.916,1.706,14.007,5.2,21.323-.163a6.281,6.281,0,0,0,1.692-1.8,8.79,8.79,0,0,0-4.055-3.414" transform="translate(-41.957 -39.616)" fill="#dadada"/><path d="M165.351,195.934s21.034,4.693,33.26-15.478c0,0-10.743-3.128-14.325-2.758s-11.361,4.2-14.571,8.891a32.218,32.218,0,0,0-4.364,9.344" transform="translate(-30.612 -32.893)" fill="#a15786"/><path d="M197.357,179.114c-3.457-8.15-22.475-24.2-22.475-24.2s-.614-.389-1.639-.948c-.177.068-.354.131-.531.2q-4.221,2.382-8.352,4.908a2.793,2.793,0,0,1,.065.534,44.425,44.425,0,0,1-.25,5.037c2.652,5.9-.35,14.5-2.928,20.576l8.2,5.753-6.669,33.59s14.078,12.843,21.734,6.915,16.3-44.209,12.843-52.359" transform="translate(-29.853 -28.504)" fill="#c8695a"/><path d="M169.449,190.968,165.9,208.862c.432-.284.863-.583,1.292-.92a21.838,21.838,0,0,0,6.361-7.411c1.178-2.414,1.913-5.012,2.9-7.506,1.917-4.857,4.716-8.821,9.73-10.759a20.188,20.188,0,0,1,11.754-.869,9.331,9.331,0,0,0-.573-2.282c-3.457-8.15-22.475-24.2-22.475-24.2s-.614-.389-1.639-.948c-.176.067-.354.132-.53.2q-4.222,2.384-8.353,4.909a2.662,2.662,0,0,1,.065.533,44.591,44.591,0,0,1-.249,5.037c2.652,5.9-.35,14.5-2.929,20.576Z" transform="translate(-29.853 -28.504)" fill="#ba5047"/><path d="M164.683,224.23s8.274,6.916,12.719,8.644,13.955-.988,13.955-.988,17.906,16.3,8.644,23.092-22.969-.618-22.969-.618l-16.177-15.436Z" transform="translate(-29.78 -41.513)" fill="#2c2a45"/><path d="M201.151,253.028c-3.116-2.612-5.419-.029-7.6,2.057-2.942,2.81-5.808,2.783-9.266.777-4.819-2.8-8.735-6.686-12.927-10.294a39.892,39.892,0,0,1-5.119-4.716c-.08-.1-.15-.2-.228-.3-1.382-1.086-2.75-2.216-4.069-3.394l-1.085,4.164,15.759,15.037a3.853,3.853,0,0,0,.98.682c2.668,1.292,14.258,6.31,22.406.334a6.235,6.235,0,0,0,2.339-3.1,9.36,9.36,0,0,0-1.19-1.243" transform="translate(-29.78 -43.906)" fill="#dadada"/><path d="M178.547,154.928s-1.147-1.4-2.952-3.256l.318-3.66a12.992,12.992,0,0,1-3.293-3.293l-19.593,7.574,2.375,4.991a40.075,40.075,0,0,1,1.9,5.937c1.821,7.709-.045,14.514-1.627,21.542a31.709,31.709,0,0,0,7.392,5.071s7.245-10.867,15.478-14.16,17.783-1.318,17.783-1.318Z" transform="translate(-28.331 -26.793)" fill="#dca0c3"/><path d="M178.223,159.91c5.24,3.218,9.338,7.665,14.025,11.571q1.8,1.5,3.705,2.806c.242.042.376.069.376.069l-17.782-19.429s-1.147-1.4-2.953-3.256l.319-3.66a12.991,12.991,0,0,1-3.293-3.293l-19.594,7.574,1.754,3.686c7.694-2.461,16.028-.623,23.444,3.931" transform="translate(-28.33 -26.793)" fill="#d286b3"/><path d="M125.4,150.541a39.286,39.286,0,0,0-21.614-18.925c-15.1-5.235-32.642-5.7-47.069,1.807a53.413,53.413,0,0,0-22.059,21.71c-5.917,10.866-6.225,23.005-7.96,34.982-1.192,8.225-6.331,13.37-11.7,19.229A60.961,60.961,0,0,0,2.5,229.015C-3.044,243.87.63,260.367,13.59,269.941c12.888,9.521,30.517,11.96,46.1,10.341C75.7,278.62,92.8,273.666,103.88,261.369c10.772-11.954,17.735-27.655,20.39-43.457,1.424-8.475,1.08-16.836,1.41-25.376.438-11.329,6.032-20.874,3.294-32.461a40.474,40.474,0,0,0-3.579-9.535" transform="translate(0 -23.647)" fill="#86471f"/><path d="M124.368,182.536c-4.857-3.585-10.409-3.972-16.1-2.309a1.406,1.406,0,0,1-1.334-.24,17.771,17.771,0,0,1-12.111-2.071c-6.508-3.646-11.32-9.686-17.213-14.19C65.668,159.69,50.174,165.181,48.047,179c-.976,6.34,2.361,12.271,4.531,17.995,2.2,5.787,2.94,11.539,1.195,17.567a17.392,17.392,0,0,1-8.022,10.622c-3.647,2.08-7.824,2.888-11.684,4.451-5.94,2.4-9.647,6.644-10.314,13.179-.625,6.13-.422,12.532-5.147,17.184-3.464,3.412-8.125,5.072-12.643,6.844a33.2,33.2,0,0,0,8.731,9.527c12.888,9.52,30.517,11.96,46.1,10.341,16.012-1.662,33.113-6.617,44.193-18.914,10.772-11.954,17.735-27.656,20.39-43.457,1.424-8.475,1.08-16.836,1.41-25.376a66.366,66.366,0,0,1,1.991-12.345,29.541,29.541,0,0,0-4.407-4.08" transform="translate(-1.104 -30.072)" fill="#723a1b"/><path d="M144.091,182.617c0,6.888-3.925,12.472-8.768,12.472s-8.768-5.584-8.768-12.472,3.926-12.472,8.768-12.472,8.768,5.584,8.768,12.472" transform="translate(-23.43 -31.5)" fill="#d07d70"/><path d="M136.6,247.28c-.574-1.071-1.181-2.129-1.771-3.2l-22.442-11.221-1.976-18.029-32.6,4.445,3.7,15.807L58.47,248.565c2.467,3.827,4.981,7.969,4.781,12.357,6.467,5.551,17.628,10.7,36.046,8,24.143-3.546,34.55-12.515,38.72-17.836-.48-1.263-.94-2.538-1.417-3.806" transform="translate(-10.825 -39.773)" fill="#de9c88"/><path d="M89.831,232.905a28.206,28.206,0,0,0,12.629,1.235,27,27,0,0,0,11.637-4.448,20.418,20.418,0,0,0,2.141-1.771L114.8,214.834,82.2,219.28l2.806,11.971c1.6.618,3.228,1.154,4.822,1.654" transform="translate(-15.219 -39.773)" fill="#d07d70"/><path d="M131.607,239.688l8.644,4.693,1.235,12.843-9.633,2.964Z" transform="translate(-24.365 -44.375)" fill="#fff"/><path d="M77.231,243.931,76.9,265.912l-9.55-4.445,1.729-13.584Z" transform="translate(-12.469 -45.16)" fill="#fff"/><path d="M56.306,253.17s11.361,15.56,32.354,16.547,38.282-21.24,38.282-21.24,9.386,0,15.066,18.03l6.421,22.969-25.192,16.054s8.477,15.316,11.608,21.487c.945,1.864,5.927,20.746,5.927,20.746l-71.13,5.187s-10.126-28.156-13.09-34.33-5.31-16.177-3.422-23.115l-16.089-8.745S44.7,258.6,56.306,253.17" transform="translate(-6.858 -46.002)" fill="#e7b332"/><path d="M132.011,281.918l6.339,30.3,27.662-16.547-1.071-4.528-27.208,17" transform="translate(-24.44 -52.193)" fill="none" stroke="#6a1d1b" stroke-linecap="round" stroke-linejoin="round" stroke-width="0.75"/><path d="M61.624,275.358c-2.738,5.781-4.837,25.122-4.837,25.122" transform="translate(-10.513 -50.979)" fill="none" stroke="#6a1d1b" stroke-linecap="round" stroke-linejoin="round" stroke-width="0.75"/><path d="M57.653,254.245s6.926,19.831,38.2,18.77c24.286-.823,38.487-23.175,38.487-23.175" transform="translate(-10.674 -46.254)" fill="none" stroke="#6a1d1b" stroke-linecap="round" stroke-linejoin="round" stroke-width="0.75"/><path d="M173.742,259.791a3.854,3.854,0,0,1-.98-.682l-7.42-7.08a2.544,2.544,0,0,0-.227,2.6,43.875,43.875,0,0,0,9.49,12.842,3.027,3.027,0,0,0,.8.519v1.522l.043.022q-.726,4.443-1.653,8.85c-1.538,7.312-3.44,14.579-5.131,21.833q-.293,1.257-.586,2.513l-3.869-10.249-24.163,14.654s10.992,35.719,29.432,30.667c16.568-4.539,22.064-20.271,23.938-36.086a174.964,174.964,0,0,0,.989-18.457c.064-5.46.289-10.892.51-16.338h0l.407-6.232c-8.085,5.083-19,.355-21.579-.894" transform="translate(-25.927 -46.66)" fill="#de9c88"/><path d="M163.559,341.218a41.028,41.028,0,0,1-1.22-10.6c.108-5.3,2.1-10.238,3.857-15.165a1.72,1.72,0,0,1,.214-.4,28.981,28.981,0,0,0,.757-5.447l-2.989-7.932-24.286,14.448s9.628,31.113,25.855,31.349a33.279,33.279,0,0,1-2.187-6.248" transform="translate(-25.899 -55.85)" fill="#d07d70"/><path d="M180.574,271.614s-3.449,21.69-6.741,32.228c-1.087,3.479-5.855,12.722-5.855,20.3" transform="translate(-31.099 -50.285)" fill="none" stroke="#6a1d1b" stroke-linecap="round" stroke-linejoin="round" stroke-width="0.75"/><path d="M51.038,307.789s.183-2.256.447-4.592q-6.929-6.262-13.244-13.163c-2.861,10.344-9.315,34.834-10.09,56.284l25.685,8.563,1.07-28.568s-4.28-9.468-3.869-18.523" transform="translate(-5.212 -53.696)" fill="#de9c88"/><path d="M51.739,307.789s.183-2.256.447-4.592q-6.929-6.261-13.244-13.163c-1.711,6.187-4.707,17.434-7.005,30.064a44.572,44.572,0,0,1,10.1,7.78,38,38,0,0,1,4.779,5.062c.766.975,1.491,1.976,2.188,3a81.621,81.621,0,0,1,5.914,8.774l.689-18.4s-4.28-9.468-3.869-18.523" transform="translate(-5.913 -53.696)" fill="#d07d70"/><path d="M98.908,212.1h0A28.911,28.911,0,0,1,70,183.193V164.078a28.911,28.911,0,1,1,57.823,0v19.115A28.911,28.911,0,0,1,98.908,212.1" transform="translate(-12.959 -25.024)" fill="#de9c88"/><path d="M74.38,177.768c0,6.888-3.925,12.472-8.768,12.472s-8.768-5.584-8.768-12.472S60.77,165.3,65.612,165.3s8.768,5.584,8.768,12.472" transform="translate(-10.524 -30.602)" fill="#de9c88"/><path d="M130.236,167.5c-.544-3.133-.808-6.36-1.358-9.431a32.37,32.37,0,0,0-4.892-12.322A29.342,29.342,0,0,0,102.9,132.736c-4.87-.55-8.827.6-13.422,1.868-2.218.61-4.587.531-6.849.993a28.826,28.826,0,0,0-6.182,2.04c-7.673,3.493-13.253,9.822-17.053,16.992-2.4.972-4.253,2.508-4.808,4.922a1.36,1.36,0,0,0,.974,1.657c4.027.747,7.929-.456,11.931-.872,4.547-.474,8.731-.771,13.273-.938,3.681-.134,8.214-.982,10.612-3.968a11.313,11.313,0,0,0,2.222-5.439,37.786,37.786,0,0,0,9.219,10.68,35.08,35.08,0,0,0,12.859,7.038c5.282,1.463,10.927,2.879,15.78,5.421a.474.474,0,0,0,.706-.391,7.893,7.893,0,0,0-1.923-5.238" transform="translate(-10.099 -24.548)" fill="#86471f"/><path d="M92.418,179.6c0,1.91-.885,3.457-1.976,3.457s-1.975-1.547-1.975-3.457.884-3.457,1.975-3.457,1.976,1.547,1.976,3.457" transform="translate(-16.378 -32.61)" fill="#6a1d19"/><path d="M126.061,185.052c0,1.91-.885,3.457-1.976,3.457s-1.975-1.547-1.975-3.457.884-3.457,1.975-3.457,1.976,1.548,1.976,3.457" transform="translate(-22.607 -33.62)" fill="#6a1d19"/><path d="M97.957,168.735a12.385,12.385,0,0,0-15.274,1.025c-1.677,1.488.758,3.85,2.441,2.441a9.5,9.5,0,0,1,11.222-.71c1.808,1.059,3.245-1.576,1.611-2.757" transform="translate(-15.203 -30.838)" fill="#74371b"/><path d="M132.125,175.4a12.383,12.383,0,0,0-14.949-3.3c-2.027.957-.352,3.908,1.659,3.027a9.495,9.495,0,0,1,10.97,2.465c1.439,1.524,3.557-.6,2.32-2.194" transform="translate(-21.523 -31.638)" fill="#74371b"/><path d="M100.984,192.711a7.488,7.488,0,0,0,8.52,1.461" transform="translate(-18.696 -35.678)" fill="none" stroke="#6a1d1b" stroke-linecap="round" stroke-linejoin="round" stroke-width="0.75"/><path d="M87.1,203.721s2.593,6.545,11.732,8.768a22.6,22.6,0,0,0,6.915-.247c3.088-.742,8.027-4.075,8.027-4.075a29.917,29.917,0,0,1-15.683,0c-8.4-2.347-10.991-4.446-10.991-4.446" transform="translate(-16.126 -37.716)" fill="#6a1d1b"/><path d="M110.618,210.545a11.156,11.156,0,0,0-.363-1.111,29.945,29.945,0,0,1-11.473-.826,59.036,59.036,0,0,1-7.314-2.5A10.856,10.856,0,0,1,91,207.8c-.059.157-.114.333-.178.506a18.642,18.642,0,0,0,8.7,4.619,22.572,22.572,0,0,0,6.916-.247,19.078,19.078,0,0,0,4.122-1.736c.02-.134.036-.268.058-.4" transform="translate(-16.814 -38.158)" fill="#f8eced"/><path d="M85.223,202.14a35.853,35.853,0,0,0,29.352,5.5" transform="translate(-15.778 -37.423)" fill="none" stroke="#6a1d1b" stroke-linecap="round" stroke-linejoin="round" stroke-width="0.75"/><path d="M83.934,203.685a7.552,7.552,0,0,1,.854-1.8,2.542,2.542,0,0,1,1.609-1.1" transform="translate(-15.539 -37.173)" fill="none" stroke="#6a1d1b" stroke-linecap="round" stroke-linejoin="round" stroke-width="0.75"/><path d="M120.345,207.155a4.407,4.407,0,0,1,1.194,3.377" transform="translate(-22.28 -38.352)" fill="none" stroke="#6a1d1b" stroke-linecap="round" stroke-linejoin="round" stroke-width="0.75"/><path d="M87.254,203.721a15.318,15.318,0,0,0,11.485,8.644,17.813,17.813,0,0,0,14.7-4.075" transform="translate(-16.154 -37.716)" fill="none" stroke="#6a1d1b" stroke-linecap="round" stroke-linejoin="round" stroke-width="0.75"/><path d="M98.731,216.842a8.009,8.009,0,0,0,5.843.317" transform="translate(-18.279 -40.145)" fill="none" stroke="#6a1d1b" stroke-linecap="round" stroke-linejoin="round" stroke-width="0.75"/><path d="M68.578,179.406a11.293,11.293,0,0,0-1.485-6.769c-.855-1.629-2.463-4.627-4.534-4.851" transform="translate(-11.582 -31.063)" fill="none" stroke="#6a1d1b" stroke-linecap="round" stroke-linejoin="round" stroke-width="0.75"/><path d="M67.739,184.042c-2.385-.557-2.717-7.039.494-7.9" transform="translate(-12.198 -32.61)" fill="none" stroke="#6a1d1b" stroke-linecap="round" stroke-linejoin="round" stroke-width="0.75"/><path d="M44.081,150.647c-.436.72-.094,7.01,3.552,12.338l18.693-15.89s-5.971-5.623-5.41-9.549c0,0-11.227,3.847-16.835,13.1" transform="translate(-8.134 -25.465)" fill="#c8695a"/><path d="M59.168,141.688s.576,4.528,5.022,10.291" transform="translate(-10.954 -26.231)" fill="none" stroke="#6a1d1b" stroke-linecap="round" stroke-linejoin="round" stroke-width="0.75"/><path d="M58.24,157.127s-2.8-3.622-4.528-11.2" transform="translate(-9.944 -27.017)" fill="none" stroke="#6a1d1b" stroke-linecap="round" stroke-linejoin="round" stroke-width="0.75"/><path d="M47.448,151.286a16.2,16.2,0,0,0,5.187,10.209" transform="translate(-8.784 -28.008)" fill="none" stroke="#6a1d1b" stroke-linecap="round" stroke-linejoin="round" stroke-width="0.75"/><path d="M254.976,79.509c-.072.838-4.053,5.72-10.137,7.879l-5.748-23.852s7.371-.837,9.231-4.339c0,0,7.573,9.531,6.654,20.312" transform="translate(-44.264 -10.959)" fill="#c8695a"/><path d="M251.151,65.612s-3.132,3.32-10.12,5.359" transform="translate(-44.623 -12.147)" fill="none" stroke="#6a1d1b" stroke-linecap="round" stroke-linejoin="round" stroke-width="0.75"/><path d="M242.776,78.636s4.4-1.279,10.253-6.381" transform="translate(-44.946 -13.377)" fill="none" stroke="#6a1d1b" stroke-linecap="round" stroke-linejoin="round" stroke-width="0.75"/><path d="M254.949,80.271a16.2,16.2,0,0,1-10.2,5.195" transform="translate(-45.311 -14.861)" fill="none" stroke="#6a1d1b" stroke-linecap="round" stroke-linejoin="round" stroke-width="0.75"/><path d="M193.658,233.547s-12.1-2.223-17.906,4.569l-2.47,4.693,14.7,12.1s7.78-12.225,14.818-10.372c0,0-3.334-7.78-9.138-10.991" transform="translate(-32.081 -43.173)" fill="#de9c88"/><path d="M176.01,245.169s5.8-10.867,17.041-9.015" transform="translate(-32.586 -43.681)" fill="none" stroke="#6a1d1b" stroke-linecap="round" stroke-linejoin="round" stroke-width="0.75"/><path d="M196.076,239.839s-11.855,1.111-15.066,9.633" transform="translate(-33.511 -44.403)" fill="none" stroke="#6a1d1b" stroke-linecap="round" stroke-linejoin="round" stroke-width="0.75"/><path d="M200.6,243.779s-10.991-.124-13.831,9.879" transform="translate(-34.578 -45.132)" fill="none" stroke="#6a1d1b" stroke-linecap="round" stroke-linejoin="round" stroke-width="0.75"/><path d="M304,219.767s22.78,51.067,12.019,61.827c-11.443,11.443-26.673,2.305-33.013-11.937-4.215-9.472-15.065-37.665-15.065-37.665a10.437,10.437,0,0,0,.988-9.509c-1.976-5.68-9.138,1.235-10.126,1.976s-7.409,6.174-7.409,6.174-11.609-13.09-12.843-14.078,2.717-19.264,20.252-16.054,28.4,23.216,28.4,23.216,10.29-5.6,16.794-3.952" transform="translate(-44.126 -37.05)" fill="#8a361e"/><path d="M310.544,257.421c2.692-6.71,5.223-14.007,10.288-19.165-3.049-8.2-5.677-14.095-5.677-14.095-5.934-1.5-15.016,3.023-16.563,3.829,2.137,5.147,4.571,10.17,6.448,15.46,1.548,4.36,4.049,9.586,5.5,13.97" transform="translate(-55.28 -41.444)" fill="#6b2117"/><path d="M263.112,207.128s-9.55-4.281-14.489,0-7.9,12.184-7.9,12.184" transform="translate(-44.566 -37.994)" fill="none" stroke="#2c2a45" stroke-linecap="round" stroke-linejoin="round" stroke-width="0.75"/><path d="M266.645,213.049s-6.586-4.94-11.855-.988-9.221,12.513-9.221,12.513" transform="translate(-45.464 -38.976)" fill="none" stroke="#2c2a45" stroke-linecap="round" stroke-linejoin="round" stroke-width="0.75"/><path d="M269.444,220.143s-5.269-2.964-10.209-.658c-5.526,2.578-9.22,10.538-9.22,10.538" transform="translate(-46.287 -40.472)" fill="none" stroke="#2c2a45" stroke-linecap="round" stroke-linejoin="round" stroke-width="0.75"/><path d="M288,215.238s9.22,9.549,11.525,17.453,13.831,33.59,13.831,33.59" transform="translate(-53.319 -39.848)" fill="none" stroke="#2c2a45" stroke-linecap="round" stroke-linejoin="round" stroke-width="0.75"/><path d="M39.979,279.26,53.1,290.537l-3.326,24.552L34.33,308.2s-2.661-14.9,5.649-28.935" transform="translate(-6.281 -51.701)" fill="#8a361e"/><path d="M37.746,284.916s6.543,8.114,15.1,12.891" transform="translate(-6.988 -52.748)" fill="none" stroke="#6a1d1b" stroke-linecap="round" stroke-linejoin="round" stroke-width="0.75"/><path d="M35.189,293.63s6.318,8.917,15.846,12.461" transform="translate(-6.515 -54.361)" fill="none" stroke="#6a1d1b" stroke-linecap="round" stroke-linejoin="round" stroke-width="0.75"/><path d="M33.867,303.869s8.775,9.714,16.4,10.1" transform="translate(-6.27 -56.257)" fill="none" stroke="#6a1d1b" stroke-linecap="round" stroke-linejoin="round" stroke-width="0.75"/></g></g></g></svg>