<svg xmlns="http://www.w3.org/2000/svg" xmlns:xlink="http://www.w3.org/1999/xlink" width="88" height="88" viewBox="0 0 88 88"><defs><clipPath id="a"><rect width="85" height="65.287" fill="none"/></clipPath></defs><g transform="translate(-180 -12461)"><g transform="translate(-446 4544)"><circle cx="44" cy="44" r="44" transform="translate(626 7917)" fill="#1cf290"/><g transform="translate(626 7934.655)"><g clip-path="url(#a)"><path d="M74,44.618c.152.115.328.061.492.061,2.867,0,5.734.025,8.6-.011A1.816,1.816,0,0,1,85,45.725V59.494c-.249.513-.546.97-1.186,1.035-.121-.146-.288-.092-.437-.092q-12.021,0-24.042,0c-.149,0-.317-.054-.435.1a1.361,1.361,0,0,1-1.185-1.5q0-6.324,0-12.649c0-1.182.52-1.7,1.711-1.7q4.436,0,8.872,0c.153,0,.354.088.429-.151.179-.077.121-.238.121-.369q0-5.959,0-11.918c0-.129.068-.294-.121-.366l-.054-.2a.456.456,0,0,0-.688-.017c-.112.009-.224.026-.336.026q-7.472,0-14.943,0c-.112,0-.224-.017-.336-.027-.037-.079-.072-.073-.1,0l-.149-.007c-.078-.122-.135-.12-.169.028q-3.273,3.276-6.549,6.549a.751.751,0,0,0-.245.593c.011,1.1.02,2.209,0,3.314-.007.333.1.451.415.537a11.507,11.507,0,0,1-.76,22.365,5.732,5.732,0,0,0-1.182.23l-.357.01a5.07,5.07,0,0,0-1.448-.084.64.64,0,0,1-.44.074,7.061,7.061,0,0,0-1.272-.245A11.506,11.506,0,0,1,31.07,52.49a11.265,11.265,0,0,1,8.448-9.844c.246-.076.333-.173.33-.431q-.02-1.72,0-3.441a.706.706,0,0,0-.248-.549q-3.278-3.269-6.546-6.549c-.033-.147-.09-.151-.169-.028l-.149.007c-.033-.075-.068-.082-.1,0-.169.009-.337.027-.506.027q-7.689,0-15.378-.008c-.359,0-.435.094-.434.442q.02,6.053,0,12.106c0,.358.064.476.455.473,2.974-.019,5.947-.015,8.921-.009a1.433,1.433,0,0,1,1.6,1.6q0,1.466,0,2.931,0,4.906,0,9.812a1.355,1.355,0,0,1-1.1,1.487c-.128-.132-.293-.081-.443-.081q-12.058,0-24.115,0c-.149,0-.316-.054-.437.092C.547,60.463.248,60.007,0,59.494V45.725a1.82,1.82,0,0,1,1.917-1.058c2.875.038,5.751.015,8.626.013.154,0,.308-.024.462-.036.175-.1.129-.268.129-.417q0-7.992,0-15.984c0-.129.067-.294-.124-.363A1.352,1.352,0,0,1,12.4,26.4q.144.225.282,0c.112-.009.224-.025.336-.025q9.55,0,19.1,0c.112,0,.224.015.337.024.126.168.252.169.378,0a.636.636,0,0,0,.43-.234q3.179-3.186,6.367-6.364a.71.71,0,0,0,.221-.562c-.009-.976-.019-1.953,0-2.929.008-.335-.083-.419-.42-.419q-8.387.017-16.774.007c-1.245,0-1.746-.5-1.746-1.749,0-4.09.016-8.181-.013-12.271A1.754,1.754,0,0,1,22.015,0h40.97A1.778,1.778,0,0,1,64.1,1.915c-.031,4.106-.013,8.213-.014,12.319a1.457,1.457,0,0,1-1.668,1.66q-8.412,0-16.824-.007c-.343,0-.459.069-.449.434.027.976.015,1.954,0,2.931a.709.709,0,0,0,.233.557q3.176,3.162,6.34,6.336a.677.677,0,0,0,.381.25q.211.291.42,0c.169-.009.338-.025.507-.025H72.448a1.4,1.4,0,0,1,1.542,1.427c-.192.07-.122.236-.122.365q0,8.049,0,16.1c0,.129-.067.3.128.361m-48.113,1.7c-.034-.346-.3-.227-.486-.227q-11.424-.007-22.848,0c-.169,0-.338-.014-.507-.021q-.086-.137-.172,0l-.459.074c-.166.056-.134.2-.134.319q0,6.178,0,12.357c0,.135-.042.3.164.335h24.4c.231-.048.163-.235.163-.377q0-6.047,0-12.093c0-.129.067-.295-.125-.363M22.333,14.455l.015.015c.069.216.251.146.394.146q19.409,0,38.817,0c.148,0,.319.052.422-.119a1.027,1.027,0,0,1,.482,0q.054.117.107,0c.139-.145.07-.324.07-.486,0-4.021,0-8.043.014-12.064,0-.4-.08-.512-.5-.512q-13.4.021-26.806.011-6.309,0-12.617,0c-.146,0-.355-.109-.424.145-.155.09-.121.242-.121.379q0,6.065,0,12.129c0,.134-.047.295.147.351M83.3,46.067c-.029-.059-.058-.058-.086,0-.155.007-.31.02-.465.02H59.607a2.958,2.958,0,0,1-.3,0c-.17-.017-.165.116-.2.217-.171.1-.118.274-.118.422q0,5.987,0,11.975c0,.129-.069.294.122.365.151.165.348.083.521.083q11.962.008,23.925.006c.231-.049.162-.236.162-.378q0-6.161,0-12.322c0-.07.022-.161-.013-.205-.055-.068-.07.042-.111.06,0-.2-.142-.233-.3-.243m-30.73,7.712A10.072,10.072,0,1,0,42.378,63.825,10.069,10.069,0,0,0,52.571,53.779m-9.989-34.9c-.164.155-.226.21-.285.269q-4.822,4.822-9.646,9.64c-.177.177-.2.27-.005.462q4.818,4.8,9.615,9.613c.211.212.311.169.492-.016.752-.77,1.518-1.526,2.279-2.287q3.636-3.635,7.278-7.263c.229-.228.231-.348,0-.554-.328-.291-.626-.615-.936-.926q-4.311-4.311-8.619-8.625a1.307,1.307,0,0,1-.17-.312m-11.049,8.95c-.083-.079-.186-.04-.278-.04q-9.221,0-18.442-.01c-.343,0-.391.125-.389.42.011,1.7.005,3.4.005,5.1,0,3.654,0,7.308-.007,10.962,0,.336.091.447.43.429a11.759,11.759,0,0,1,1.529,0c.424.033.507-.12.505-.519-.015-4.475,0-8.951-.02-13.426,0-.423.121-.5.52-.5q7.84.021,15.68.009h.481a1.62,1.62,0,0,1-.014-2.426m21.9,2.426h.526q7.84,0,15.681-.007c.369,0,.522.064.5.478-.038.749-.011,1.5-.011,2.251q0,5.63-.008,11.26c0,.338.072.477.439.454a13.782,13.782,0,0,1,1.571,0c.354.018.453-.1.452-.452q-.017-8.01,0-16.019c0-.365-.111-.439-.457-.438q-9.136.016-18.273.007c-.131,0-.262.014-.422.022.77.917.775,1.443,0,2.445m-9.72,9.677a1.552,1.552,0,0,1-2.464-.031c0,.787,0,1.474,0,2.162,0,.179.052.252.25.227a9.073,9.073,0,0,1,1.943-.013c.265.023.276-.081.275-.276,0-.661,0-1.322,0-2.068m0-21.853c0-.684-.006-1.3,0-1.925,0-.207-.082-.269-.277-.267-.637.007-1.274,0-1.912,0-.107,0-.264-.029-.266.132-.011.679,0,1.359,0,2.089,1-.793,1.493-.8,2.456-.032" fill="#424241"/><path d="M129.276,327.931c.192.069.124.234.124.363q0,7.992,0,15.984c0,.149.046.319-.129.417-.005-.58-.015-1.16-.015-1.739q0-7.259,0-14.517c0-.169.012-.338.019-.508" transform="translate(-118.268 -300.052)" fill="#343434"/><path d="M382.078,310.183c-.126.169-.252.168-.378,0a.71.71,0,0,1,.378,0" transform="translate(-349.249 -283.789)" fill="#343434"/><path d="M146.1,310.475q-.138.228-.282,0l.282,0" transform="translate(-133.417 -284.08)" fill="#343434"/><path d="M868.863,343.758c-.2-.065-.128-.232-.128-.361q0-8.049,0-16.1c0-.129-.069-.294.122-.365.007.1.02.2.02.3q0,8.116,0,16.231c0,.1-.01.2-.015.3" transform="translate(-794.867 -299.14)" fill="#343434"/><path d="M613.338,310.442q-.209.292-.42,0h.42" transform="translate(-560.81 -284.049)" fill="#343434"/><path d="M302.539,29.86a1.026,1.026,0,0,0-.482,0c-.325-.008-.65-.022-.975-.023l-38.658,0-.015-.015q0-6.2,0-12.395c0-.155-.014-.309-.022-.464.069-.254.278-.145.424-.145q6.309-.009,12.617,0,13.4,0,26.806-.011c.42,0,.5.113.5.512-.016,4.021-.009,8.042-.014,12.064,0,.161.069.341-.07.486h-.107" transform="translate(-240.075 -15.364)" fill="#ddf4fe"/><path d="M719.732,554.951q-11.962,0-23.925-.006c-.173,0-.37.081-.521-.083.007-.112.019-.225.019-.337q0-5.45,0-10.9c0-.508-.015-1.017-.023-1.525.035-.1.03-.234.2-.217a2.957,2.957,0,0,0,.3,0h23.142c.155,0,.31-.013.465-.021h.086c.157.01.3.044.3.243-.007.169-.019.338-.019.507q0,5.915,0,11.83c0,.169-.013.338-.019.507" transform="translate(-636.172 -495.796)" fill="#ddf4fd"/><path d="M401.572,523.9a10.072,10.072,0,1,1-9.97-10.1,10.069,10.069,0,0,1,9.97,10.1" transform="translate(-349.001 -470.125)" fill="#ddf4fd"/><path d="M41.341,556.664h-24.4q0-.043,0-.086c.148-.14.083-.321.083-.483,0-3.95.009-7.9-.007-11.851,0-.419.127-.51.525-.509q11.6.017,23.194,0c.4,0,.526.093.525.51-.016,3.78-.01,7.561-.006,11.341,0,.161-.066.343.085.482v.424c-.058.028-.06.056,0,.086,0,.029,0,.057,0,.086" transform="translate(-15.496 -497.509)" fill="#ddf4fe"/><path d="M392.459,222.1a1.308,1.308,0,0,0,.17.312q4.306,4.316,8.619,8.625c.31.31.608.635.936.926.233.206.232.327,0,.554q-3.651,3.62-7.278,7.263c-.761.761-1.528,1.517-2.279,2.287-.181.185-.281.228-.492.016q-4.8-4.818-9.615-9.613c-.193-.192-.172-.285.005-.462q4.828-4.815,9.646-9.64c.059-.059.121-.114.284-.269" transform="translate(-349.877 -203.218)" fill="#dcf3fd"/><path d="M165.223,326.838a1.62,1.62,0,0,0,.014,2.426h-.481q-7.84,0-15.68-.009c-.4,0-.521.079-.52.5.017,4.475.005,8.951.02,13.426,0,.4-.082.552-.505.519a11.737,11.737,0,0,0-1.529,0c-.339.018-.431-.094-.43-.429.011-3.654.007-7.308.007-10.962,0-1.7.006-3.4-.005-5.1,0-.3.047-.421.389-.42q9.221.016,18.442.01c.091,0,.194-.04.278.04" transform="translate(-133.691 -299.006)" fill="#fc9f02"/><path d="M628.435,329.279c.775-1,.77-1.527,0-2.444.16-.009.291-.022.422-.022q9.136,0,18.273-.007c.346,0,.457.074.457.438q-.017,8.009,0,16.019c0,.354-.1.471-.452.452a13.779,13.779,0,0,0-1.571,0c-.368.023-.44-.116-.439-.454q.016-5.63.008-11.26c0-.751-.027-1.5.011-2.251.021-.415-.132-.479-.5-.478q-7.84.016-15.681.007h-.526" transform="translate(-575.008 -299.021)" fill="#fc9f02"/><path d="M262.878,170.205l38.658,0c.325,0,.65.015.975.023-.1.172-.274.119-.422.119q-19.409,0-38.817,0c-.142,0-.325.07-.394-.146" transform="translate(-240.529 -155.735)" fill="#343434"/><path d="M41.012,554.378c-.151-.138-.085-.32-.085-.482,0-3.78-.01-7.561.006-11.341,0-.417-.124-.511-.524-.51q-11.6.017-23.194,0c-.4,0-.527.091-.525.509.016,3.95.01,7.9.006,11.851,0,.162.065.343-.083.483-.007-.748-.02-1.5-.021-2.244q-.009-5.34-.014-10.68l.459-.075h.172c.169.007.338.021.507.021q11.424,0,22.848,0c.183,0,.452-.119.486.227-.006.155-.018.31-.018.464q0,5.527,0,11.054c0,.239-.013.479-.019.718" transform="translate(-15.17 -495.819)" fill="#e9fefe"/><path d="M487.572,469.4c0,.746,0,1.407,0,2.068,0,.2-.009.3-.274.276a9.064,9.064,0,0,0-1.943.013c-.2.025-.251-.048-.25-.227,0-.688,0-1.376,0-2.162a1.552,1.552,0,0,0,2.464.031" transform="translate(-443.865 -429.464)" fill="#fc9f02"/><path d="M487.665,189.1c-.963-.768-1.454-.761-2.456.032,0-.73-.006-1.409,0-2.089,0-.161.159-.131.266-.132.637,0,1.274,0,1.912,0,.195,0,.28.06.277.267-.009.62,0,1.241,0,1.925" transform="translate(-443.957 -171.017)" fill="#fc9f02"/><path d="M38.944,710.858a.873.873,0,0,1-.5.068q-12.021,0-24.043,0a.781.781,0,0,1-.455-.056c.121-.146.288-.092.437-.092q12.058,0,24.115,0c.15,0,.315-.052.443.081" transform="translate(-12.763 -650.34)" fill="#595959"/><path d="M717.724,710.873a.885.885,0,0,1-.5.056q-11.959,0-23.918,0a.887.887,0,0,1-.5-.052c.119-.15.287-.1.435-.1q12.021,0,24.042,0c.149,0,.316-.054.437.092" transform="translate(-633.91 -650.344)" fill="#595959"/><path d="M982.877,556.691c.007-.169.019-.338.019-.507q0-5.915,0-11.83c0-.169.012-.338.019-.507.041-.018.056-.128.111-.06.035.044.014.135.014.205q0,6.161,0,12.322c0,.142.069.329-.162.378" transform="translate(-899.317 -497.536)" fill="#343434"/><path d="M261.032,18.77c.008.155.022.309.022.464q0,6.2,0,12.4c-.194-.056-.147-.217-.147-.351q0-6.065,0-12.129c0-.137-.034-.289.121-.379" transform="translate(-238.726 -17.174)" fill="#343434"/><path d="M303.959,557.1c.007-.239.019-.479.019-.718q0-5.527,0-11.054c0-.155.012-.309.018-.464.193.068.125.234.125.363q0,6.047,0,12.093c0,.142.068.328-.163.376,0-.029,0-.057,0-.086s0-.057,0-.086q0-.212,0-.424" transform="translate(-278.116 -498.544)" fill="#343434"/><path d="M808.164,387.572c-.007-.311-.02-.622-.021-.932q0-5.649,0-11.3c0-.141.014-.282.021-.422.189.072.12.237.121.366q0,5.959,0,11.918c0,.131.058.292-.122.369" transform="translate(-739.437 -343.045)" fill="#343434"/><path d="M693.887,544.643c.008.508.022,1.017.023,1.525q0,5.45,0,10.9c0,.112-.013.225-.019.337-.19-.071-.122-.237-.122-.365q-.005-5.987,0-11.975c0-.148-.052-.319.118-.422" transform="translate(-634.777 -498.34)" fill="#343434"/><path d="M493.319,766.725a4.83,4.83,0,0,1-1.448-.084,5.07,5.07,0,0,1,1.448.084" transform="translate(-450.054 -701.452)" fill="#595959"/><path d="M800.363,370.744l-.688-.017a.457.457,0,0,1,.688.017" transform="translate(-731.69 -339.074)" fill="#343434"/><path d="M386.972,371.343l-.168-.028c.078-.123.135-.119.168.028" transform="translate(-353.919 -339.667)" fill="#343434"/><path d="M611.2,371.315l-.169.028c.034-.148.091-.15.169-.028" transform="translate(-559.082 -339.667)" fill="#343434"/><path d="M978.9,541.39h-.086c.028-.059.057-.059.086,0" transform="translate(-895.595 -495.323)" fill="#343434"/><path d="M734.728,170.514h.107q-.053.117-.107,0" transform="translate(-672.264 -156.018)" fill="#343434"/><path d="M383.922,371.7l-.105,0c.037-.08.072-.073.105,0" transform="translate(-351.186 -340.041)" fill="#343434"/><path d="M614.871,371.693l-.1,0c.033-.076.068-.082.1,0" transform="translate(-562.501 -340.041)" fill="#343434"/><path d="M303.494,693.787c0,.029,0,.057,0,.086-.059-.03-.057-.058,0-.086" transform="translate(-277.651 -634.804)" fill="#e9fefe"/></g></g></g></g></svg>