<svg xmlns="http://www.w3.org/2000/svg" xmlns:xlink="http://www.w3.org/1999/xlink" width="85" height="85" viewBox="0 0 85 85"><defs><clipPath id="a"><rect width="66.699" height="77.015" fill="none"/></clipPath></defs><g transform="translate(-1325 -12947.961)"><g transform="translate(1145 6848.961)"><rect width="85" height="85" transform="translate(180 6099)" fill="none"/><g transform="translate(189.151 6102.993)"><g clip-path="url(#a)"><path d="M19.537,42.516c.241-1.159.27-1.274,1.459-.976a3.56,3.56,0,0,0,3.719-1.072,11.77,11.77,0,0,1,6.1-2.962.885.885,0,0,0,.79-.739,7.185,7.185,0,0,0,.6-2.046c-.055-.732-1.026-.865-1.553-1.318a9.36,9.36,0,0,1-3.068-4.759c-.119-.444-.285-.591-.749-.586a9.721,9.721,0,0,1-2.549-.116,4.429,4.429,0,0,1-3.439-4.273,16.972,16.972,0,0,1,.109-3.591,4.143,4.143,0,0,1,1.947-2.805.964.964,0,0,0,.507-.952,60.726,60.726,0,0,1,.138-7.117A10.881,10.881,0,0,1,33.838.022C35.519-.02,37.2.011,38.882.009c1.161,0,1.161,0,1.215,1.128a2.069,2.069,0,0,0-.019.478c.16.831-.2,1.008-.987.98-1.706-.06-3.417-.052-5.124,0a8.26,8.26,0,0,0-7.857,6.935c-.318,2.068-.042,4.159-.16,6.234-.042.746.273.849.871.775.215-.026.405.006.467-.295a2.155,2.155,0,0,1,.739-1.022q2.776-2.773,5.55-5.548c1.207-1.206,1.847-1.145,2.765.262a11.564,11.564,0,0,0,6.837,4.951,20.784,20.784,0,0,0,5.572.359,1.36,1.36,0,0,1,1.507.922c.2.659.7.312,1.059.347.447.044.286-.362.287-.585.012-1.708.03-3.417,0-5.125a8.353,8.353,0,0,0-7.589-8.2c-1.341-.133-1.341-.133-1.4-1.465.056-1.162.056-1.162,1.217-1.12A10.932,10.932,0,0,1,54.165,10.5c.045,1.922.025,3.846,0,5.769a1.014,1.014,0,0,0,.528,1.023A4.173,4.173,0,0,1,56.723,20.9a15.094,15.094,0,0,1-.111,3.673,4.419,4.419,0,0,1-4.231,3.492,5.38,5.38,0,0,0-2.052.084c-.573.288-.485,1.214-.77,1.834a9.3,9.3,0,0,1-3.768,4.237c-.417.247-.464.474-.364.95a3.076,3.076,0,0,0,2.711,2.739,11.5,11.5,0,0,1,5.816,3.5,1.036,1.036,0,0,0,1.038.34c4.3-.673,8.6-1.31,12.9-1.95a1.311,1.311,0,0,1,1.672,1.41c.013,3.179,0,6.358.015,9.536,0,.45-.113.626-.571.568a4.489,4.489,0,0,0-.718.019,1.249,1.249,0,0,0-.318-.022c-.8.151-1.013-.163-.99-.971.063-2.242.022-4.486.022-6.729,0-1.1,0-1.083-1.123-.911q-5.18.793-10.364,1.561-5.5.823-11,1.634c-.439.064-.609.209-.608.7q.028,13.46,0,26.92c0,.544.134.659.665.574,2.291-.365,4.59-.682,6.884-1.03,1.2-.183,1.2-.2,1.467,1.037.1,1.313.1,1.327-1.236,1.53a88.331,88.331,0,0,1-8.781,1.251,50.424,50.424,0,0,1-10.7-.3c-5.865-.957-11.751-1.786-17.629-2.668-1.792-.269-3.585-.53-5.377-.807a1.279,1.279,0,0,1-1.187-1.362c-.014-.373,0-.747,0-1.121,0-1.322,0-1.322,1.279-1.386.8-.032,1.555-.055,1.3,1.154-.105.5.417.393.679.436,1.341.22,2.689.4,4.033.6,5.877.881,11.756,1.755,17.63,2.662.635.1.737-.065.736-.66q-.028-13.372,0-26.743c0-.541-.157-.729-.68-.8-4.062-.585-8.121-1.2-12.181-1.8-1.386-.2-1.387-.194-1.277-1.561M34.108,37.5a1,1,0,0,0,.091,1.344,36.562,36.562,0,0,1,2.45,3.448,2.383,2.383,0,0,0,2.639,1.346,1.359,1.359,0,0,0,1.1-.591q1.5-2.169,3.057-4.292a.849.849,0,0,0,.123-1.075c-.108-.353-.241-.7-.32-1.06-.128-.578-.356-.591-.861-.324a7.393,7.393,0,0,1-6.592.275c-1.348-.566-1.349-.564-1.683.93M29.816,22.1c0,1.389-.024,2.778.005,4.167A6.5,6.5,0,0,0,32.83,31.8c1.061.715,2.154,1.383,3.251,2.042a4.984,4.984,0,0,0,5.452,0q1.513-.9,2.994-1.848A6.633,6.633,0,0,0,47.764,26.1c.008-2.484-.033-4.969.023-7.451.017-.741-.211-.869-.885-.848a14.076,14.076,0,0,1-11.827-5.257c-.271-.326-.413-.344-.714-.036Q32.29,14.628,30.17,16.7a1.14,1.14,0,0,0-.362.912c.019,1.5.008,2.991.009,4.487M41.354,60.279c0-4.434-.017-8.869.018-13.3.005-.683-.184-.849-.839-.817-1.173.057-2.351.049-3.524,0-.612-.025-.8.128-.8.776.036,3.446.017,6.892.017,10.338,0,5.449.013,10.9-.016,16.348,0,.649.188.8.8.775,1.2-.047,2.4-.046,3.605,0,.585.023.761-.119.757-.736-.03-4.461-.016-8.922-.016-13.383M27.25,22.319c0-.908-.015-1.816.007-2.724.009-.37-.088-.5-.485-.509-2.254-.074-3.572.056-3.369,3.166a.558.558,0,0,1,0,.08c-.179,2.784.751,3.3,3.263,3.195.526-.022.611-.185.593-.644-.033-.853-.009-1.709-.009-2.563m23.081-.012c0,.881.026,1.763-.011,2.643-.02.465.144.551.582.572,2.511.118,3.452-.393,3.275-3.177a.672.672,0,0,1,0-.08c.2-3.074-1.065-3.261-3.357-3.177-.38.014-.508.111-.5.5.025.907.008,1.816.008,2.723M43.189,43.516l7.947-1.194a11.675,11.675,0,0,0-5.057-2.367.465.465,0,0,0-.532.232c-.745,1.06-1.5,2.114-2.358,3.329m-16.744-1.2L34.385,43.5c-.859-1.211-1.618-2.269-2.362-3.336a.511.511,0,0,0-.624-.188,11.634,11.634,0,0,0-4.953,2.339" transform="translate(-5.438 0)" fill="#020202"/><path d="M22.249,131.611c-.111,1.367-.109,1.357,1.277,1.561,4.061.6,8.119,1.212,12.181,1.8.522.076.681.263.68.8q-.028,13.372,0,26.743c0,.6-.1.759-.736.661-5.873-.908-11.752-1.782-17.629-2.663-1.344-.2-2.692-.379-4.033-.6-.262-.043-.785.067-.679-.436.253-1.209-.5-1.187-1.3-1.154v-2.512c4.862-.29,6.934-3.23,6.163-8.748.047-.015.1-.049.14-.041q6.824,1.135,13.646,2.279c1.225.206,1.848-.281,1.851-1.512q.011-4.205,0-8.41c0-.994-.335-1.4-1.329-1.564q-7.49-1.267-14.984-2.513a1.3,1.3,0,0,0-1.633,1.45c-.012,2.189,0,4.379-.01,6.568,0,.213.117.468-.128.671a6.605,6.605,0,0,0-3.716-1.055v-2.512a1.244,1.244,0,0,1,.317-.022c.8.148,1.011-.159.99-.969-.062-2.4-.013-4.8-.031-7.2,0-.441.071-.6.565-.52,1.444.247,2.9.449,4.346.655,1.3.185,1.3.177,1.538-1.1a15.046,15.046,0,0,0,2.516.343M33.182,154.4c.323.137.428-.092.469-.445a5.006,5.006,0,0,1,.194-1.18c.3-.8-.129-.9-.771-1q-5.012-.793-10.013-1.655c-2.049-.351-2.032-.372-2.243,1.675-.047.452.071.6.526.651.793.085,1.577.255,2.365.386l9.473,1.571m-9,3.637c.329.091.461-.085.5-.456a10.765,10.765,0,0,1,.253-1.494c.107-.43-.046-.557-.451-.617-1.368-.2-2.731-.443-4.1-.662-1.881-.3-1.881-.3-2.115,1.608-.007.053-.006.107-.017.159-.065.3-.018.469.361.528,1.84.287,3.673.612,5.566.934m3.045.048c-.1.581.322.519.6.568q1.883.33,3.772.627c.625.1,1.4.427,1.842.177.469-.269.245-1.178.44-1.775.189-.576-.111-.673-.555-.743-1.312-.207-2.621-.431-3.931-.645-1.973-.323-1.974-.322-2.161,1.693,0,.053-.011.106-.01.1" transform="translate(-8.149 -89.095)" fill="#f1be74"/><path d="M128.754,164.109c-.264-1.232-.262-1.22-1.467-1.037-2.294.348-4.593.665-6.884,1.03-.531.085-.666-.03-.665-.574q.025-13.46,0-26.92c0-.493.169-.638.608-.7q5.5-.8,11-1.634,5.183-.775,10.364-1.561c1.125-.172,1.123-.19,1.123.911,0,2.243.041,4.488-.022,6.729-.023.808.186,1.122.99.971a1.264,1.264,0,0,1,.318.022q0,1.256,0,2.512a6.916,6.916,0,0,0-3.85,1.12c0-2.511.009-4.908,0-7.3a1.32,1.32,0,0,0-1.713-1.438q-7.493,1.253-14.985,2.516a1.273,1.273,0,0,0-1.245,1.39q-.019,4.365,0,8.731a1.307,1.307,0,0,0,1.692,1.381c2-.331,3.995-.678,5.993-1.011,2.646-.441,5.294-.875,8.02-1.325a8.135,8.135,0,0,0-.1,4.323c.74,2.722,2.932,4.3,6.188,4.493v2.512c-.795-.03-1.558-.065-1.3,1.148.107.505-.41.4-.671.442-3.231.5-6.466.983-9.7,1.464-1.293.192-1.294.186-1.181,1.468l-2.508.343m-6.611-5.6c.067.407.17.958.244,1.514.053.4.193.491.623.418,4.418-.75,8.842-1.458,13.262-2.2,1.584-.265,1.579-.291,1.3-1.922a2.176,2.176,0,0,1-.037-.318c-.009-.454-.182-.56-.656-.475-2.468.438-4.945.83-7.419,1.237-2.211.364-4.423.716-6.629,1.107-.261.046-.787-.115-.691.639m-.038-5.369c.106.653.2,1.177.272,1.706.054.418.188.547.663.465,3.468-.6,6.944-1.152,10.415-1.736.6-.1,1.46.034,1.715-.408.24-.417-.146-1.166-.174-1.772-.03-.628-.309-.647-.829-.548-1.44.275-2.891.491-4.338.731-2.367.393-4.736.779-7.1,1.19-.25.043-.733-.064-.624.373" transform="translate(-81.268 -90.015)" fill="#f1be74"/><path d="M80.5,3.54c.064,1.332.064,1.332,1.4,1.465A8.353,8.353,0,0,1,89.5,13.2c.03,1.708.013,3.417,0,5.125,0,.223.159.629-.287.585-.359-.035-.857.312-1.059-.347a1.36,1.36,0,0,0-1.507-.922,20.783,20.783,0,0,1-5.572-.359,11.56,11.56,0,0,1-6.837-4.951c-.918-1.407-1.558-1.467-2.766-.262q-2.775,2.773-5.55,5.548a2.155,2.155,0,0,0-.739,1.022c-.062.3-.253.268-.467.295-.6.074-.913-.03-.871-.775.118-2.075-.158-4.166.16-6.234A8.261,8.261,0,0,1,71.859,5c1.707-.05,3.418-.058,5.124,0,.783.028,1.146-.149.987-.98a2.03,2.03,0,0,1,.019-.477H80.5" transform="translate(-43.329 -2.403)" fill="#ea8a60"/><path d="M149.551,164.29c-3.255-.194-5.448-1.771-6.187-4.493a8.134,8.134,0,0,1,.1-4.323c-2.726.45-5.373.884-8.019,1.325-2,.333-3.994.68-5.993,1.011a1.307,1.307,0,0,1-1.692-1.381q-.022-4.365,0-8.731a1.273,1.273,0,0,1,1.245-1.39q7.492-1.262,14.985-2.516a1.32,1.32,0,0,1,1.713,1.438c.013,2.4,0,4.793,0,7.3a6.912,6.912,0,0,1,3.85-1.12l.956.026a2.866,2.866,0,0,1,2.881,2.9c.023,2.236.01,4.472.006,6.708a2.92,2.92,0,0,1-3.207,3.22c-.212,0-.424.016-.637.025m-19.237-12.476c0,.827.057,1.659-.017,2.479-.065.725.256.745.808.651,3.806-.647,7.613-1.289,11.424-1.9.512-.083.626-.294.618-.776-.029-1.68-.046-3.361.006-5.04.02-.647-.224-.664-.729-.578q-5.788.982-11.582,1.927c-.444.072-.552.265-.537.682.03.852.009,1.707.009,2.56m20.516,6.039c0-.8.008-1.6,0-2.4-.02-1.657.252-1.449-1.51-1.447a3.486,3.486,0,0,0-3.506,2.693,3.933,3.933,0,0,0,1.741,4.566,5.356,5.356,0,0,0,2.641.439c.494.01.654-.181.644-.659-.024-1.065-.007-2.13-.007-3.2" transform="translate(-86.703 -97.572)" fill="#030202"/><path d="M3.857,151.4a6.607,6.607,0,0,1,3.716,1.055c.244-.2.126-.458.128-.672.011-2.189,0-4.378.01-6.568a1.3,1.3,0,0,1,1.633-1.449q7.494,1.243,14.984,2.512c.994.168,1.327.57,1.329,1.564q.009,4.205,0,8.41c0,1.231-.626,1.719-1.851,1.512q-6.821-1.149-13.646-2.279c-.043-.007-.093.027-.14.042.771,5.518-1.3,8.459-6.163,8.748a9.326,9.326,0,0,1-1.819-.162,2.818,2.818,0,0,1-2.012-2.6c-.032-2.449-.039-4.9,0-7.348a2.832,2.832,0,0,1,2.713-2.732c.371-.021.744-.021,1.116-.031m19.237.446c0-.72-.049-1.445.013-2.159.067-.763-.1-1.2-.975-1.186a6.552,6.552,0,0,1-1.18-.192c-3.335-.559-6.672-1.107-10-1.684-.572-.1-.7.054-.691.621q.059,2.519,0,5.04c-.013.531.181.676.658.742,1.186.164,2.366.376,3.548.573,2.679.446,5.36.884,8.034,1.353.515.09.633-.049.609-.548-.042-.851-.012-1.706-.012-2.56M2.578,157.857c0,.772-.009,1.545,0,2.317.025,1.72-.282,1.511,1.529,1.506a3.5,3.5,0,0,0,3.514-2.79,3.922,3.922,0,0,0-1.787-4.48,5.273,5.273,0,0,0-2.484-.43c-.581-.018-.812.149-.786.762.043,1.037.012,2.076.012,3.115" transform="translate(0 -97.559)" fill="#030202"/><path d="M17.027,126.226c-.238,1.277-.239,1.284-1.538,1.1-1.451-.207-2.9-.409-4.346-.656-.494-.084-.568.079-.565.52.018,2.4-.031,4.8.031,7.2.021.81-.191,1.118-.99.969a1.26,1.26,0,0,0-.317.022c-1.28-.064-1.28-.064-1.28-1.382q0-4.277,0-8.555c0-1.287.6-1.763,1.879-1.562,2.155.338,4.31.689,6.474.959.72.09.918.329.682.988a1.487,1.487,0,0,0-.031.395" transform="translate(-5.444 -84.053)" fill="#020202"/><path d="M155.515,219.986c-.113-1.283-.112-1.276,1.181-1.468q4.851-.721,9.7-1.464c.261-.04.778.064.671-.441-.256-1.213.507-1.177,1.3-1.148,1.28.064,1.28.064,1.28,1.386,0,2.283-.066,2.334-2.376,2.669-3.561.516-7.124,1.03-10.673,1.619-.758.126-.99-.079-1.012-.759a2.613,2.613,0,0,0-.072-.393" transform="translate(-105.521 -146.235)" fill="#040403"/><path d="M75.86,48.061c0-1.5.01-2.992-.008-4.487a1.142,1.142,0,0,1,.362-.912q2.115-2.078,4.193-4.193c.3-.308.443-.29.714.036a14.075,14.075,0,0,0,11.827,5.257c.674-.021.9.108.885.848-.057,2.482-.015,4.968-.023,7.451a6.634,6.634,0,0,1-3.238,5.892q-1.482.948-2.995,1.848a4.984,4.984,0,0,1-5.452,0c-1.1-.659-2.19-1.327-3.251-2.042a6.505,6.505,0,0,1-3.008-5.528c-.03-1.388-.005-2.778-.006-4.167m8.97,9.968a3.675,3.675,0,0,0,3.779-2.606c.042-.193.225-.6-.119-.569-.89.081-1.834-.38-2.678.316a1.349,1.349,0,0,1-1.657.132c-.812-.632-1.694-.417-2.567-.489-.594-.049-.665.165-.524.682a3.728,3.728,0,0,0,3.764,2.535M80.988,47.792c0-1.3,0-1.3-1.34-1.3-1.224,0-1.224,0-1.224,1.26,0,1.3,0,1.3,1.34,1.3,1.224,0,1.224,0,1.224-1.26m10.258.025c0-1.329,0-1.329-1.315-1.329-1.249,0-1.249,0-1.249,1.235,0,1.329,0,1.329,1.315,1.329,1.249,0,1.249,0,1.249-1.235" transform="translate(-51.482 -25.96)" fill="#f6d3ce"/><path d="M100.926,157.788c0,4.461-.014,8.922.016,13.383,0,.617-.171.759-.757.736-1.2-.047-2.4-.047-3.605,0-.61.024-.8-.126-.8-.775.029-5.449.016-10.9.016-16.348,0-3.446.019-6.892-.017-10.338-.007-.648.186-.8.8-.776,1.174.048,2.352.054,3.525,0,.656-.032.845.134.84.817-.034,4.434-.018,8.869-.018,13.3" transform="translate(-65.009 -97.508)" fill="#eb8a61"/><path d="M98.233,116.9a.849.849,0,0,1-.123,1.075q-1.559,2.124-3.057,4.292a1.358,1.358,0,0,1-1.1.591,2.383,2.383,0,0,1-2.639-1.346,36.578,36.578,0,0,0-2.45-3.448,1,1,0,0,1-.091-1.344,9.257,9.257,0,0,0,8.558.471,1.8,1.8,0,0,1,.9-.292" transform="translate(-60.107 -79.223)" fill="#f5d3ce"/><path d="M59.721,62.612c0,.855-.023,1.71.01,2.563.018.459-.068.623-.593.644-2.512.106-3.442-.411-3.263-3.2a.665.665,0,0,0,0-.08c-.2-3.109,1.115-3.239,3.369-3.166.4.013.494.139.485.509-.022.907-.007,1.816-.007,2.724" transform="translate(-37.909 -40.293)" fill="#f5d3ce"/><path d="M139.709,62.6c0-.908.017-1.816-.008-2.723-.011-.386.117-.483.5-.5,2.292-.084,3.557.1,3.357,3.177a.666.666,0,0,0,0,.08c.177,2.785-.764,3.3-3.275,3.177-.438-.021-.6-.107-.582-.572.037-.88.011-1.762.011-2.643" transform="translate(-94.816 -40.293)" fill="#f5d3ce"/><path d="M98.695,114a1.8,1.8,0,0,0-.9.292,9.257,9.257,0,0,1-8.558-.471c.333-1.493.335-1.5,1.683-.93a7.393,7.393,0,0,0,6.592-.275c.505-.266.734-.254.861.324.079.359.211.707.32,1.06" transform="translate(-60.569 -76.325)" fill="#edb7af"/><path d="M117.506,127.892c.862-1.215,1.613-2.269,2.358-3.329a.466.466,0,0,1,.532-.232,11.679,11.679,0,0,1,5.056,2.368l-7.946,1.194" transform="translate(-79.754 -84.376)" fill="#6dc4f2"/><path d="M65.39,126.714a11.634,11.634,0,0,1,4.953-2.339.511.511,0,0,1,.624.188c.744,1.067,1.5,2.125,2.362,3.336l-7.939-1.185" transform="translate(-44.382 -84.395)" fill="#6dc4f2"/><path d="M51.778,193.833l-9.473-1.571c-.788-.131-1.572-.3-2.365-.386-.455-.049-.572-.2-.526-.65.21-2.048.194-2.027,2.243-1.675q5,.858,10.013,1.655c.642.1,1.07.2.77,1a5.008,5.008,0,0,0-.194,1.18c-.04.353-.146.582-.468.445" transform="translate(-26.745 -128.531)" fill="#040302"/><path d="M37.331,207.451c-1.893-.321-3.726-.646-5.566-.934-.379-.059-.426-.225-.361-.528.011-.052.01-.106.017-.159.234-1.907.234-1.91,2.115-1.608,1.365.219,2.728.459,4.1.661.405.06.558.187.451.617a10.761,10.761,0,0,0-.253,1.494c-.038.372-.17.546-.5.456" transform="translate(-21.298 -138.511)" fill="#050402"/><path d="M59.352,210.617c0,.009,0-.044.01-.1.187-2.015.188-2.016,2.161-1.693,1.31.214,2.619.439,3.931.645.444.07.743.166.555.743-.195.6.03,1.506-.439,1.775-.438.25-1.217-.078-1.842-.177q-1.889-.3-3.772-.627c-.281-.049-.7.013-.6-.568" transform="translate(-40.274 -141.629)" fill="#050402"/><path d="M127.2,206.845c-.1-.754.431-.592.692-.639,2.206-.391,4.418-.743,6.629-1.107,2.474-.407,4.951-.8,7.419-1.237.474-.084.647.022.656.475a2.224,2.224,0,0,0,.037.318c.276,1.631.28,1.657-1.3,1.922-4.419.741-8.844,1.448-13.262,2.2-.43.073-.57-.02-.623-.418-.074-.555-.177-1.106-.244-1.514" transform="translate(-86.328 -138.348)" fill="#040302"/><path d="M127.077,191.549c-.109-.437.374-.329.624-.373,2.364-.412,4.732-.8,7.1-1.19,1.447-.24,2.9-.456,4.338-.731.52-.1.8-.08.829.548.029.607.414,1.356.174,1.772-.255.443-1.117.308-1.715.408-3.471.584-6.947,1.136-10.415,1.736-.475.082-.609-.046-.663-.465-.068-.529-.166-1.053-.272-1.706" transform="translate(-86.239 -128.421)" fill="#050402"/><path d="M135.69,157.837c0-.853.021-1.707-.009-2.56-.014-.417.093-.611.537-.683q5.8-.941,11.582-1.927c.5-.086.749-.069.729.579-.052,1.678-.035,3.36-.006,5.04.008.482-.106.694-.618.776-3.811.615-7.618,1.258-11.424,1.9-.552.094-.873.074-.808-.651.074-.82.017-1.652.017-2.479" transform="translate(-92.079 -103.595)" fill="#fdfbf8"/><path d="M188.675,179.493c0,1.065-.016,2.131.007,3.2.011.478-.15.668-.644.659a5.357,5.357,0,0,1-2.641-.439,3.933,3.933,0,0,1-1.741-4.566,3.486,3.486,0,0,1,3.506-2.693c1.762,0,1.489-.211,1.51,1.447.01.8,0,1.6,0,2.4" transform="translate(-124.548 -119.211)" fill="#f5d3ce"/><path d="M44.763,157.884c0,.853-.03,1.709.012,2.56.024.5-.093.638-.609.548-2.675-.469-5.355-.907-8.034-1.353-1.182-.2-2.362-.409-3.548-.573-.476-.066-.671-.212-.658-.742q.061-2.519,0-5.04c-.013-.567.119-.72.691-.621,3.331.577,6.668,1.125,10,1.684a6.524,6.524,0,0,0,1.18.192c.871-.019,1.042.423.975,1.186-.063.715-.013,1.439-.013,2.159" transform="translate(-21.668 -103.597)" fill="#fdfbf8"/><path d="M8,179.491c0-1.039.031-2.078-.012-3.115-.026-.613.205-.78.786-.762a5.273,5.273,0,0,1,2.484.43,3.922,3.922,0,0,1,1.787,4.48,3.5,3.5,0,0,1-3.514,2.79c-1.811,0-1.5.214-1.529-1.506-.011-.772,0-1.544,0-2.317" transform="translate(-5.418 -119.192)" fill="#f5d3ce"/><path d="M95.717,92.95a3.727,3.727,0,0,1-3.763-2.535c-.142-.517-.071-.731.523-.682.873.072,1.755-.143,2.567.489a1.349,1.349,0,0,0,1.656-.132c.844-.7,1.788-.234,2.678-.316.344-.031.161.376.119.569a3.675,3.675,0,0,1-3.78,2.606" transform="translate(-62.369 -60.881)" fill="#040403"/><path d="M86.423,65.2c0,1.26,0,1.26-1.224,1.26-1.34,0-1.34,0-1.34-1.3,0-1.26,0-1.26,1.224-1.26,1.34,0,1.34,0,1.34,1.3" transform="translate(-56.917 -43.367)"/><path d="M118.352,65.223c0,1.235,0,1.235-1.249,1.235-1.315,0-1.315,0-1.315-1.329,0-1.235,0-1.235,1.249-1.235,1.315,0,1.315,0,1.315,1.329" transform="translate(-78.588 -43.366)"/></g></g></g></g></svg>