<svg xmlns="http://www.w3.org/2000/svg" xmlns:xlink="http://www.w3.org/1999/xlink" width="335" height="291.848" viewBox="0 0 335 291.848"><defs><clipPath id="a"><rect width="293.863" height="291.848" fill="none"/></clipPath></defs><g transform="translate(-265 -17517)"><g transform="translate(-650 15170)"><g transform="translate(937.712 2347)"><g clip-path="url(#a)"><path d="M167.288,52.746a47.9,47.9,0,0,0-5.026,14.283l-20.087-3.36S143.388,53.9,145.7,50s21.587,2.75,21.587,2.75" transform="translate(108.468 37.207)" fill="#e8b47b"/><path d="M124.946,26.973c-.975,1.144-2.08,1.528-3.305,3.108-.786.531-1.68,1.678-1.093,4.12.721,3.016,2.413,3.469,3.2,3.508a5.275,5.275,0,0,0,2.205.725c1.53.12,2.052-.344,3.482-.284,1.835.076,4.873.933,5.127-.384.27-1.4-4.268-2.027-4.451-2.137.164.012,6.08-1.04,6.161-2.262.074-1.206-5.724-.719-6.05-.8.338-.019,5.812-1.185,5.738-2.782s-6.045-.243-6.415-.2c.249-.141,4.3-2.246,3.674-3.383-.557-1-2.944.471-5.823,1.275.106-.21.3-.707.4-.936.594-1.324.307-2.84-.451-3.006s-1.082,1.89-2.4,3.438" transform="translate(91.824 17.948)" fill="#e8b47b"/><path d="M65.46,70.875c-3.5,5.967-6.045,9.324-5.7,12.774.264,2.662,2.468,5.892,5.89,5.407,4.832-.684,9.96-11.064,9.96-11.064Z" transform="translate(45.566 54.072)" fill="#f4e8d0"/><path d="M88.386,84.319c-2.3.843-3.575,2.778-3.35,4.644s1.907,4.03,2.8,5.781,1.61,4.444,2.8,7.08,2.935,5.255,5.578,4.911,3.854-2.808,4.019-4.968a40.04,40.04,0,0,0-.767-8.21c-.353-1.617-4.989-11.468-11.082-9.238" transform="translate(64.856 64.079)" fill="#f4e8d0"/><path d="M127.708,129.337c-6.588,11.064-11.686,29.836-16.037,42.143s-8.453,23.5-8.453,23.5h64.77s.5-7.582,6.837-18.523,10.941-23.993,9.821-40.029-56.937-7.087-56.937-7.087" transform="translate(78.747 96.774)" fill="#f46464"/><path d="M36.251,41.113c3.575,12.053,8.836,19.306,7.813,30.387S29.049,84.983,24.2,76.914s-.918-20.633-.918-20.633Z" transform="translate(16.612 31.366)" fill="#684837"/><path d="M26.986,65.439c-.062-2.392,22.051-7.21,25.966-2.549,2.521,3-1.3,10.63-1.3,10.63s17.737,8.391,25.772,19.953c7.367,10.6,11.165,21.257,17.629,27.535s23.5,17.716,27.475,27.785a30.8,30.8,0,0,1,.621,19.642l-23.061,11.933S31.462,194.728,23.319,187.7s-6.651-23.87-6.651-23.87-21.941-41.459-9.634-61.411,21.351-23.5,19.207-29.557.746-7.427.746-7.427" transform="translate(2.506 46.487)" fill="#ffd357"/><path d="M19.76,30.319c8.24-2.179,18.318-.34,20.769,7.32s-9.023,15.084-9.023,15.084Z" transform="translate(15.075 22.48)" fill="#684837"/><path d="M32.876,56.315c-1.992,8.222,1.89,16.547,1.89,16.547s-2.4,2.859-9.091,2.145-8.58-23.339-8.58-23.339Z" transform="translate(13.041 39.418)" fill="#dba469"/><path d="M18.334,70.15c2.077,4.086,7.831,13.381,17.738,10.079s9.976-24.991,8.614-34.456S39.647,30.587,29.228,30.587,11.319,47.269,11.319,47.269Z" transform="translate(8.635 23.335)" fill="#dba469"/><path d="M34.438,122.391c-7.811,10.574-19.464,7.2-20.224-2.043s2.394-14.969,1.888-28.755S6.271,67.32,8.4,50.431c1.9-15.085,13.107-20.834,19.449-21.4,6.325-.562,13.786.629,18.214,4.153,0,0-1.927,6.877-12.55,12.494-4.2,2.225-10.241,3.4-13.541,4.044-.49,3.586-1,8.776-.376,12.094,1.021,5.492,5.433,11.08,9.446,19s13.2,31,5.393,41.577" transform="translate(6.169 22.048)" fill="#7e563c"/><path d="M59.514,145.625c-5.349,8.451-40.032,14.419-51.34,0s-10.7-39.905.7-60.493c15.4,7.4,20.737,23.81,22.356,33.065,2.625.545,6.653,1.4,12.748,2.687,23.494,4.975,20.885,16.282,15.537,24.741" transform="translate(0 64.949)" fill="#ffd357"/><path d="M23.118,194.828s-9.386-27.97-9.386-39.657,4.693-22.75,4.693-22.75,27.8-5.211,37.481-5.377c12.711-.215,17,6.341,17,6.341l-2.237,61.443Z" transform="translate(10.476 96.92)" fill="#f46464"/><path d="M64.487,111.795c.032-.5,2.766-3.043,5.812-1.04s3.729,5.858,1.957,7.878-7.769-6.838-7.769-6.838" transform="translate(49.198 83.919)" fill="#d49666"/><path d="M111.867,178.331a13.133,13.133,0,0,1-6.951,4.446c2.618,12.748,4.9,26.971,4.9,26.971H43.058l.612-28.157c-6.205-5.169-11.062-13.634-11.337-20.609-.374-9.5,11.755-38.213,18.5-46.337a19.155,19.155,0,0,1,6.161-4.862c5.446-2.738,12.487-3.216,19.729-.434a33.474,33.474,0,0,1,7.08,3.76c12.776,8.809,21.451,28.762,26.948,39.666s8.02,17.626,1.119,25.555" transform="translate(24.661 82.001)" fill="#f4e8d0"/><path d="M66.114,110.062c-.693,2.969-2.618,6.027-7.586,6a17.177,17.177,0,0,1-12.143-5.573c5.446-2.736,12.487-3.214,19.729-.432" transform="translate(35.388 82.544)" fill="#dba469"/><path d="M194.235,84.84s-12.993,3.67-31.082,0-58.134-29.291-58.134-29.291l-4.753-13.567s5.781-7.736,12.4-2.611,15.307,10.167,24.325,15.142c2.8,1.544,7.683,3.885,13.62,6.743,7.459,3.595,16.58,8,25.286,12.672A200.068,200.068,0,0,1,194.235,84.84" transform="translate(76.495 28.699)" fill="#e8b47b"/><path d="M142.287,61.86s-4.113-5.257-2.584-5.7,24.767,2.174,29.335,4.608-1.761,11.753-1.8,12.374S142.287,61.86,142.287,61.86" transform="translate(106.322 42.803)" fill="#7b9051"/><path d="M162.393,51.431c-2.357,2.267-9.636,6.392-17.566,8.4a43.009,43.009,0,0,1-6.429,1.209c-.822,3.677-.624,13.673-2.415,20.7-1.576,6.179-.934,16.924-7.283,19.02S92.805,96.033,88.142,85.963s9.372-13.827,9.372-13.827-4.43-7.325-2.842-12.307c.755-2.371,1.708-5.026,2.5-7.152-3.58-3.8-11.734-12.584-13.315-15.366-2.057-3.588-5.5-9.093-8.674-14.918s-4.146-6.905-4.056-8.674c.194-3.677,6.831-7.3,10.091-6.454,4.153,1.067,11.769,14.613,15.551,18.11s12.256,9.645,16.411,12.538,16.178,4.8,22.652,5.132,23.5-2.147,23.5-2.147c2.842.79,5.936,7.773,3.064,10.532" transform="translate(54.259 5.45)" fill="#df7c36"/><path d="M129.865,85.4c-.691,8.021-1.613,11.126-4.106,17.22s-4.721,15.783-11.679,15.723-9.885-3.789-10.756-7.272,4.414-11.434,6.213-21.132a49.369,49.369,0,0,0,.7-12.665c-4.042,3.193-8.078,9.054-11.33,11.233C94.373,91.549,84.176,95.838,73.3,97.89S60.121,87.82,64.29,83.411s11.748-4.476,18.768-9.7,11.544-23.071,17.22-23.81c6.653-.873,26.35,7.866,30.2,10.976s.055,16.778-.612,24.517" transform="translate(47.562 38.027)" fill="#73b3e9"/><path d="M93.373,26.377c-.18-5.8,11.258-6.214,16.238-4.351,4.711,1.765,12.013,7.288,10.16,12.836-1.148,3.434-6.66,7.11-13.053,5.92-5.511-1.024-13.169-8.7-13.345-14.4" transform="translate(71.234 16.049)" fill="#df7c36"/><path d="M63.039,117.252c-.947.539-11.237,1.045-12.977.374s-1.9-8.806-3.055-12.37,12.7-4.152,13.014-2.736c.889,4.016,3.538,14.437,3.018,14.733" transform="translate(35.81 77.67)" fill="#dba469"/><path d="M36.646,125.584a8.784,8.784,0,0,0,3.008,1.37,5.584,5.584,0,0,0,3.207-.673,7.3,7.3,0,0,0,3.563,1.206c1.835.115,3.813-1.167,4.959-2.075A12.562,12.562,0,0,0,57.67,123.1l12.377-3.836s3.344,1.3,5.409.7a6.882,6.882,0,0,0,3.387-2.7,6.982,6.982,0,0,0,2.852-.078,3.825,3.825,0,0,0,2.008-1.842s-5.253-17.5-8.961-23.1-10.183-11.254-19.508-9.5-15.143,7.875-17.52,18.4-1.068,24.432-1.068,24.432" transform="translate(27.687 62.881)" fill="#7e563c"/><path d="M62.79,123.766c-4.811,1.331-12.947-1.684-16.164-6.567s-4.673-12.293-4.673-12.293-6.01-14.98,6.059-19.08,20.475,3.422,22.419,10.611a44,44,0,0,1,1.3,16.832c-.481,3.02-2.158,8.621-8.942,10.5" transform="translate(30.865 64.592)" fill="#dba469"/><path d="M73.369,99.72c-5.4-4.109-10.481-3.893-13.294-3.242a46.253,46.253,0,0,0-6.738,2.413L49.719,91.34l-1.065,9.737s-5.072,2.613-7.406,6.378-2.473-10.332-2.473-10.332l5.872-10.539,9.287-2.569,4.42-.138,6.7,1.65,4.233,3.8,5.045,9.493Z" transform="translate(29.582 63.992)" fill="#7e563c"/><path d="M43.959,97.949c-2.9,1.035-5.049,3.773-3.873,6.569s4.707,3.05,7.351,1.022-3.478-7.591-3.478-7.591" transform="translate(30.332 74.727)" fill="#dba469"/><path d="M57.668,94.4c2.759-.7,5.879.421,6.507,3.385s-1.911,5.079-5.017,4.816-1.49-8.2-1.49-8.2" transform="translate(43.675 71.863)" fill="#dba469"/><path d="M52.756,102.074a1.668,1.668,0,0,1-.79-.175l.353-.656a1.882,1.882,0,0,0,1.65-.3,1.458,1.458,0,0,0,.7-1.407c-.063-.571-.571-.945-1.16-1.379-.908-.668-2.036-1.5-1.758-3.385l.739.109c-.213,1.442.6,2.04,1.461,2.674a2.868,2.868,0,0,1,1.46,1.9,2.2,2.2,0,0,1-1.028,2.1,3.008,3.008,0,0,1-1.631.515" transform="translate(39.452 72.303)" fill="#be8b54"/><path d="M54.143,103.572c-2.19,0-4.324-1.3-5.927-3.759l.624-.409c2.161,3.316,5.37,4.314,8.176,2.537l.4.631a6.093,6.093,0,0,1-3.272,1" transform="translate(36.785 75.837)" fill="#a55c58"/><rect width="3.166" height="0.746" transform="matrix(0.994, -0.113, 0.113, 0.994, 71.846, 176.896)" fill="#be8b54"/><rect width="1.894" height="0.744" transform="matrix(0.078, -0.997, 0.997, 0.078, 73.132, 178.894)" fill="#be8b54"/><rect width="2.683" height="0.746" transform="translate(103.026 169.739) rotate(-18.607)" fill="#be8b54"/><rect width="0.745" height="1.882" transform="matrix(0.964, -0.267, 0.267, 0.964, 103.888, 169.885)" fill="#be8b54"/><path d="M53.289,108.42a11.433,11.433,0,0,1-4.665-.915l.307-.679A12.441,12.441,0,0,0,60.1,105.746l.425.613a13.073,13.073,0,0,1-7.233,2.061" transform="translate(37.096 80.676)" fill="#cc9363"/><path d="M47.355,97.342a1.01,1.01,0,1,0,.615-1.46,1.136,1.136,0,0,0-.615,1.46" transform="translate(36.084 73.129)" fill="#684837"/><path d="M54.345,96.083a1.01,1.01,0,1,0,.615-1.46,1.136,1.136,0,0,0-.615,1.46" transform="translate(41.417 72.168)" fill="#684837"/><path d="M46.358,96.53a1.2,1.2,0,0,1-1.13-.511.923.923,0,0,1,.076-.975A6.794,6.794,0,0,1,49.93,92.77a1.142,1.142,0,0,1,1.079.541c.361.679-.243,1.513-1.661,2.287a7.14,7.14,0,0,1-2.99.933m3.5-3.016a6.283,6.283,0,0,0-3.917,1.916c-.03.048-.093.167-.062.224.164.3,1.625.1,3.11-.712,1.118-.61,1.437-1.135,1.359-1.28-.046-.086-.206-.141-.439-.148h-.051" transform="translate(34.426 70.774)" fill="#684837"/><path d="M56.24,93.373h-.076c-1.655-.016-3.337-.562-3.364-1.742a1.1,1.1,0,0,1,.6-1c1.1-.635,3.547-.307,4.711.4.658.4.781.829.769,1.121-.042.9-1.377,1.218-2.641,1.218m-1.193-2.331a2.721,2.721,0,0,0-1.269.238c-.208.12-.233.242-.231.333.012.545,1.188,1,2.623,1.014,1.3.005,1.955-.323,1.964-.506.005-.123-.146-.293-.409-.45a5.714,5.714,0,0,0-2.678-.629" transform="translate(40.282 68.889)" fill="#684837"/><path d="M40.424,98.943S43.7,88.9,52.867,86.61a16.764,16.764,0,0,1,15.225,3.7l1.433,2.186S61,87.245,53.353,90.171s-12.436,10.971-12.436,10.971Z" transform="translate(30.84 65.678)" fill="#f4e8d0"/><path d="M96.309,26.129a8.22,8.22,0,0,0-.081,3.863,16.246,16.246,0,0,0,9.879,9.227,10.593,10.593,0,0,0,11.646-3.8c1.38-1.761,1.361-4.261,3.625-7.209a22.651,22.651,0,0,0,3.265-5.994L121.72,13.87,106.337,8.694,97.9,16.188s-.682,7.36-1.588,9.941" transform="translate(73.252 6.633)" fill="#e8b47b"/><path d="M126.1,26.182c-2.373,1.791-4.028,5.541-4.028,5.541s-1.786.652-.324-1.3A12.905,12.905,0,0,0,123.7,25.7a5.742,5.742,0,0,1-2.71-1.7,4.791,4.791,0,0,1-1.162-2.5,15.871,15.871,0,0,1-3.374-.594,11.988,11.988,0,0,1-6.7-5.105,8.912,8.912,0,0,1-2.533,2.45,5.426,5.426,0,0,1-4.215.487,6.037,6.037,0,0,1-.8,1.636,3.559,3.559,0,0,1-3.318,1.495A17.506,17.506,0,0,1,98,25.049s-2.81,3.015-1.5-.617.751-5.206.462-7.26-1.814-3.512-.955-6.128a2.955,2.955,0,0,1,2.708-2.038,4.756,4.756,0,0,1,4.714-3.194,8.088,8.088,0,0,1,4.661,1.3,10.776,10.776,0,0,1,10.519-.46c3.866,1.856,5.067,4.64,5.389,6.646a2.781,2.781,0,0,1,3.052.961c.948,1.186.71,2.965.227,4.436a2.772,2.772,0,0,1,1.373,1.065c1.31,1.878-.178,4.624-2.562,6.421" transform="translate(73.053 4.197)" fill="#7e563c"/><path d="M98.371,22.252s-1.372,2-1.158,2.868,2.837,5.469,7.212,6.288,6.5-.4,6.912-.753.531-3.2.531-3.2Z" transform="translate(74.148 16.976)" fill="#e8b47b"/><path d="M157.076,63.7c-1.044,1.1-4.326,4.564-4.446,4.6-.134.053-29.642-.088-27.6-6.242a33.456,33.456,0,0,1,6.759-11.032c7.459,3.6,16.58,8,25.286,12.674" transform="translate(95.312 38.928)" fill="#7b9051"/><path d="M99.38,21.982a3.81,3.81,0,0,1-3.526-6.756c1.835-.8,3.826.229,4.841,1.2s-1.315,5.553-1.315,5.553" transform="translate(71.541 11.399)" fill="#e8b47b"/><path d="M108.346,25.233c3.194,2.378,5.788,1.386,6.717-.3s.866-4.5-3-5.839-3.72,6.144-3.72,6.144" transform="translate(82.659 14.441)" fill="#e8b47b"/><path d="M20.888,52.774c-3.609,3.915-9.636,1.565-9.7-2.859s4.649-6.757,8.171-5.652Z" transform="translate(8.533 33.561)" fill="#dba469"/><path d="M78.688,120.775c-.374-1.491-1.537-2.844-1.957-4.413-.432-1.611-2.262-1.562-2.914-3.194s-2.447-3.332-6.248-2.54c-1.682.351-3.425-.42-4.358.233s-3.753,3.263-3.893,3.94,3.357,1.562,5.71-.257a7.392,7.392,0,0,1,1.759-1.068,10.6,10.6,0,0,1,1.015,4.24c-.071,2.308-.536,5.291-2.1,7.224s-2.145,4.989-1.19,6.271,1.562-2.285,2.7-3.566c.377-.421.767-.837,1.139-1.255a13.652,13.652,0,0,0-1.091,4.635c.093,2.355.488,3.637,1.211,3.614.707-.023.906-4.016,3.187-6.941-.194,2.436-.222,5.2.892,5.5,1.213.326,1.165-3.008,2.121-4.779a4.686,4.686,0,0,0,.263-.6c.016,1.336.178,2.731.763,2.953,1.165.443,1.4-3.03,2.1-4.709s1.259-3.792.885-5.283" transform="translate(45.252 84.247)" fill="#d49666"/><path d="M61.567,139.23c-1.026-2.362-1.959-2.921-3.854-6.216a40.8,40.8,0,0,1-2.182-5.107c4.49,2.77,8.032,1.238,7.84.259-.219-1.1-7.646-3.124-11.674-8l-.007,0a5.4,5.4,0,0,0-.689-.677c-2.921-2.3-7.739-4.2-11.36-6.558a4.874,4.874,0,0,0-6.946,1.058,3.667,3.667,0,0,0-.421,4.279c.721,1.266,2.6,2.609,3.9,5.862s4.725,5.275,6.465,7.886,3.977,16.845,5.9,17.187-1.024-14.327-.714-14.452,2.7,4.973,2.859,6.061a24.96,24.96,0,0,0,.933,5.6c.746,2.047,2.361,3.787,2.951,3.632s-.869-4.289-.839-6.775.157-3.42-.9-5.719l-.012-.03a23.628,23.628,0,0,1,2.188,3.013c.529,1.181.529,3.263,2.052,5.812s2.8,3.295,3.45,3.14-1.026-3.669-1.587-5.874-.714-3.917-1.553-5.564l-.245-.487c.393.465.811.931,1.252,1.387a12.881,12.881,0,0,0,2.412,3.885c2.145,2.269,3.295,2.611,3.917,2.424s-2.114-3.667-3.14-6.029" transform="translate(24.24 85.389)" fill="#d49666"/><path d="M49.652,143.724c-3.639-1.462-7.773,5.033-4.478,7.8,3.189,2.678,2.331,4.672,3.785,4.88s6.235-9.908,5.474-11.433-2.815-.457-4.781-1.246" transform="translate(33.547 109.488)" fill="#dba469"/><path d="M105.9,50.693c-2.237-1.491-3.418-7.4-3.7-9.4s-.062-6.821-1.959-8.065-3.667.5-4.009,2.082.622,6.528-.342,7.149-5.717-6-7.986-6.4-3.263,2.889-2.611,4.538a5.031,5.031,0,0,0,.652,1.067,2.85,2.85,0,0,0-2.114.27,3.826,3.826,0,0,0-1.026,4.351,5.469,5.469,0,0,0,.776,1.338,2.977,2.977,0,0,0-2.049,2.257,4.557,4.557,0,0,0,.746,2.676c-.966.594-1.389,2.59-.374,4.42,1.4,2.517,2.859,4.041,8.578,5.128S138.16,90.145,138.16,90.145l10.6-2.858V66.947S108.141,52.184,105.9,50.693" transform="translate(62.044 25.026)" fill="#e8b47b"/><path d="M71.984,142.687c2.431-1.551,7.4,5.409,4.478,8.2-2.054,1.966-1.754,4.467-3.018,4.8s-6.4-9.885-5.872-11.54,2.782-.416,4.413-1.454" transform="translate(51.522 108.689)" fill="#dba469"/><path d="M84.844,15.392c.06-2.629-.7-4.108-.747-6.1-.063-2.7,1.234-4.793.368-5.451s-2.3.351-2.768,2.1c-.081.3-.277.933-.337,1.216C79.227,3.48,78.09-.268,76.777.014c-1.484.314.767,6.343.894,6.724-.33-.425-6.057-7.87-7.378-6.572s4.1,8.048,4.418,8.413c-.374-.268-6.454-6.13-7.32-5.019-.866,1.127,4.887,7.6,5.051,7.753-.254-.1-5.52-3.93-5.938-2.221-.418,1.752,3.011,4.162,4.48,5.361,1.548,1.264,1.7,2.1,3.261,3.593a8.04,8.04,0,0,0,2.673,1.671c.788.793,2.752,2.165,5.784.338,2.452-1.477,2.487-3.388,2.142-4.663" transform="translate(50.711 0)" fill="#e8b47b"/><path d="M196.166,144.41c-2.114,17.483-8.129,51.683-8.913,51.967,0,0-15.36,3.3-39.692-.055a154.47,154.47,0,0,1-42.827-12.506s7.027-18.267,19.706-48.357c7.362-17.469,13.225-31.724,16.813-40.815A205.969,205.969,0,0,0,119.98,82.716a50.869,50.869,0,0,1,2.611-17.573A32.531,32.531,0,0,1,130.9,52.172c22.75,5.095,57.688,16.037,65.267,23.988s2.23,49.8,0,68.25" transform="translate(79.904 39.803)" fill="#7b9051"/><path d="M149.346,39.107a6.4,6.4,0,0,0-3.692-3.1c-2.847-1.065-6.505,2.895-4.984,7.02a4.581,4.581,0,0,0,5.551,3Z" transform="translate(107.048 27.34)" fill="#e8b47b"/><path d="M144.615,44.29c-1.29-5.661-2.514-10.683.5-15.478,2.8-4.446,7.991-1.061,7.991-1.061Z" transform="translate(109.28 20.231)" fill="#684837"/><path d="M171.652,63.635s-2.681,6.927-5.71,8.393-10.535,4.936-14.775,3.022-6.63-3.064-7.87-4.635-3.73-7.575-3.355-10.759,3.982-10.9,4.8-12.7,6.526-14.461,6.526-14.461l2.161-4.793,27.635,15.158Z" transform="translate(106.736 21.133)" fill="#e8b47b"/><path d="M162.8,45.908a44.838,44.838,0,0,0,5.3,1.835c-.848,2.232-1.373,5.451.859,8.22.039.041.067.078.1.115a3.919,3.919,0,0,0-.682,1.183,8.152,8.152,0,0,0-.384,4.631l3.767.328c2.468-5.241,5.784-3.533,7.933-8.065,2.114-4.43.025-10-6.107-12.956-.818-3.871-3.7-12.748-13.292-17.074-12.993-5.863-24.651,10.863,2.512,21.783" transform="translate(111.612 17.481)" fill="#7e563c"/><path d="M158.792,43.792a7.733,7.733,0,0,1,5.4.388,4.848,4.848,0,0,1,1.516,7.514c-2.086,2.708-6.747,3.859-10.278-.989s3.365-6.912,3.365-6.912" transform="translate(117.81 33.17)" fill="#e8b47b"/><path d="M154.425,26.7c-.3-8.934,15.519-.709,14.784,16.61s-4.15-4.148-4.15-4.148Z" transform="translate(117.81 17.587)" fill="#7e563c"/><path d="M160.942,32.9c8.191-1.638,11.9,3.741,9.333,8.739s-9.333-8.739-9.333-8.739" transform="translate(122.786 24.868)" fill="#7e563c"/><path d="M105.258,23.18a1.925,1.925,0,0,1-1.632-.874l.636-.39a1.2,1.2,0,0,0,1.2.5.823.823,0,0,0,.7-.67,3.192,3.192,0,0,0-.517-1.759,3.7,3.7,0,0,1-.515-3.08l.689.286a3.075,3.075,0,0,0,.5,2.468,3.678,3.678,0,0,1,.576,2.237,1.561,1.561,0,0,1-1.3,1.253,1.932,1.932,0,0,1-.333.028" transform="translate(79.058 12.899)" fill="#cc9363"/><path d="M109.863,20.432c-.933-1.338-2.881-.855-2.9-.85l-.189-.721c.1-.026,2.468-.626,3.7,1.144Z" transform="translate(81.46 14.299)" fill="#7f593d"/><path d="M104.179,18.368a3.712,3.712,0,0,0-4.069-.725l-.335-.666a4.523,4.523,0,0,1,4.9.837Z" transform="translate(76.12 12.661)" fill="#7f593d"/><path d="M106.633,24.451a6.335,6.335,0,0,1-1.759-.254,5.007,5.007,0,0,1-3.337-3.281l.719-.2a4.252,4.252,0,0,0,2.826,2.761,5.124,5.124,0,0,0,3.9-.351l.4.633a5.525,5.525,0,0,1-2.748.689" transform="translate(77.464 15.807)" fill="#a56f58"/><rect width="0.745" height="3.401" transform="translate(167.548 28.565) rotate(-53.6)" fill="#cc9363"/><rect width="1.66" height="0.746" transform="matrix(0.654, -0.756, 0.756, 0.654, 167.77, 30.285)" fill="#cc9363"/><rect width="0.747" height="2.712" transform="matrix(0.107, -0.994, 0.994, 0.107, 193.949, 37.567)" fill="#cc9363"/><path d="M111.231,22.686l-.746-.014.03-1.5.746.014Z" transform="translate(84.291 16.149)" fill="#cc9363"/><path d="M110.165,10.495a10.51,10.51,0,0,0-3.216-3.619l.377-.642a11.1,11.1,0,0,1,3.5,3.915ZM97.876,11.9a6.242,6.242,0,0,1,.243-3.341l-.712-.222a6.816,6.816,0,0,0-.245,3.781Zm25.545.829-.746.026a23.288,23.288,0,0,1-.055,3.041l.742.081a23.741,23.741,0,0,0,.058-3.149m3.258,5.534-.705-.245a5.752,5.752,0,0,1-1.26,2.234l.5.555a6.345,6.345,0,0,0,1.467-2.544M121.6,20.753l-.3-.682a6.262,6.262,0,0,1-2.413.5l-.018.746c.041,0,.081,0,.122,0a7.353,7.353,0,0,0,2.611-.561m-12.469-5.692a10.032,10.032,0,0,1-.679-1.694l-.716.2a10.244,10.244,0,0,0,.74,1.849Zm-6.978,2.757a10.218,10.218,0,0,1-2.741-1.155L99,17.286a10.784,10.784,0,0,0,2.96,1.253Z" transform="translate(74.01 4.756)" fill="#684837"/><path d="M111.161,19.838a4.891,4.891,0,0,1-2.877-1.571c-.749-.8-.933-1.562-.5-2.1a.914.914,0,0,1,1.017-.259A5.7,5.7,0,0,1,112,18.919a.727.727,0,0,1-.277.762.965.965,0,0,1-.566.157m-2.708-3.231a.136.136,0,0,0-.09.021c-.2.256.108.751.464,1.128.927.985,2.228,1.484,2.473,1.313a5.324,5.324,0,0,0-2.4-2.336,1.153,1.153,0,0,0-.45-.127" transform="translate(82.054 12.101)" fill="#684837"/><path d="M101.38,16.9c-.874,0-1.851-.146-1.959-.785a1.022,1.022,0,0,1,.511-.947c1.1-.857,4.277-1.775,5.574-1.2a.963.963,0,0,1,.624.814c.1,1.169-1.765,1.821-3.54,2.04a10.1,10.1,0,0,1-1.211.079m-1.209-.926c.409.291,2.842.264,4.393-.405.534-.233.843-.5.825-.728s-.55-.289-.712-.3c-1.7-.116-4.286.959-4.506,1.433" transform="translate(75.843 10.522)" fill="#684837"/><path d="M44.7,93.652s.948,6.6-1.456,7.873a2.409,2.409,0,0,1-3.485-1.253Z" transform="translate(30.333 71.449)" fill="#7e563c"/><path d="M75.277,118.424l-.73-.157c.016-.072,1.474-7.173-3.441-8.9a6.111,6.111,0,0,0-6.627,1.842l-.58-.471a6.976,6.976,0,0,1,7.454-2.075c5.537,1.948,3.94,9.685,3.924,9.763" transform="translate(48.75 82.6)" fill="#d39644"/><path d="M161.5,67.884c-4.825-3.032-13.784-5.726-13.874-5.752l.212-.714c.092.026,9.15,2.75,14.059,5.835Z" transform="translate(112.624 46.857)" fill="#687f50"/><path d="M135.29,177.541l-.719-.2c3.824-13.881,12.453-27.38,12.54-27.516l.628.4c-.086.134-8.654,13.541-12.448,27.309" transform="translate(102.667 114.307)" fill="#c0483e"/><path d="M159.466,142.348c-20.871,0-44.708-8.217-45.016-8.326l.247-.7c.395.139,39.773,13.714,61.341,5.833l.256.7a49.836,49.836,0,0,1-16.827,2.495" transform="translate(87.316 101.711)" fill="#c0483e"/><path d="M138.962,164.011c-11.447-8.212-12.8-24.476-12.813-24.64l.744-.056c.012.16,1.345,16.085,12.5,24.09Z" transform="translate(96.241 106.285)" fill="#c0483e"/><path d="M88.551,43.146a24.293,24.293,0,0,1-4.776-5.017l.615-.423A23.977,23.977,0,0,0,89,42.55Z" transform="translate(63.914 28.767)" fill="#cc9363"/><path d="M86.275,44.96a10.668,10.668,0,0,1-3.845-3.466l.628-.4a10.088,10.088,0,0,0,3.542,3.2Z" transform="translate(62.887 31.35)" fill="#cc9363"/><path d="M84.957,47.17a15.373,15.373,0,0,1-3.247-2.814l.562-.49a14.873,14.873,0,0,0,3.05,2.653Z" transform="translate(62.338 33.466)" fill="#cc9363"/><rect width="0.746" height="18.909" transform="translate(191.392 85.239) rotate(-69.817)" fill="#cc9363"/><path d="M63.978,84.093l-.4-.629c2.4-1.525,6.449-2.907,10.734-4.37,4.425-1.509,9-3.069,11.926-4.864,3.575-2.191,6.376-8.3,8.848-13.7A51.954,51.954,0,0,1,99.281,52.5l.6.437a51.746,51.746,0,0,0-4.12,7.908C93.25,66.333,90.4,72.556,86.63,74.866c-3,1.837-7.612,3.411-12.074,4.934-4.243,1.447-8.25,2.815-10.578,4.293" transform="translate(48.506 40.05)" fill="#6d98bb"/><path d="M105.41,38.53c-7.753-3.008-11.168-12.875-11.2-12.973l-.707.238c.141.42,3.556,10.3,11.639,13.432a11.748,11.748,0,0,0,4.268.843c6.26,0,9.777-5.682,9.818-5.752l-.638-.384c-.194.321-4.855,7.826-13.178,4.6" transform="translate(71.334 19.498)" fill="#c2623b"/><rect width="0.746" height="3.066" transform="matrix(0.7, -0.714, 0.714, 0.7, 151.17, 58.393)" fill="#c2623b"/><rect width="4.531" height="0.747" transform="translate(192.287 66.431) rotate(-81.113)" fill="#c2623b"/><path d="M83.121,8.39c.106.208,2.576,5.153-2.336,8.319a6.729,6.729,0,0,1-8.739-.876l-.55.5a8.073,8.073,0,0,0,5.446,2.348,7.766,7.766,0,0,0,4.249-1.349c5.472-3.529,2.621-9.231,2.591-9.289Z" transform="translate(54.546 6.14)" fill="#c2623b"/><path d="M74.383,13.286c-1.64-2.479-.365-5.472.564-7.66a12.821,12.821,0,0,0,.617-1.615l.723.187a13.541,13.541,0,0,1-.654,1.721c-.864,2.031-2.047,4.811-.628,6.955Z" transform="translate(56.145 3.06)" fill="#cc9363"/><path d="M22.81,67.76v-.746c7.373,0,8.427-3.686,8.436-3.723a.471.471,0,0,0-.081-.416c-.138-.164-.555-.425-1.809-.307l-.069-.744c1.227-.113,2.057.086,2.465.591a1.22,1.22,0,0,1,.212,1.082c-.037.152-1.151,4.263-9.153,4.263" transform="translate(17.402 47.143)" fill="#d39644"/><path d="M108.2,28.592a17.781,17.781,0,0,1-3-.291c-3.7-.633-6.96-3.885-7.1-4.025l.529-.525c.032.032,3.237,3.223,6.7,3.815,3.4.584,4.577.065,4.587.058l.328.672a4.964,4.964,0,0,1-2.047.3" transform="translate(74.845 18.12)" fill="#cc9363"/><path d="M89.892,67.431l-.532-.524a24,24,0,0,1,5.557-3.82l.33.67a23.67,23.67,0,0,0-5.354,3.674" transform="translate(68.174 48.13)" fill="#6d98bb"/><path d="M115.786,84.7a47.367,47.367,0,0,1,10.8-32.1l.543.511a46.6,46.6,0,0,0-10.6,31.556Z" transform="translate(88.307 40.131)" fill="#687f50"/><path d="M69.163,153.261c-.943-3.242,2.525-6.562,3.383-7.321-.483-1.858-3.841-14.694-5.574-19.255l.7-.264c1.876,4.934,5.618,19.411,5.657,19.558l.058.229-.182.152c-.042.034-4.238,3.552-3.325,6.694Z" transform="translate(51.094 96.449)" fill="#dbc5a6"/><path d="M51.963,148.716c-1.539-5.264-9.472-7.244-9.551-7.263l-.268-.065-.451-7.415.744-.046.42,6.872c1.47.4,8.314,2.542,9.823,7.708Z" transform="translate(31.808 102.175)" fill="#dbc5a6"/><path d="M46.826,154.53c-4.518,0-8.185-4.622-8.233-4.682l.589-.458c.222.286,5.525,6.953,11.009,3.337l.411.622a6.758,6.758,0,0,1-3.776,1.181" transform="translate(29.443 113.972)" fill="#dbc5a6"/><path d="M47.922,130.845a25.675,25.675,0,0,1-4.481-9.7l.733-.13a25.488,25.488,0,0,0,4.351,9.391Z" transform="translate(33.142 92.325)" fill="#b77f4f"/><path d="M45.154,130.605a64.591,64.591,0,0,1-3.755-9.132l.707-.236a65.384,65.384,0,0,0,3.692,8.991Z" transform="translate(31.584 92.494)" fill="#b77f4f"/><path d="M41.369,126.941a35.377,35.377,0,0,1-1.574-4.374l.719-.2a35.206,35.206,0,0,0,1.534,4.268Z" transform="translate(30.36 93.355)" fill="#b77f4f"/><path d="M46.076,122.852a8.766,8.766,0,0,0-2.38-3.605l.488-.564a9.374,9.374,0,0,1,2.609,3.961Z" transform="translate(33.336 90.545)" fill="#b77f4f"/><path d="M65.282,122.454l-.613-.425c1.594-2.309,1.754-2.835,2.017-4.148a16.379,16.379,0,0,0,.226-3.041l.746-.021a16.858,16.858,0,0,1-.24,3.207c-.3,1.5-.55,2.133-2.135,4.428" transform="translate(49.337 87.598)" fill="#b77f4f"/><path d="M66.888,122.941l-.584-.464c1.812-2.288,1.878-3.6,1.918-4.465l.005-.1c.046-.883,0-2.262,0-2.276l.746-.025c0,.058.048,1.424,0,2.339l-.005.1c-.046.961-.116,2.415-2.08,4.892" transform="translate(50.585 88.202)" fill="#b77f4f"/><path d="M68.869,122.956l-.691-.282a10.174,10.174,0,0,0,.908-6.452l.739-.1c.3,2.14.4,3.512-.956,6.838" transform="translate(52.014 88.589)" fill="#b77f4f"/><path d="M43.565,128.217a2.2,2.2,0,1,1,2.2-2.2,2.2,2.2,0,0,1-2.2,2.2m0-3.649a1.451,1.451,0,1,0,1.451,1.453,1.454,1.454,0,0,0-1.451-1.453" transform="translate(31.56 94.466)" fill="#dbc5a6"/><path d="M93.807,98.72c-.021,0-.042,0-.065,0-2.4-.136-3.482-7.882-3.674-9.433l.739-.092c.45,3.6,1.669,8.707,2.978,8.779a.338.338,0,0,0,.275-.125c.857-.97.372-5.754-.136-8.541l.735-.134c.141.776,1.336,7.611-.041,9.169a1.061,1.061,0,0,1-.811.379" transform="translate(68.715 68.031)" fill="#dbc5a6"/><path d="M63.653,82.266a1.83,1.83,0,0,1-1.047-.316c-2.077-1.4.13-6.137.39-6.673l.672.324c-.582,1.208-1.95,4.852-.643,5.729s3.649-1.5,4.446-2.487l.58.467c-.113.141-2.4,2.955-4.4,2.955" transform="translate(47.09 57.431)" fill="#dbc5a6"/><path d="M15.892,53.717a3.487,3.487,0,0,1-.4-.025,2.18,2.18,0,0,1-2.133-2.45,2.46,2.46,0,0,1,2.5-2.315,2.626,2.626,0,0,1,2.288,1.453,2.4,2.4,0,0,1-.222,2.378,2.428,2.428,0,0,1-2.031.959m-.206-4.051a1.741,1.741,0,0,0-1.587,1.65,1.449,1.449,0,0,0,1.479,1.636,1.8,1.8,0,0,0,1.74-.631,1.642,1.642,0,0,0,.15-1.629A1.877,1.877,0,0,0,15.8,49.671c-.039,0-.076-.005-.113-.005" transform="translate(10.181 37.322)" fill="#ead8c0"/><path d="M32.259,52.16a2.688,2.688,0,0,1-.312-.018,1.74,1.74,0,0,1-1.68-1.937,1.939,1.939,0,0,1,1.973-1.818,2.055,2.055,0,0,1,1.791,1.142,1.865,1.865,0,0,1-.176,1.876,1.908,1.908,0,0,1-1.6.755m-.153-3.032a1.209,1.209,0,0,0-1.095,1.151c-.03.3.012,1,1.024,1.121a1.254,1.254,0,0,0,1.216-.434,1.131,1.131,0,0,0,.1-1.125,1.316,1.316,0,0,0-1.172-.71c-.026,0-.051,0-.076,0" transform="translate(23.084 36.912)" fill="#dbc5a6"/><path d="M31.995,54.2a1.4,1.4,0,0,1-1.236-.772,1.588,1.588,0,0,1,.525-2.137,1.681,1.681,0,0,1,1.735-.03,1.531,1.531,0,0,1,.732,1.363,1.619,1.619,0,0,1-.961,1.368,1.753,1.753,0,0,1-.8.208m-.347-2.257a.84.84,0,0,0-.231,1.134c.122.229.416.564,1.035.25a.888.888,0,0,0,.555-.733.8.8,0,0,0-.379-.7.946.946,0,0,0-.98.048" transform="translate(23.312 38.937)" fill="#dbc5a6"/><path d="M15.518,55.585a1.55,1.55,0,0,1-1.372-.855,1.768,1.768,0,0,1,.582-2.378,1.874,1.874,0,0,1,1.934-.035,1.7,1.7,0,0,1,.814,1.514A1.8,1.8,0,0,1,16.4,55.354a1.953,1.953,0,0,1-.885.231M15.091,53A1.021,1.021,0,0,0,14.8,54.38a.844.844,0,0,0,1.262.31,1.072,1.072,0,0,0,.665-.889.966.966,0,0,0-.46-.85A1.142,1.142,0,0,0,15.091,53" transform="translate(10.62 39.722)" fill="#ead8c0"/><path d="M22.244,54.463a6.147,6.147,0,0,1-6.012-5.888,6.335,6.335,0,0,1,1.488-4.5,5.838,5.838,0,0,1,4.129-2.08,6.248,6.248,0,0,1,.737,12.464c-.115.005-.229.009-.342.009m-.051-11.738c-.1,0-.2,0-.3.009a5.1,5.1,0,0,0-3.605,1.821,5.588,5.588,0,0,0-1.312,3.975,5.385,5.385,0,0,0,5.566,5.178,5.509,5.509,0,0,0-.349-10.983" transform="translate(12.375 32.027)" fill="#684837"/><path d="M25.675,55.638a8.366,8.366,0,0,1-2.766-.584l.277-.691c.806.319,3.066.957,3.845.085.733-.82-.005-4.065-.719-7.205-.25-1.1-.511-2.248-.737-3.39l.732-.145c.226,1.135.485,2.274.733,3.369.859,3.778,1.535,6.761.548,7.868a2.483,2.483,0,0,1-1.913.693" transform="translate(17.478 33.346)" fill="#b77f4f"/><path d="M26.054,55.106a5.385,5.385,0,0,1-.723-.048,7.22,7.22,0,0,1-4.8-3.238l.6-.441a6.525,6.525,0,0,0,4.287,2.939,5.663,5.663,0,0,0,3.88-1.054l.467.582a6.407,6.407,0,0,1-3.714,1.26" transform="translate(15.665 39.198)" fill="#a55c58"/><path d="M31.474,53.917a5.834,5.834,0,0,1-4-1.59,6.426,6.426,0,0,1-.52-8.8,5.838,5.838,0,0,1,4.129-2.08,6.248,6.248,0,0,1,.737,12.464c-.116.007-.233.009-.347.009M31.428,42.18c-.1,0-.2,0-.3.009a5.1,5.1,0,0,0-3.605,1.821,5.588,5.588,0,0,0-1.312,3.975v0a5.591,5.591,0,0,0,1.77,3.794,5.108,5.108,0,0,0,3.8,1.382,5.509,5.509,0,0,0-.349-10.983" transform="translate(19.421 31.611)" fill="#684837"/><path d="M23.258,45.422l-.7-.256c.457-1.255,2.232-1.86,3.674-1.726a2.238,2.238,0,0,1,2.242,1.728l-.735.118c-.143-.874-1.149-1.061-1.578-1.1-1.141-.115-2.584.361-2.9,1.238" transform="translate(17.21 33.128)" fill="#684837"/><path d="M19.51,42.58c-1.03,0-1.89-.243-2.121-.927a1.11,1.11,0,0,1,.31-1.132c1.072-1.2,4.638-2.193,6.459-1.8a1.4,1.4,0,0,1,1.183.885c.284.9-.679,1.782-2.641,2.422a11.081,11.081,0,0,1-3.191.552m3.739-3.2c-1.68,0-4.236.79-4.993,1.638-.143.157-.2.291-.16.4.182.538,2.234.6,4.372-.1,1.55-.506,2.271-1.144,2.161-1.49-.069-.217-.379-.328-.628-.381a3.6,3.6,0,0,0-.753-.069" transform="translate(13.229 29.474)" fill="#684837"/><path d="M31.853,42.336a7.614,7.614,0,0,1-1.636-.2c-1.982-.444-3.863-1.518-3.6-2.911a1.264,1.264,0,0,1,.934-.991c1.483-.483,4.358.55,5.583,1.7a1.5,1.5,0,0,1,.619,1.483c-.173.672-.971.911-1.9.911m-3.439-3.473a2.075,2.075,0,0,0-.628.083c-.337.109-.409.293-.434.421-.155.82,1.417,1.682,3.029,2.045,1.59.354,2.579.123,2.655-.175.048-.189-.1-.464-.409-.753a7.363,7.363,0,0,0-4.213-1.622" transform="translate(20.29 29.079)" fill="#684837"/><path d="M20.3,45.837a1.136,1.136,0,0,0,1.167,1.07,1.277,1.277,0,0,0-.395-2.454,1.137,1.137,0,0,0-.772,1.384" transform="translate(15.472 33.907)" fill="#684837"/><path d="M28.153,45.143a1.136,1.136,0,0,0,1.167,1.07,1.277,1.277,0,1,0-1.167-1.07" transform="translate(21.463 33.377)" fill="#684837"/><path d="M25.384,60.141a13.049,13.049,0,0,1-4.765-.963l.3-.682c.046.019,4.631,1.98,8.161.016l.363.651a8.29,8.29,0,0,1-4.056.978" transform="translate(15.731 44.628)" fill="#b77f4f"/><path d="M14.456,48.821l-.74-.088.268-2.274.74.088Z" transform="translate(10.464 35.444)" fill="#b77f4f"/><path d="M16.507,47.567a4.414,4.414,0,0,0-3.623-.324l-.257-.7a5.124,5.124,0,0,1,4.3.407Z" transform="translate(9.633 35.278)" fill="#b77f4f"/><path d="M31.765,72.768a3.139,3.139,0,0,1-1.53-2.01,4.038,4.038,0,0,1,.592-2.8l.621.413a3.336,3.336,0,0,0-.483,2.237,2.43,2.43,0,0,0,1.192,1.528Z" transform="translate(23.016 51.844)" fill="#d39644"/><path d="M49.331,120.638c-9-7.4-19.579-7.875-26.581-8.191-3.186-.143-5.488-.247-6.694-.948-3.831-2.232-3.392-16.7-3.371-17.312l.746.025c-.136,4.064.138,14.976,3,16.642,1.047.61,3.388.716,6.352.848,7.1.319,17.83.8,27.022,8.36Z" transform="translate(9.658 71.857)" fill="#d39644"/><path d="M26.9,129.135a64.084,64.084,0,0,1-14.465-1.7l.19-.721c.263.071,26.548,6.814,36.819-7.156l.6.442c-5.391,7.332-14.994,9.137-23.145,9.137" transform="translate(9.485 91.211)" fill="#d39644"/><path d="M21.965,120.513c-2.452-3.168-2.831-11.071-1.128-23.489,1.611-11.767-1.971-19.986-5.765-28.686-1.1-2.526-2.241-5.137-3.23-7.824C7.56,48.892,10.007,40.325,10.032,40.24l.716.212c-.025.083-2.4,8.429,1.795,19.8.982,2.666,2.116,5.266,3.214,7.783,3.667,8.413,7.461,17.111,5.819,29.086-1.652,12.039-1.313,19.969.98,22.93Z" transform="translate(7.106 30.7)" fill="#684837"/><path d="M22.935,105.779c-1.9-4.485-1.5-8.86-1.045-13.929a87.068,87.068,0,0,0,.476-9.368C22.182,69.976,16,57.637,15.94,57.515l.666-.338c.062.125,6.318,12.612,6.505,25.294a87.735,87.735,0,0,1-.48,9.444c-.465,5.174-.832,9.261.991,13.574Z" transform="translate(12.161 43.621)" fill="#684837"/><path d="M12.278,44.75q-1.624,0-3.357-.1l.046-.744C33.607,45.4,40.782,30.047,40.853,29.894l.68.3c-.069.152-6.8,14.551-29.256,14.551" transform="translate(6.806 22.807)" fill="#684837"/><path d="M66.833,88.8l-.615.423a12.852,12.852,0,0,0-13.13-4.665c-9.962,2.262-11.351,13.165-11.364,13.275l-.74-.086c.014-.115,1.456-11.537,11.94-13.915A13.6,13.6,0,0,1,66.833,88.8M39.952,101.973h-.746v8.362h.746Zm-.279,15.974c0,.049.3,4.922.591,7.584l.742-.081c-.291-2.644-.585-7.5-.589-7.549Zm8.483,3.491.635,3.256.732-.145-.633-3.254Zm27.616-9.386-.718.2,1.2,4.326.718-.2Z" transform="translate(29.911 63.673)" fill="#684837"/><path d="M45.785,169.4l-.4-.629c11.93-7.568,12.688-27.591,12.693-27.792l.746.023c-.007.206-.774,20.619-13.04,28.4" transform="translate(34.627 107.556)" fill="#dbc5a6"/><path d="M79.223,167.672c-12.439-7.205-14.364-27.078-14.384-27.278l.744-.067c.018.2,1.911,19.688,14.013,26.7Z" transform="translate(49.467 107.058)" fill="#dbc5a6"/><rect width="0.747" height="13.667" transform="translate(77.581 194.252) rotate(-8.935)" fill="#dbc5a6"/><path d="M47.934,132.392l-.093-.74,22.7-2.868-1.183-14.334.744-.062,1.241,15.047Z" transform="translate(36.498 87.268)" fill="#dbc5a6"/><rect width="0.746" height="2.855" transform="translate(105.295 193.231) rotate(-5.243)" fill="#dbc5a6"/><rect width="0.746" height="32.618" transform="translate(61.475 259.499) rotate(-7.997)" fill="#c0483e"/><path d="M15.4,135.864l-.132-.735c.167-.03,16.808-3.015,31.565-4.859l.093.739c-14.738,1.842-31.361,4.825-31.526,4.855" transform="translate(11.644 99.385)" fill="#c0483e"/><path d="M13.871,148.822l-.129-.735c4.792-.83,8.252-2.8,10.287-5.842a13.994,13.994,0,0,0,1.83-9.832l.728-.164a14.533,14.533,0,0,1-1.937,10.41c-2.153,3.223-5.779,5.3-10.778,6.163" transform="translate(10.484 100.895)" fill="#c0483e"/><path d="M34.769,126.2a7.439,7.439,0,0,1-6.389-3.156c-.945-1.476-1-3.658-.166-5.987a11.247,11.247,0,0,1,6.607-6.905,7.077,7.077,0,0,1,5.886.316,4.781,4.781,0,0,1,2.332,3.078l-.73.157a4.04,4.04,0,0,0-1.976-2.59,6.352,6.352,0,0,0-5.285-.25,10.479,10.479,0,0,0-6.133,6.447c-.76,2.11-.726,4.053.092,5.333,2.089,3.26,6.387,2.784,6.431,2.78l.09.74a6.833,6.833,0,0,1-.76.037" transform="translate(21.076 83.683)" fill="#d39644"/><path d="M153.446,41.615a1.109,1.109,0,1,1-.469-1.677,1.246,1.246,0,0,1,.469,1.677" transform="translate(115.448 30.418)" fill="#7e5843"/><path d="M147.24,38.706a1.109,1.109,0,1,1-.469-1.677,1.246,1.246,0,0,1,.469,1.677" transform="translate(110.714 28.199)" fill="#7e5843"/><path d="M149.037,48.6a3.554,3.554,0,0,1-3.406-3.029c-.157-1.92,5-7.226,5.594-7.826l.532.524c-2.133,2.168-5.481,6.05-5.382,7.24a2.8,2.8,0,0,0,2.743,2.343l.039.744c-.039,0-.079,0-.12,0" transform="translate(111.102 28.799)" fill="#cc9363"/><path d="M158.8,40.4c-1.239,0-3.471-1.641-4.726-2.971-1.119-1.183-1.52-2.107-1.188-2.743.167-.326.628-.837,1.781-.612,1.84.365,4.781,2.653,5.015,5.275a.874.874,0,0,1-.471.973,1.01,1.01,0,0,1-.411.078m-4.665-5.634a.619.619,0,0,0-.589.264c-.1.182.025.783,1.068,1.886,1.675,1.772,3.822,2.935,4.289,2.725.035-.016.042-.129.033-.226-.2-2.207-2.775-4.286-4.416-4.608a1.9,1.9,0,0,0-.386-.042" transform="translate(116.554 25.957)" fill="#684837"/><path d="M149.221,35.48q-.2,0-.375-.005c-1.433-.044-2.279-.3-2.516-.769-.153-.3-.2-.922,1.183-1.691,1.645-.91,5.2-1.8,6.384.159a.95.95,0,0,1,.032,1c-.569.971-3,1.3-4.707,1.3m2.1-2.74a6.459,6.459,0,0,0-1.35.157c-1.786.39-2.941,1.234-2.971,1.5.381.5,4.689.522,6.059-.384.335-.222.259-.351.2-.455a2.142,2.142,0,0,0-1.934-.818" transform="translate(111.58 24.415)" fill="#684837"/><path d="M151.031,49.968a5.8,5.8,0,0,1-1.437-.18,7.762,7.762,0,0,1-5.684-5.3l.725-.18a7.014,7.014,0,0,0,5.144,4.753c3.6.917,6.74-2.593,6.771-2.629l.286-.324,1.553,1.842-.569.481-1.007-1.2a8.845,8.845,0,0,1-5.782,2.727" transform="translate(109.792 33.807)" fill="#a56f58"/><path d="M159.182,51.076a7.435,7.435,0,0,1-4.346-3.122l.64-.381a6.786,6.786,0,0,0,3.875,2.777Z" transform="translate(118.127 36.294)" fill="#cc9363"/><path d="M153.278,58.017a10.767,10.767,0,0,1-4.9-1.356c-.213-.1-.413-.2-.6-.284l-.252-.113c-1.708-.765-4.887-2.188-6.207-4.569l.652-.361c1.2,2.165,4.231,3.521,5.86,4.25l.254.113c.19.086.4.187.617.294a8.933,8.933,0,0,0,6.664,1c3.075-.8,6.41-1.736,7.85-2.636l.395.633c-1.521.95-4.772,1.87-8.057,2.724a8.976,8.976,0,0,1-2.281.3" transform="translate(107.819 39.164)" fill="#cc9363"/><path d="M149,52.922l-.735-.129a2.871,2.871,0,0,0-1.862-3.085,2.34,2.34,0,0,0-3.159.753l-.651-.367a3.117,3.117,0,0,1,4.1-1.074,3.656,3.656,0,0,1,2.308,3.9" transform="translate(108.79 37.137)" fill="#cc9363"/><rect width="0.747" height="5.532" transform="matrix(0.108, -0.994, 0.994, 0.108, 276.391, 81.373)" fill="#cc9363"/><rect width="2.54" height="0.747" transform="translate(278.476 83.768) rotate(-82.406)" fill="#cc9363"/><path d="M170.23,45.313c-.465-.15-11.468-3.732-16.85-9.821A23.382,23.382,0,0,1,147.4,23.1l.744-.063A23.088,23.088,0,0,0,153.941,35c5.245,5.936,16.406,9.569,16.519,9.6Z" transform="translate(112.452 17.574)" fill="#684837"/><path d="M151.814,63.608c-5.287-2.3-24.771-9.054-24.966-9.121l.245-.705c.2.069,19.706,6.833,25.019,9.143Z" transform="translate(96.775 41.031)" fill="#687f50"/><path d="M142.295,61.728c-1.167-1.338-3.8-4.562-2.992-5.611l.592.453c-.231.337.985,2.4,2.962,4.668Z" transform="translate(106.162 42.813)" fill="#687f50"/><path d="M131.023,85.415l-.693-.275c1.989-5.017-4.9-8.362-4.971-8.393l.319-.675c.076.037,7.593,3.676,5.345,9.343" transform="translate(95.639 58.037)" fill="#687f50"/></g></g><rect width="335" height="291.847" transform="translate(915 2347)" fill="none"/></g></g></svg>