<svg xmlns="http://www.w3.org/2000/svg" xmlns:xlink="http://www.w3.org/1999/xlink" width="505" height="279.211" viewBox="0 0 505 279.211"><defs><clipPath id="a"><rect width="279.211" height="398.771" fill="#fff6db"/></clipPath><clipPath id="b"><rect width="505" height="208.334" transform="translate(0 0)" fill="none"/></clipPath></defs><g transform="translate(-180 -16363.354)"><g transform="translate(-731.5 8370.73)"><g transform="translate(1353.085 7992.623) rotate(90)"><g clip-path="url(#a)"><path d="M269.487,196.521s29.8,85.627-14.933,126.838-103.148-59.071-147.773,44.456C75.268,440.923-9.981,403.528.964,326.13c12.454-88.072,55.906-28.186,30.084-222.649C18.261,7.186,197.286-63.975,269.487,196.521" transform="translate(0 -8.39)" fill="#fff6db"/><path d="M469.957,33.161s18.293,9.567,15.849,23.28-25.155,1.952-28.862-10.305,6.712-17.488,13.013-12.975" transform="translate(-265.394 -16.467)" fill="#fff6db"/><path d="M400.55,7.266c1.417-6.107,7.486-9.005,12.427-6.175,3.889,2.228,7.639,6,6.5,12.071-2.2,11.748-12.657,5.515-17.2,1.4-1.925-1.747-2.172-5.4-1.733-7.291" transform="translate(-232.928 0)" fill="#fff6db"/><path d="M533.034,692.31s17.856-7.7,24.2,2.33-15.4,19.708-24.6,15.131-5.945-15.47.4-17.461" transform="translate(-306.56 -359.787)" fill="#fff6db"/><path d="M616.028,662.911c-4.693,1.57-6.8,7.772-4.5,12.705,1.81,3.884,4.812,7.591,9.483,6.305,9.038-2.489,8.554-13.466,1.605-17.939a9.454,9.454,0,0,0-6.59-1.071" transform="translate(-355.238 -345.808)" fill="#fff6db"/></g></g><g transform="translate(911.5 8057.979)"><g transform="translate(0 0.004)" clip-path="url(#b)"><path d="M833.7,807.512s-3.056-7.079,2.544-9.234c0,0,3.9-.968,6.53.025,0,0-5.772,5.185-4.74,6.2s6.015-6.241,6.015-6.241,7.7,1.6,9.745,3.5c0,0-8.014,3.244-6.765,3.974s9.745-2.259,9.745-2.259,6.589,3.345,4.9,7.473-4.493,4.695-5.512,4.255-6.451-4.707-6.853-3.885,2.431,4.795,4.988,5.734c0,0-6.585,3.886-9.36,1.312s-2.284-5.135-4.028-6.694-3.479-2.1-2.934-.889,3.936,3.269,4.46,5.686,1.136,4.127-2.079,2.572-7.93-5.725-7.293-8.626Z" transform="translate(-686.932 -658.054)" fill="#c8dbf4"/><path d="M832.859,849.116s-18.669-6.6-24.52-2.489a14.31,14.31,0,0,1-5.4,4.112l-.817,1.069s4.347-2.435,5.583-2.28c0,0,.247-7.264,25.157-.411" transform="translate(-661.57 -697.169)" fill="#c8dbf4"/><path d="M774.147,875.6a12.424,12.424,0,0,0-6.934,7.011l.716.294s3.016-5.139,6.031-6.579.187-.727.187-.727" transform="translate(-632.781 -722.035)" fill="#c8dbf4"/><path d="M604.91,597.856s8.949-1.9,7.191-8.8c0,0-1.741-4.442-4.506-6.3,0,0-1.057,9.145-2.747,8.843s1.913-10.105,1.913-10.105-6.83-6.357-10.076-7.03c0,0,2.36,9.983.8,9.275s-4.5-10.983-4.5-10.983-7.76-4.082-10.6.387-1.46,7.571-.335,8.255,8.983,3.013,8.464,3.966-6.31.938-8.973-.893c0,0,.758,9.04,5.154,9.96s6.538-1.313,9.243-.7,4.416,1.929,2.874,2.23-5.866-1.566-8.564-.415-4.773,1.733-1.062,3.778,10.984,3.746,13.354,1.139Z" transform="translate(-478.954 -470.989)" fill="#c8dbf4"/><path d="M609.042,598.351s19.2,13.542,19.238,22.024a16.979,16.979,0,0,0-.272,8.051l-.474,1.525s-.626-5.878-1.625-6.969c0,0,6.861-5.225-16.868-24.631" transform="translate(-502.325 -493.508)" fill="#c8dbf4"/><path d="M704.089,764.1a14.742,14.742,0,0,1-2.027,11.523l-.776-.49s2.9-6.447,2.228-10.352.575-.68.575-.68" transform="translate(-578.405 -629.185)" fill="#c8dbf4"/><path d="M779.255,617.826s-8.3-8.748-1.239-14.929c0,0,5.208-3.524,9.6-3.482,0,0-5.681,10.723-3.621,11.656s5.469-12.4,5.469-12.4,12.166-1.8,16.195-.112c0,0-10.019,9.082-7.792,9.48s13.092-8.568,13.092-8.568,11.477,1.361,11.221,8.333-4.068,9.314-5.8,9.216-12.008-3.436-12.156-2.013,6.153,5.731,10.413,5.732c0,0-7.575,9.253-13.036,6.969s-6.121-6.308-9.521-7.658-6.237-1.2-4.787.276,7.542,2.679,9.612,5.945,3.891,5.447-1.668,4.9-14.729-4.134-15.356-8.736Z" transform="translate(-639.342 -493.079)" fill="#d4e4f8"/><path d="M805.98,657.408s-30.967.372-37.345,9.556a22.38,22.38,0,0,1-5.718,8.949l-.624,2.01s5.07-5.918,6.969-6.356c0,0-3.551-10.8,36.718-14.158" transform="translate(-628.723 -542.217)" fill="#d4e4f8"/><path d="M735.715,758.958a19.432,19.432,0,0,0-6.4,14.031l1.209.047s1.66-9.171,5.311-12.909-.117-1.168-.117-1.168" transform="translate(-601.521 -625.262)" fill="#d4e4f8"/><path d="M1378.693,484.512c.623,1.7,6.6,3.284,15.477,4.682q2.346.37,4.948.723c30.2,4.1,112.932,6.39,118.032,5.18,7.046-1.671,21.068-83.349,21.068-83.349s-41.284-.825-74.071-1.227c-11.216-.136-46.244.385-59.72,2.631-11.053,1.842-26.739,68.6-25.734,71.36" transform="translate(-1137.078 -338.574)" fill="#cde3fd"/><path d="M1394.129,482.181s14.192-54.051,15.216-58.594a3.581,3.581,0,0,1,3.28-2.945c-2.494-.238-4.309-.256-4.309-.256a11.515,11.515,0,0,0-10.85,8.169c-3.437,10.651-10.266,31.113-16.677,51.118.324-.008,13.34,2.508,13.34,2.508" transform="translate(-1138.845 -346.726)" fill="#d2e3fc"/><path d="M995.238,760.373c2.33,14.039,17.566,22.979,33.194,22.979h30.954l-2.4-81.108s-29.555-9.632-36.972-1.153c-6.5,7.428-24.122,36.831-25.049,54.234a23.163,23.163,0,0,0,.273,5.048" transform="translate(-820.598 -575.366)" fill="#cde3fd"/><path d="M996.685,1054.063c2.33,14.039,17.566,22.979,33.194,22.979h15.183c-10.125-6.453-19.28-26.339-48.377-22.979" transform="translate(-822.044 -869.056)" fill="#bbd6f4"/><path d="M1153.518,715.855s-41.756-20.04-49.665-6.949c-4.2,6.951-15.756,34.68-16.609,52.083-.829,16.909,14.751,28.027,30.778,28.027h28.465Z" transform="translate(-896.709 -581.031)" fill="#b1cbef"/><path d="M1178.3,821.854q.517.555,1.06,1.091a43.45,43.45,0,0,0,17.066,10.175,51.019,51.019,0,0,0,16.423,2.478l10.089,0h.137l47.757.017,27.375.011h.4l0-.016.95-6.665,8.667-67.221s-119.957-3.624-129.711,3.846c-4.529,3.468-7.1,17.834-8.525,33.665-.758,8.429,2.456,16.341,8.3,22.616" transform="translate(-964.896 -627.532)" fill="#c5dbf8"/><path d="M1217.907,1102.658q.516.555,1.06,1.091a43.448,43.448,0,0,0,17.066,10.175,51.016,51.016,0,0,0,16.423,2.478l10.089,0h.137l47.757.017,27.375.01.407-.016.95-6.665c-16.779-4.35-40-8.768-64.215-8.425-23.131.328-42.5.286-57.047,1.331" transform="translate(-1004.503 -908.336)" fill="#bbd6f4"/><path d="M1565.247,331.017c.2-.208,1.778-1.229,2.2-1.65a17.358,17.358,0,0,0-3.3-.323,9.936,9.936,0,0,0-1.749.743l-2.828.235s1.782-2.944,3.845-3.99c2.416-1.225,7.35-.579,7.35-.579s19.219-3.146,29.969-2.879c2.884.072,23.393-3.271,29.3-2.087,3.115.624,5.936,1.118,7.752,1.414a1.932,1.932,0,0,0,2.235-1.737l0-.019a51.38,51.38,0,0,1,.819-6.046l7.214-3.491,3.623,1.926c-.035.4-.06.792-.072,1.177a20.81,20.81,0,0,0,.494,5.3,7.886,7.886,0,0,0,5.7,5.845l.036.009c-5.408,4.656-32.921,12.769-33.388,10.39-.628-3.2-50.866-6.258-50.866-6.258s-3.335.072-4.237,1.4c-.536.791-2.935,1.072-3.922,1.531-.507.236-.651-.432-.174-.919" transform="translate(-1286.298 -256.184)" fill="#ffb27d"/><path d="M1394.62,1084.5s-5.591,10.085-8.068,11.222c-1.967.9-7.291,1.8-10.257,4.081-3.44,2.648,2.517,2.508,3.826,2.508,0,0,6.665-.794,9.823-.727,1.819.039,7.241.727,7.241.727a6.826,6.826,0,0,0,6.724-8.073l-.022-.117c-.773-3.9-1.374-8.924-1.374-8.924Z" transform="translate(-1134.269 -894.47)" fill="#d9ecff"/><path d="M1883.394,371.38c.117,2.622.847,5.5,3.183,7.011,3.689,2.392,2.755,8.637,2.731,11.089l15.788-22.608a77.736,77.736,0,0,0-9.614-1.692c-3.187-.349-11.573.61-11.573.61a22.205,22.205,0,0,0-.516,5.59" transform="translate(-1553.368 -301.13)" fill="#f9ddbf"/><path d="M1536.4,1098.326s-5.572,6.138-8.049,7.275c-1.769.812-6.533,1.285-9.368,3.344-2.995,2.175-.7,3.244,1.04,3.244,0,0,7.962.633,13.035-.8,1.382-.389,5.166.385,6.515.685a27.422,27.422,0,0,0,3.425.251c3.092-.4,3.235-3.36,2.942-6.55a17.3,17.3,0,0,0-.253-1.781c-.773-3.9-1.238-7.521-1.238-7.521Z" transform="translate(-1251.632 -904.353)" fill="#fff"/><path d="M1468.508,726.648a17.966,17.966,0,0,0,3.783,2c2.786.929,7.981.5,7.981.5s13.261-25.727,16.06-32.234c2.653-6.169,4.874-19.7,4.874-19.7,2.025-.109,17.175,2.036,30.485.6,7.081-.764,13.07-2.513,15.1-6.089,5.849-10.3-12.834-21.789-12.834-21.789s-36.527,6.584-44.553,12.414c-7.609,5.526-20.895,64.3-20.895,64.3" transform="translate(-1211.194 -536.05)" fill="#f4904d"/><path d="M1613.868,752.188a21.051,21.051,0,0,0,4.678,1.8,17.258,17.258,0,0,0,6.941-.552s2.04-12.324,10.4-32.044c2.1-4.948,3.4-14.051,3.685-14.178,0,0,44.065-.65,49.372-10.911a23.867,23.867,0,0,0,1.714-7.883c-.554-8.116-11.093-11.247-11.093-11.247s-47.631,8.423-55.807,14.041-9.892,60.975-9.892,60.975" transform="translate(-1331.084 -558.518)" fill="#ffa561"/><path d="M1882.422,397.806a13.22,13.22,0,0,1-.259,1.513c-.423,2.056-1.34,5.895-2.55,10.158a114.494,114.494,0,0,1-4.176,12.378c-3.886,9.27-12.041,19.661-14.877,18.8a156.369,156.369,0,0,0-24.436-6.272c-10.628-1.84-13.517-5.758-16.291-10.711-.764-1.364,6.9-2.072,12.486-14.948a168.026,168.026,0,0,0,6.744-20.2l13.58-13.333c-.065.11-2.142,3.879,2.906,6.07,5.123,2.224,14.533-4.175,14.533-4.175.006.045,12.678,4.047,12.341,20.714" transform="translate(-1500.915 -309.455)" fill="#f9ddbf"/><path d="M2019.549,314.1a51.392,51.392,0,0,0-.819,6.046c6.123-.2,10.971-6.549,11.006-6.948-.739-.393-1.482-1.8-2.973-2.588Z" transform="translate(-1665.005 -256.184)" fill="#ed985f"/><path d="M1991.924,249.413s12.882-.367,12.53-8.386,1.073-13.467-7.167-13.572-9.7,3.026-10.236,5.731,1.513,16.116,4.873,16.227" transform="translate(-1638.807 -187.599)" fill="#ffb27d"/><path d="M1991.789,218.386a6.014,6.014,0,0,0-.93-4.429s.947-2.611-.056-3.2-1.537,1.641-1.976,1.219a10.977,10.977,0,0,1-2.97-5.019c-.589-2.612-9.528-.778-10.583-.467a1.3,1.3,0,0,1-.666-.03,2.927,2.927,0,0,1-1.173-5.01c.105-.093.2-.186.294-.276.945-.955,7.523-7.37,15.048-4.255s8.077,6.987,7.193,10.12-.836,10.717-4.181,11.348" transform="translate(-1626.838 -161.716)" fill="#2b478b"/><path d="M2008.575,324.584a4.211,4.211,0,0,1-2.579,1.47,1.706,1.706,0,0,1-2.124-1.053,14.8,14.8,0,0,1,4.7-.417" transform="translate(-1652.75 -267.698)" fill="#fff"/><path d="M1889.246,505.56s16.716,16.673,18.74,19.382-1.818,12.053-2.489,11.98-8.19-6.866-10.906-12.529-7.71-13.869-7.71-13.869Z" transform="translate(-1556.258 -416.976)" fill="#ffb27d"/><path d="M1817.294,458.433l4.48-.818a1.5,1.5,0,0,0,1.006-2.4L1817.5,445.9a3.368,3.368,0,0,0-3.274-1.613l-4.48.818a1.5,1.5,0,0,0-1.006,2.4l5.277,9.324a3.369,3.369,0,0,0,3.274,1.613" transform="translate(-1491.579 -366.404)" fill="#77a4e5"/><path d="M1838.907,457h4.555a1.494,1.494,0,0,0,1.42-2.175l-3.516-10.121a3.369,3.369,0,0,0-2.931-2.175h-4.555a1.494,1.494,0,0,0-1.42,2.175l3.516,10.121a3.369,3.369,0,0,0,2.931,2.175" transform="translate(-1511.268 -364.987)" fill="#f99746"/><path d="M1854.227,487.074s-3.492-2.3-5.287-3.4-3.268-8.208-2.443-8.091,7.752,3.119,10.065,6.578-2.336,4.913-2.336,4.913" transform="translate(-1522.758 -392.25)" fill="#ffb27d"/><path d="M1892.762,479.759a13.865,13.865,0,0,1-.551-2.888c.131-.413-1.314-2.516-1.621-3.3s-.7-2-1.124-1.454a3.034,3.034,0,0,0,0,2.516c.3.854-.486,2.181-.486,2.181l.985,1.684Z" transform="translate(-1557.99 -389.277)" fill="#ffb27d"/><path d="M2049.114,506.236c-.423,2.056-1.339,5.895-2.55,10.158-7.2,7.671-24.365,16.925-24.365,16.925l15.007-19.6,7.759-8.882s2.663-.186,4.149,1.4" transform="translate(-1667.866 -416.373)" fill="#f2ccaa"/><path d="M2009.57,446.295s1.8,2.858-3.395,10.37-27.933,29.242-30.2,27.414-5.108-4.658.163-11.636,22.127-30.865,22.127-30.865Z" transform="translate(-1627.408 -364.205)" fill="#ffb27d"/><path d="M2036.563,410.753c4.293,2.395,7.447,4.308,14.018,4.293a44.128,44.128,0,0,0,9.024-.977s5.082-20.663-4.414-24.917c-3.27-1.465-7.857-3.141-7.857-3.141s-18.459,20.453-10.771,24.742" transform="translate(-1678.169 -318.374)" fill="#f9ddbf"/><path d="M1702.569,760.317c2.51,13.616,16.284,22.245,30.4,22.245h28.466l-2.227-81.826s-27.159-8.913-33.981-.435c-5.977,7.428-22.183,36.831-23.037,54.234a24.961,24.961,0,0,0,.376,5.783" transform="translate(-1403.907 -574.576)" fill="#cbdffa"/><path d="M1704.487,1058.2c2.51,13.616,16.284,22.245,30.4,22.245h22.779c-10.662-6.795-25.019-25.57-53.181-22.245" transform="translate(-1405.824 -872.457)" fill="#bad4fa"/><path d="M1794.968,522.733a24.969,24.969,0,0,0,7.985,13.493l0,0a31.192,31.192,0,0,0,8.085,5.189,34.985,34.985,0,0,0,11.769,2.933c.212.013.425.027.637.039.169.008.339.015.508.02.283.012.565.02.848.023.149,0,.3,0,.452,0h28.465l0-.013,1.644.02c2.929.033,5.991.065,8.83.089l1.406.012c.172,0,.344,0,.512,0,2.806.018,5.287.027,7.057.015a49.763,49.763,0,0,0,7.04-.51,32.989,32.989,0,0,0,7.846-2.11c.427-.177.846-.363,1.257-.56s.833-.41,1.237-.63a24.756,24.756,0,0,0,3.087-1.98,26.669,26.669,0,0,0,6.567-7.25,38.681,38.681,0,0,0,3.413-6.991,63.784,63.784,0,0,0,2.935-10.906c.02-.1.04-.207.058-.313q.512-2.817.888-5.926.17-1.417.314-2.9.509-5.225.679-11.245.015-.524.027-1.057,0-.118.005-.236.105-4.788.012-10.09-.04-2.325-.119-4.751-.035-1.1-.078-2.227-.218-5.644-.627-11.827-.183-2.779-.4-5.67-.908-11.917-2.441-25.8c-1.152-10.523-2.482-17.879-4.415-19.554-2.851-2.472-8.8-3.467-12.937-3.864h0c-2.567-.248-4.435-.266-4.435-.266-.092,0-.184,0-.276,0-.065,0-.13,0-.2.007-.157.007-.314.017-.47.03-.087.007-.176.015-.263.025-.058,0-.115.012-.172.02-.087.01-.174.022-.259.035-.154.022-.306.048-.458.077-.1.02-.209.042-.313.066a.156.156,0,0,0-.027,0c-.075.017-.151.034-.226.054-.144.033-.286.072-.427.112-.1.028-.192.057-.287.087l-.2.065a11.541,11.541,0,0,0-2.264,1.052,12.34,12.34,0,0,0-5.334,6.846c-3.3,10.325-9.2,28.786-15.341,48.095-.03.1-.062.194-.092.291q-.529,1.663-1.06,3.336c-.035.112-.07.226-.107.338l-.055.171c-.346-.146-.7-.3-1.075-.45a.218.218,0,0,0-.039-.017c-1.472-.613-3.137-1.286-4.934-1.97h0c-.931-.354-1.9-.716-2.893-1.074-2.809-1.012-5.841-2.013-8.914-2.874-1.363-.384-2.738-.742-4.1-1.059-1.752-.408-3.491-.754-5.187-1.01l-.147-.023c-.2-.03-.4-.057-.6-.085-1.2-.164-2.365-.284-3.5-.349h0c-5.789-.333-10.583.754-12.777,4.395a68.469,68.469,0,0,0-3.167,6.234,198.414,198.414,0,0,0-8.416,22.017c-2.62,8.319-4.684,16.984-5.026,23.984a24.98,24.98,0,0,0,.495,6.408" transform="translate(-1480.017 -336.422)" fill="#b1cbef"/><path d="M2154.7,471.876s14.611-55.966,15.665-60.669a3.694,3.694,0,0,1,3.376-3.049c-2.568-.247-4.436-.266-4.436-.266a11.864,11.864,0,0,0-11.17,8.458c-3.538,11.028-10.054,31.365-16.654,52.078.334-.008,13.219,3.447,13.219,3.447" transform="translate(-1766.248 -336.421)" fill="#cbdffa"/><path d="M1266.3,37.74h-33.333a2.79,2.79,0,0,1-2.782-2.782V2.786A2.79,2.79,0,0,1,1232.964,0H1266.3a2.79,2.79,0,0,1,2.782,2.782V34.958a2.79,2.79,0,0,1-2.782,2.782" transform="translate(-1014.628 -0.004)" fill="#c0d8fb"/><path d="M1272.785,43.8H1242.34a2.548,2.548,0,0,1-2.541-2.541V11.875a2.549,2.549,0,0,1,2.541-2.541h30.445a2.549,2.549,0,0,1,2.541,2.541V41.26a2.549,2.549,0,0,1-2.541,2.541" transform="translate(-1022.56 -7.699)" fill="#dfebfd"/><path d="M1336.578,25.2a.806.806,0,1,1,.806.806.806.806,0,0,1-.806-.806" transform="translate(-1102.381 -20.118)" fill="#b7d3f3"/><path d="M1373.2,33.538a.806.806,0,1,1,.313,1.1.806.806,0,0,1-.313-1.1" transform="translate(-1132.506 -27.32)" fill="#b7d3f3"/><path d="M1403.734,60.139a.806.806,0,1,1-.24,1.114.806.806,0,0,1,.24-1.114" transform="translate(-1157.465 -49.496)" fill="#b7d3f3"/><path d="M1417.425,99.834a.806.806,0,1,1-.806.806.806.806,0,0,1,.806-.806" transform="translate(-1168.397 -82.342)" fill="#b7d3f3"/><path d="M1406.7,144.088a.806.806,0,1,1-1.139,0,.806.806,0,0,1,1.139,0" transform="translate(-1159.084 -118.647)" fill="#b7d3f3"/><path d="M1377.828,173.039a.806.806,0,1,1-1.14,0,.806.806,0,0,1,1.14,0" transform="translate(-1135.268 -142.525)" fill="#b7d3f3"/><path d="M1336.578,185.279a.806.806,0,1,1,.806.806.806.806,0,0,1-.806-.806" transform="translate(-1102.381 -152.15)" fill="#b7d3f3"/><path d="M1301.414,33.538a.806.806,0,1,0-.313,1.1.806.806,0,0,0,.313-1.1" transform="translate(-1072.133 -27.32)" fill="#b7d3f3"/><path d="M1270.885,60.139a.806.806,0,1,0,.24,1.114.806.806,0,0,0-.24-1.114" transform="translate(-1047.173 -49.496)" fill="#b7d3f3"/><path d="M1257.195,99.834a.806.806,0,1,0,.806.806.806.806,0,0,0-.806-.806" transform="translate(-1036.243 -82.342)" fill="#b7d3f3"/><path d="M1267.917,144.088a.806.806,0,1,0,1.14,0,.805.805,0,0,0-1.14,0" transform="translate(-1045.556 -118.647)" fill="#b7d3f3"/><path d="M1296.793,173.039a.806.806,0,1,0,1.14,0,.806.806,0,0,0-1.14,0" transform="translate(-1069.372 -142.525)" fill="#b7d3f3"/><path d="M1339.936,100.64a.806.806,0,1,1,.806.806.806.806,0,0,1-.806-.806" transform="translate(-1105.151 -82.342)" fill="#b7d3f3"/><rect width="0.22" height="10.066" transform="translate(235.481 8.232)" fill="#b7d3f3"/><rect width="6.784" height="0.66" transform="translate(235.286 18.024) rotate(-38.133)" fill="#b7d3f3"/><path d="M2235.059,634.5s-1.294,19.445-5.1,19.53c-1.791.04-3.383-.66-2.895-7.35.417-5.71-.159-14.271,1.833-14.812,3.758-1.022,6.343.475,6.166,2.633" transform="translate(-1836.758 -520.883)" fill="#e8945b"/><path d="M2029.6,741.751l106.949.318c10.482-5.113,11.523-20.672,4.4-31.352a13.362,13.362,0,0,0-2.245-2.539s0,0,0,0c-3.552-3.167-7.625-4.143-4.6-7.171a36.745,36.745,0,0,0,4.6-5.169c2.128-3.143,3.217-7.036,1.344-12.9-4.391-13.745-5.728-29.767-12.451-33.543,0,0,0,0,0,0-7.258-4.069-18.9-1.189-30.406,1.013a44.153,44.153,0,0,0-19.081,10.163c-4.25,3.8-3.389,17.436-3.424,17.449-.089.048,1.226,5.721-8.908,8.1-5.5,1.287-14.395-6.2-23.529-3.269-18.518,5.949-28.491,40.662-12.636,58.915" transform="translate(-1667.457 -533.91)" fill="#ffa561"/><path d="M2348,664.181c-6.989,3.778-7.8,16.3-18.73,19.493s-22.23-1.184-32.78,10.188c-4.837,5.213,22.063-43.113,22.063-43.113,11.505-2.2,27.932-5.227,35.19-1.157,0,0,0,0,0,0,3.678,4.037,1.243,10.806-5.745,14.584" transform="translate(-1893.615 -534.116)" fill="#f4904d"/><path d="M2147.54,1096.93s-1.677,4.178-3.829,6.234-5.562,4.005-4.675,4.953,7.395-1.078,9.584-2.612,6.607-1.185,7.069-2.824-4.051-6.793-4.051-6.793Z" transform="translate(-1764.112 -903.865)" fill="#fff"/><path d="M2285.961,1069.724s.57,4.3-.263,7.036-2.77,5.987-1.578,6.362,5.689-4.4,6.8-6.72,4.979-4.117,4.591-5.71-6.607-3.78-6.607-3.78Z" transform="translate(-1883.582 -879.967)" fill="#fff"/><path d="M2188.967,795.817s-26.453,5.758-30.8,14.331a6.936,6.936,0,0,0,.7,6.944c2.623,3.455,7.047-1.661,11.406-1.347,8.064.582,42.743.929,37.457-9.207s-18.766-10.721-18.766-10.721" transform="translate(-1779.499 -656.374)" fill="#233862"/><path d="M2165.1,877.108l22.423,29.535a4.753,4.753,0,0,0,3.548-.681,4.927,4.927,0,0,0,2.3-2.64s-9.194-30.067-16.236-33.946-12.035,7.731-12.035,7.731" transform="translate(-1785.728 -716.39)" fill="#233862"/><path d="M2252.815,791.778s-31.833,7.509-34.16,14.789c-2.479,7.753,3.274,7.01,11.339,7.592s39.291-3.4,38.536-14.8c-1.135-17.159-15.715-7.576-15.715-7.576" transform="translate(-1829.419 -650.842)" fill="#2b478b"/><path d="M2189.361,886.118l-6.2,34.89a8.623,8.623,0,0,0,4.514,1.794c3.278.409,4.019-.767,4.019-.767s15.05-27.445,12.011-35.226-14.348-.691-14.348-.691" transform="translate(-1800.628 -728.414)" fill="#2b478b"/><path d="M2237,580.714c-.471-2.174.956-4.987,4.747-6.231a37.951,37.951,0,0,1,10.4-2.37c7.371-.419,11.666,2.443,16.381,7.844,5.752,6.589,12.174,21.966,14.833,33.014.42,1.744-3.9,2.528-5.637,2.958-19.711,4.866-28.1-.5-28.858-2.7-.955-2.778-1.513-7.369-3.821-11.578-2.065-3.768-7.41-18.021-8.043-20.941" transform="translate(-1844.956 -471.833)" fill="#fff"/><path d="M2264.182,516.783c.068.311.218,1.128.433,2.141.168.8.376,1.717.62,2.606.543,2.006,1.252,3.871,2.026,3.871,7.125,0,7.563-3.819,7.374-4.339v0a22.3,22.3,0,0,1-2.148-5.321c-.009-.026-.015-.052-.022-.078a25.958,25.958,0,0,1-.828-5.487s-6.084,5.3-7.258,6.408a1.486,1.486,0,0,0-.2.2" transform="translate(-1867.448 -420.782)" fill="#ffb27d"/><path d="M2260.671,542.55c.124.581.1,1.222.178,1.937.254.009.548.013.869,0,.167.8.376,1.717.62,2.606a11.337,11.337,0,0,0,7.121-5.643c.074-.146.109-.226.109-.226a20.656,20.656,0,0,0-8.086.922,5.062,5.062,0,0,0-.811.4" transform="translate(-1864.553 -446.349)" fill="#e8945b"/><path d="M2235.936,468.673s.417.061,1.1.085c.255.009.548.013.87,0,2.126-.046,5.513-.55,7.741-3.037.046-.048.089-.1.13-.148.107-.124.211-.254.311-.389a8.461,8.461,0,0,0,1.3-2.615c2.448-8.028-1.828-13.186-4.9-13.216-5.25-.054-8.382,1.924-9.66,4.1a4.98,4.98,0,0,0-.489,1.093c-.783,2.552-1.463,13.427,3.6,14.123" transform="translate(-1840.737 -370.62)" fill="#ffb27d"/><path d="M2251.346,531.024s-.268.962-2.678.714c0,0-2.023-.208-1.918-1.273a6.532,6.532,0,0,1,4.6.559" transform="translate(-1853.068 -437.363)" fill="#fff"/><path d="M2239.291,435.192a16.643,16.643,0,0,0,.384-4.81s1.989-3.231.55-3.81-1.97,1.258-2.32.949-1.5-6.082-3.123-5.71-7.5,2.952-10.43.954,2.52-11.729,13.891-9.505,10.519,14.682,1.049,21.932" transform="translate(-1833.951 -340.577)" fill="#2c3a64"/><path d="M2337.514,426.652a3.884,3.884,0,0,0-.326-2.538,4.085,4.085,0,0,1-.359,2.176c-.5.715.685.362.685.362" transform="translate(-1927.265 -349.801)" fill="#2c3a64"/><path d="M2339.338,432.608a2.2,2.2,0,0,1,2.1.663,1.757,1.757,0,0,0-1.919.258Z" transform="translate(-1929.436 -356.768)" fill="#2c3a64"/><path d="M2365.36,780.343a36.912,36.912,0,0,1-19.238,15.95c-14.833,5.364-13.537,8.793-21.58,10.423-4.4.893,28.677,14.321,29.13,13.68s18.538-16.079,18.538-16.079Z" transform="translate(-1916.9 -643.611)" fill="#ffa561"/><path d="M2227.987,593.123a13.54,13.54,0,0,0-4.7,10.1s.321,2.9,6.071,3.041-1.371-13.145-1.371-13.145" transform="translate(-1833.719 -489.196)" fill="#fff"/><path d="M2175.062,733.747a34.453,34.453,0,0,1-13.95.469v-2.1s12.615-5.265,14.632-4.243c1.1.557,1.482,1.531,1.55,3.06a2.729,2.729,0,0,1-2.232,2.811" transform="translate(-1782.439 -600.228)" fill="#e8945b"/><path d="M2262.72,618.376s-3.459,21.231-8.323,24.5-17.486,1.933-17.486,1.933l.635-2.444s12.857-3.693,13.292-5.078,1.217-19.914,3.826-20.928,6.931-.3,8.057,2.017" transform="translate(-1844.956 -507.989)" fill="#ffb27d"/><path d="M2318.716,584.459s5.595-.062,7.821,3.56-.565,10.576-.565,10.576-8.623,1.471-12.419-3.544c0,0,.846-9.231,5.164-10.591" transform="translate(-1908.168 -482.05)" fill="#fff"/><path d="M2557.868,935.982c6.232-.287,13.978-4.152,20.249.463-3.552-3.167-7.626-4.143-4.6-7.171a36.761,36.761,0,0,0,4.6-5.169,74.181,74.181,0,0,1-15.928,6.123c-7.654,1.7-10.553,6.043-4.321,5.754" transform="translate(-2106.879 -762.183)" fill="#f4904d"/><path d="M2162.792,741.777l3.689-.674a1.231,1.231,0,0,0,.828-1.972l-4.345-7.677a2.774,2.774,0,0,0-2.7-1.328l-3.689.674a1.23,1.23,0,0,0-.828,1.972l4.345,7.677a2.774,2.774,0,0,0,2.7,1.328" transform="translate(-1777.825 -602.167)" fill="#b5453c"/><path d="M2180.588,740.6h3.75a1.23,1.23,0,0,0,1.169-1.791l-2.895-8.333a2.774,2.774,0,0,0-2.413-1.791h-3.75a1.23,1.23,0,0,0-1.169,1.791l2.895,8.333a2.773,2.773,0,0,0,2.413,1.791" transform="translate(-1794.037 -601.001)" fill="#f9ddbf"/><path d="M2227.556,754.865s-.328-.847-1.888-1.062c-.484-.067-1.293-.962-2.064-1.087s.042,1.893.562,2.149a5.842,5.842,0,0,0,1.769.664,13.573,13.573,0,0,1,1.621-.664" transform="translate(-1833.719 -620.82)" fill="#ffb27d"/><path d="M2211.637,766.612a9.99,9.99,0,0,1-4.165.412c-1.708-.373-4.374-2.612-3.643-3.105.62-.418,2.844,0,3.874-.187s1.843-.54,2.233.077,1.7,2.8,1.7,2.8" transform="translate(-1817.568 -629.686)" fill="#ffb27d"/><path d="M2157.206,751.863c.077.832.527,2.464,1.119,2.6.538.122,1.656-.888,1.915-1.578.649-1.726-.424-1.982-1.374-1.982-.772,0-1.787-.4-1.66.963" transform="translate(-1779.208 -619.281)" fill="#e8945b"/><path d="M334.252,714.914l-120.929.658C202.3,710.2,201.206,693.833,208.7,682.6a14.064,14.064,0,0,1,2.361-2.67s0,0,0,0c3.735-3.33,8.019-4.357,4.835-7.541a38.615,38.615,0,0,1-4.835-5.436c-2.238-3.305-3.383-7.4-1.413-13.564,4.618-14.453,6.023-31.3,13.094-35.273,0,0,0,0,0,0,7.633-4.279,19.878-1.25,31.975,1.065a46.428,46.428,0,0,1,20.065,10.687c4.469,4,3.564,18.335,3.6,18.349.094.05-1.289,6.016,9.368,8.512,5.779,1.353,15.137-6.524,24.742-3.438,19.473,6.256,26.336,50.893,21.751,61.63" transform="translate(-168.174 -508.026)" fill="#ffa561"/><path d="M310.513,630.4c7.349,3.973-5.1,20.01,15.314,29.946,18.74,9.12,38.385-3.131,45.192-1.225,7.2,2.016-30.258-39.574-30.258-39.574-12.1-2.314-29.372-5.5-37-1.217,0,0,0,0,0,0-3.867,4.245-.59,8.092,6.759,12.065" transform="translate(-249.179 -508.243)" fill="#f4904d"/><path d="M266.087,919.489c-6.554-.3-14.7-4.366-21.293.487,3.735-3.331,8.019-4.357,4.835-7.541A38.623,38.623,0,0,1,244.794,907s8.7,4.652,16.749,6.439,11.1,6.355,4.544,6.051" transform="translate(-201.901 -748.074)" fill="#f4904d"/><path d="M407.233,228.689c-.178-.418-2.256-4.864-9.311-2.438,0,0,3.58-.9,4.748.377,0,0-3.044-.968-4.713.357s-1.512,5.078-1.1,6.177,2.812,4.222,4.132,4.061a3.938,3.938,0,0,0,1.46-.557,17.559,17.559,0,0,0-.3,2.027c-.6,6.767,4.4,11.245,6.52,9.728,1.357-.972,2.77,1.439,2.77,1.439l10.115-17.476s-9.647-9.079-14.322-3.7" transform="translate(-327.093 -186.014)" fill="#2c3a64"/><path d="M489.422,377.319c-9.58,4.282-16.783-10.832-16.157-10.986.958-1.084,1.946-4.944,1.244-10.5l.5.034,8.331.617s.13,2.585.417,5a14.3,14.3,0,0,0,.789,3.755,7.891,7.891,0,0,0,1.91.46c.14.153,5.525,10.484,2.97,11.626" transform="translate(-390.308 -293.483)" fill="#ffb27d"/><path d="M835.21,1142.226H818.42a9.218,9.218,0,0,1,.475-4.5c.84-1.863,1.376-2.373.464-4.527,1.067,1.1,4.183,1.892,6.61,1.566a18.426,18.426,0,0,0,2.913,3.776c1.1.788,5.99.507,6.328,3.685" transform="translate(-674.94 -934.639)" fill="#fff"/><path d="M666.492,1137.964H649.7a9.219,9.219,0,0,1,.474-4.5c.84-1.863,2.477-3.108,2.959-5.257,1.067,1.1,1.688,2.623,4.116,2.3a18.425,18.425,0,0,0,2.913,3.776c1.1.788,5.99.507,6.328,3.685" transform="translate(-535.785 -930.521)" fill="#fff"/><path d="M576.092,422.916l1.8,2.5s-.788.679-2.046,1.756c-.38.32-.61.494-.61.494-1.016.853-2.265,1.845-3.623,2.931l-.015.019c-2.368,1.822-5.064,3.828-7.513,5.378q-.332.206-.656.4a22.293,22.293,0,0,1-3.971,1.959,2.9,2.9,0,0,1-.385.108c-3.247.873-9.8-.264-16.225-2.226-.888-.269-1.762-.556-2.617-.83a63.49,63.49,0,0,1-8.54-3.49,25.065,25.065,0,0,1-3.668-2.156,10.146,10.146,0,0,1-.936-.727c-5.217-4.272-2.763-8.419-1.772-8.425a21.2,21.2,0,0,1,4.982.826c3.165.853,7.062,2.209,10.883,3.621,2.1.768,4.184,1.556,6.141,2.24,1.171.437,2.287.83,3.317,1.184a32.163,32.163,0,0,0,4.754,1.33,11.265,11.265,0,0,0,3.806-.6c.448-.121.92-.258,1.411-.405,2.721-.826,5.987-2.037,8.824-3.164,1.4-.545,2.7-1.08,3.774-1.526,1.742-.715,2.882-1.2,2.882-1.2" transform="translate(-432.078 -346.911)" fill="#ffb27d"/><path d="M410.815,712.224s-3.767,11.742,4.639,17.311c11.263,7.462,42.493,1.1,46.057,4.914.9.965-1.827,1.453-3.367,15.252-2.214,19.845-4.009,30.945-4.009,30.945a5.12,5.12,0,0,0,2.75,3.44,5.915,5.915,0,0,0,3.518.293s22.937-50.362,20.653-57.348c-3.957-12.1-25.864-10.914-51.257-18.064-15.506-4.366-18.985,3.257-18.985,3.257" transform="translate(-338.137 -583.628)" fill="#233862"/><path d="M419.336,722.716c11.151-1.031,41.579-1.556,48.159,2.965,8.1,5.565,19.107,69.2,19.107,69.2a5.4,5.4,0,0,1-2.688.853c-1.712.168-5.431-.929-5.431-.929s-18.094-28.658-19.182-35.828-.528-13.547-3.589-13.761-45.112,4.632-48.7-6.877c-2.8-8.99.557-17.688.557-17.688s1.482,3.02,11.769,2.069" transform="translate(-334.772 -594.375)" fill="#2b478b"/><path d="M430.126,431.41c.69,2.528,1.257,4.79,1.535,6.317,1.284,7.031,2.409,28.486,2.409,28.486-11.389,17.581-43.093,12.294-43.093,12.294-.7-6.665,1.978-21.488,3.6-34.678.4-3.233.734-6.365.942-9.256a58.189,58.189,0,0,1,.859-6.75c2.7-14.1,9.655-15.645,9.655-15.645,3.25,6.312,13.507,8.012,13.507,8.012a34.712,34.712,0,0,0-1.023-8.078,53.438,53.438,0,0,1,6.862,1.264c1.461.537,13.6,6.074,13.6,6.074a12.444,12.444,0,0,1-8.86,11.961" transform="translate(-322.377 -339.902)" fill="#f9ddbf"/><path d="M491.71,356.654s.128,2.583.417,5c-4.568.428-7.482-3.431-8.749-5.612Z" transform="translate(-398.68 -293.653)" fill="#ed985f"/><path d="M482.466,287.633s-10.749,1.494-11.576-5.214-2.772-11.033,4.056-12.271,8.48,1.157,9.3,3.329.995,13.594-1.78,14.156" transform="translate(-387.636 -222.534)" fill="#ffb27d"/><path d="M469.241,263.989c-1.912-1.815-3.116-1.218-3.746-.525A7.584,7.584,0,0,0,456,266.2a12.911,12.911,0,0,1-3.266,8.084s2.111.973,6.495-.744a7.75,7.75,0,0,0,3.357-2.978,25.317,25.317,0,0,1-3.679,5.811c5.1-3.16,6.352-10.944,6.471-11.765a8.5,8.5,0,0,1,2.731,2.843c.746,1.643,1.417,5.13,2.428,4.885,0,0,1.568-5.621-1.3-8.343" transform="translate(-373.408 -216.737)" fill="#2c3a64"/><path d="M821.9,406.484a9.539,9.539,0,0,0,1.369-1.522,5.975,5.975,0,0,1,1.665-2.17c.959-.656,2.019-2.372,2.17-2.069s-.5,2.17-.454,2.372a7.613,7.613,0,0,0,3.734.491c1.009-.289,3.533-1.1,3.482-.592s-2.725,3.331-3.583,3.835-3.432.353-4.441.706a7.457,7.457,0,0,0-2.14,1.451Z" transform="translate(-677.887 -330.479)" fill="#ffb27d"/><path d="M859.669,410.405s2.624-2.12,3.768-1.851l-1.884,1.851Z" transform="translate(-709.037 -336.948)" fill="#ffb27d"/><path d="M872.726,418.808l3.97-2.658a2.476,2.476,0,0,0-1.539,0c-.807.278-2.431,2.658-2.431,2.658" transform="translate(-719.806 -343.131)" fill="#ffb27d"/><path d="M425.1,533.417c-.184-.1-12.455-3.777-13.018-15.776.4-3.233.734-6.365.942-9.256a58.189,58.189,0,0,1,.859-6.75c1.967-.3,4.326,1.811,5.383,4.952,2.177,6.465,5.777,26.561,5.834,26.83" transform="translate(-339.872 -413.715)" fill="#f2ccaa"/><path d="M443.846,495.912a3.11,3.11,0,0,1-.326-.286c-2.715-2.436-5.556-9.068-7.574-16.073-.281-.966-.537-1.932-.793-2.871a68.894,68.894,0,0,1-1.879-9.832,27.182,27.182,0,0,1-.209-4.612,11,11,0,0,1,.107-1.282c.8-7.272,6.022-7.494,6.614-6.6a23,23,0,0,1,2.2,5.02c1.1,3.383,2.169,7.73,3.145,12.04.544,2.364,3.477,16.273,3.992,17.415.33.745-4.269,7.867-5.273,7.077" transform="translate(-357.158 -374.441)" fill="#ffb27d"/><path d="M429.356,442.309s-5.079,2.467-6.853,5.844-1.991,14.16.754,28.177a20.289,20.289,0,0,0,13.688-7.719s-2.009-28.329-7.59-26.3" transform="translate(-347.38 -364.722)" fill="#f9ddbf"/><path d="M470.994,399.837s-1.853,1.152-1.856,2.862c0,0,2.188,5.979,14.964,7.367,0,0-11.758-5.783-13.107-10.228" transform="translate(-386.935 -329.778)" fill="#f2ccaa"/><path d="M535.345,401.259s3.223,5.921,3.131,8.806c0,0,.219-6.555-.238-8.078s-3.174-2.151-3.174-2.151Z" transform="translate(-441.309 -329.778)" fill="#f2ccaa"/><path d="M523.148,347.736a3.6,3.6,0,0,0,2.482.657c1.351-.255,1.338-1.314,1.338-1.314a6.042,6.042,0,0,0-1.732,0,14.172,14.172,0,0,0-2.088.657" transform="translate(-431.481 -286.21)" fill="#fff"/><path d="M638.469,626.221l-3.689-.674a1.23,1.23,0,0,1-.828-1.972L638.3,615.9a2.773,2.773,0,0,1,2.7-1.328l3.689.674a1.23,1.23,0,0,1,.828,1.972l-4.345,7.677a2.774,2.774,0,0,1-2.7,1.328" transform="translate(-522.678 -506.859)" fill="#77a4e5"/><path d="M628.135,625.04h-3.75a1.231,1.231,0,0,1-1.169-1.791l2.895-8.333a2.774,2.774,0,0,1,2.413-1.791h3.75a1.23,1.23,0,0,1,1.169,1.791l-2.894,8.333a2.774,2.774,0,0,1-2.413,1.791" transform="translate(-513.928 -505.693)" fill="#f99746"/><path d="M613.409,647.6s3.541-2.843,4.883-2.955,4.63.564,4.322,1.531-1.831,1.529-3.437,2.382-2.263,1.814-3.546,2.084a15.053,15.053,0,0,1-2.733.263Z" transform="translate(-505.504 -531.678)" fill="#ffb27d"/><path d="M615.818,645.9a20.423,20.423,0,0,0,2.464-3.2.212.212,0,0,1,.323-.079c.3.23.7.744.032,1.645a5.028,5.028,0,0,1-2.82,1.638" transform="translate(-507.913 -529.982)" fill="#ffb27d"/><path d="M493.822,654.406c.373-.033,11.022,1.4,20.7-2.245l.512-3.306s-9.954-.131-16.42-2.377-4.8,7.928-4.8,7.928" transform="translate(-407.134 -532.935)" fill="#ffb27d"/><path d="M1187.461,556.638s7.655,11.615,8.316,19.667a2.341,2.341,0,0,1-3.564.924c-2.508-1.452-7-7.655-7-7.655Z" transform="translate(-977.542 -459.104)" fill="#ffb27d"/><path d="M1114.476,806.241a27.014,27.014,0,0,0,.275,5.637c1.157,9.274,4.936,24.083,4.936,24.083l4.733.574c-.346-2.619.64-12.647,1.948-23.761,1.974-16.767,4.686-36,4.686-36s-10.3-8.516-16.376-6.164.51,29.136-.2,35.634" transform="translate(-917.222 -635.242)" fill="#ed975d"/><path d="M1127.312,1008.076c1.157,9.274,4.936,24.083,4.936,24.083l4.733.574c-.346-2.619.64-12.647,1.948-23.761-1.684.3-6.255.885-10.078-.555a4.8,4.8,0,0,0-1.539-.341" transform="translate(-929.783 -831.44)" fill="#dfebfd"/><path d="M1150.529,412.4a6.883,6.883,0,0,1,5.3,0c2.8,1.2,4.84,6.3,3.585,11.06s2.98,4.843,1.019,8.663c-.7,1.355-9.9,2.507-10.214-2.768-.195-3.268,2.764-3.43,1.9-6.982s-1.588-9.973-1.588-9.973" transform="translate(-948.665 -339.701)" fill="#2c3a64"/><path d="M1072.828,801.459a33.735,33.735,0,0,0,.066,7.418c.8,9.452,3.373,22.963,3.373,22.963l4.682,1.082c-.179-2.585,1.35-12.313,3.279-23.2,3-16.929,6.964-36.657,6.964-36.657s-9.761-9.137-15.967-7.161-1.287,29.11-2.4,35.552" transform="translate(-884.18 -631.474)" fill="#ffb27d"/><path d="M1149.287,1140.182a5.533,5.533,0,0,0,3.267,2.545,5.371,5.371,0,0,1,3.218,2,1.259,1.259,0,0,1-1.024,2l-10.889-.062a1.565,1.565,0,0,1-1.548-1.732c.086-.806.176-1.745.217-2.465a5.182,5.182,0,0,1,1.793-2.985,11.166,11.166,0,0,0,2.071.959,7.716,7.716,0,0,0,2.9-.262" transform="translate(-942.146 -939.823)" fill="#212d4c"/><path d="M1094.433,393.581a14.62,14.62,0,0,0-9.213-6.166,8.8,8.8,0,0,0-10.077,7.426c-.745,4.857.015,11.151,7.939,13.418Z" transform="translate(-886.572 -319.433)" fill="#2c3a64"/><path d="M1125.1,488.931l-8.968,5.326-2.266-6.312a19.752,19.752,0,0,0,1.342-5.98,24.535,24.535,0,0,0-.144-5.305l7.8,3.387a14.352,14.352,0,0,0-.191,1.748,12.591,12.591,0,0,0,.387,4.033,5.6,5.6,0,0,0,2.042,3.1" transform="translate(-918.691 -393.14)" fill="#ffb27d"/><path d="M1129.353,509.995c-4.3.158-7.85-3.862-7.85-3.862l7.462-.171a12.591,12.591,0,0,0,.388,4.033" transform="translate(-924.992 -417.307)" fill="#ed975d"/><path d="M1113.969,432.684s-8.422,2.807-11.81-3.817c-3.656-7.148-.5-12.726,2.387-13.273,5.755-1.089,9.265.908,10.433,3.181s3.64,12.4-1.01,13.909" transform="translate(-907.677 -342.522)" fill="#ffb27d"/><path d="M1156.551,487.684s.415.861,2.643.221c0,0,1.871-.537,1.592-1.522a6.249,6.249,0,0,0-4.235,1.3" transform="translate(-953.898 -401.141)" fill="#fff"/><path d="M1085.914,612.5c-10.132,3.457-28.11-1.352-30.543-3.677-.122-.116.261-5.368.851-12.11.825-9.456,2.054-21.847,2.842-27.144.01-.071.021-.143.031-.212a18.112,18.112,0,0,0,.18-3.669c-.026-.494-.074-.988-.141-1.48l-1.846-13.609-.58-4.272a5.044,5.044,0,0,1,3.053-5.325,28.316,28.316,0,0,1,5.738-1.489c1.5,1.354,4.416,3.3,7.5,2.7,2.319-.455,2.773-1.7,2.648-3.036.588.059,1.133.123,1.635.194a6.812,6.812,0,0,1,5.809,5.676c1.731,10.818,4.637,66.837,2.822,67.455" transform="translate(-870.428 -444.699)" fill="#fff"/><path d="M1099.859,404.845s.8,7.9-6.7,10.7c-2.98,1.113-4.532-10.954,1.7-13.363s12.369.452,13.1,4.664.175,5.091.175,5.091-2.915-8.014-8.277-7.092" transform="translate(-899.468 -330.986)" fill="#2c3a64"/><path d="M1202.78,556.694l3.9,6.668s-.5,3.094-3.42,3.4-.48-10.069-.48-10.069" transform="translate(-991.241 -459.15)" fill="#fff"/><path d="M1041.478,412.468a6.184,6.184,0,0,0-5.3,0c-2.8,1.349-4.839,7.091-3.585,12.453s-2.98,5.453-1.019,9.754c.7,1.525,9.9,2.823,10.214-3.117.195-3.68-2.764-3.862-1.9-7.861s1.588-11.229,1.588-11.229" transform="translate(-850.389 -339.701)" fill="#2c3a64"/><path d="M1077,1012.453c.8,9.452,3.374,22.963,3.374,22.963l4.682,1.082c-.179-2.585,1.35-12.313,3.279-23.2a29.794,29.794,0,0,1-11.334-.849" transform="translate(-888.29 -835.05)" fill="#fff"/><path d="M1090.85,1140.182a5.534,5.534,0,0,0,3.268,2.545,5.372,5.372,0,0,1,3.217,2,1.259,1.259,0,0,1-1.024,2l-10.889-.062a1.565,1.565,0,0,1-1.548-1.732c.086-.806.176-1.745.217-2.465a5.183,5.183,0,0,1,1.793-2.985,11.166,11.166,0,0,0,2.071.959,7.715,7.715,0,0,0,2.9-.262" transform="translate(-893.948 -939.823)" fill="#2c3a64"/><path d="M1213.437,662.284l-4.948-.55a1.586,1.586,0,0,1-1.4-1.746l1.06-9.54a1.586,1.586,0,0,1,1.746-1.4l4.948.549a1.586,1.586,0,0,1,1.4,1.746l-1.06,9.54a1.586,1.586,0,0,1-1.746,1.4" transform="translate(-995.576 -535.316)" fill="#b5453c"/><path d="M1173.448,689.817a3.177,3.177,0,0,1,.582-.829c.272-.21.47-.742.582-.519s-.1.78-.1.78Z" transform="translate(-967.835 -567.79)" fill="#ffb27d"/><path d="M1182.772,669.841l-4.888.945a1.586,1.586,0,0,1-1.852-1.252l-1.821-9.424a1.586,1.586,0,0,1,1.252-1.852l4.888-.945a1.585,1.585,0,0,1,1.852,1.252l1.821,9.424a1.585,1.585,0,0,1-1.252,1.852" transform="translate(-968.44 -542.114)" fill="#b0d4ff"/><path d="M1170.905,689.022a15.566,15.566,0,0,1,3.234-1.848c1.254-.4,1.344.32,1.237,1.006a5.321,5.321,0,0,1-1.5,2.326c-.526.641-1.386,1.039-1.98.643s-.99-2.128-.99-2.128" transform="translate(-965.737 -566.673)" fill="#ffb27d"/><path d="M1245.769,667.616s-2.376-1.105-2.871.083,1.831,3.514,2.673,3.019.792-2.9.2-3.1" transform="translate(-1025.06 -550.25)" fill="#ffb27d"/><path d="M1062.35,581.872s-.2,13.991.726,18.875,19.568,3.795,19.568,3.795l-.594-2.475s-11.634-4.267-11.846-4.818c-1.122-2.9-.33-9.635-.462-11.483s-7.392-3.894-7.392-3.894" transform="translate(-876.189 -479.916)" fill="#ffb27d"/><path d="M1056.722,567.748a36.726,36.726,0,0,0-1.633,9.8s2.97,1.782,9.107,1.584-1.188-9.306-1.188-9.306Z" transform="translate(-870.215 -468.267)" fill="#fff"/><path d="M1110.474,942.2H988.782a3.675,3.675,0,0,1,0-7.35h121.692a3.675,3.675,0,1,1,0,7.35" transform="translate(-812.495 -771.047)" fill="#2c3a64"/><path d="M1633.092,974.472h-5.921l8.749,35.328a.972.972,0,0,0,.948.738.646.646,0,0,0,.639-.727Z" transform="translate(-1342.056 -803.724)" fill="#2c3a64"/><path d="M1033.806,974.472h5.921l-8.749,35.328a.972.972,0,0,1-.948.738.646.646,0,0,1-.639-.727Z" transform="translate(-849.016 -803.724)" fill="#2c3a64"/><rect width="106.991" height="1.838" transform="translate(184.659 186.47)" fill="#2c3a64"/><path d="M1188,864.854h-88.559a.912.912,0,0,1-.913-.912v-.31a.912.912,0,0,1,.913-.912H1188a.913.913,0,0,1,.913.912v.31a.913.913,0,0,1-.913.912" transform="translate(-906.041 -711.554)" fill="#f2ccaa"/><path d="M1179.732,825.048h-3.43l.648-8h2.1Z" transform="translate(-970.189 -673.882)" fill="#e8945b"/><rect width="1.315" height="0.486" transform="translate(207.142 142.677)" fill="#e8945b"/><path d="M1180.136,804.944a1.029,1.029,0,1,1,1.029,1.029,1.029,1.029,0,0,1-1.029-1.029" transform="translate(-973.351 -663.052)" fill="#e8945b"/><path d="M1380.185,825.048h-3.43l.648-8h2.1Z" transform="translate(-1135.518 -673.882)" fill="#2c3a64"/><rect width="1.315" height="0.486" transform="translate(242.266 142.677)" fill="#2c3a64"/><path d="M1380.589,804.944a1.029,1.029,0,1,1,1.029,1.029,1.029,1.029,0,0,1-1.029-1.029" transform="translate(-1138.68 -663.052)" fill="#2c3a64"/><path d="M1285.029,825.048h-3.43l.648-8h2.1Z" transform="translate(-1057.035 -673.882)" fill="#fff"/><rect width="1.315" height="0.486" transform="translate(225.593 142.677)" fill="#fff"/><path d="M1285.432,804.944a1.029,1.029,0,1,1,1.029,1.029,1.029,1.029,0,0,1-1.029-1.029" transform="translate(-1060.197 -663.052)" fill="#fff"/><rect width="3.942" height="3.942" transform="translate(252.536 147.247)" fill="#afcdfb"/><rect width="3.942" height="3.942" transform="translate(250.159 147.247)" fill="#fff"/><path d="M1437.232,850.221a.3.3,0,1,1,.3.3.3.3,0,0,1-.3-.3" transform="translate(-1185.398 -701.001)" fill="#2e3552"/><path d="M1430.2,843.081a.3.3,0,1,1,.3.3.3.3,0,0,1-.3-.3" transform="translate(-1179.599 -695.112)" fill="#2e3552"/><path d="M1444.264,843.081a.3.3,0,1,1,.3.3.3.3,0,0,1-.3-.3" transform="translate(-1191.198 -695.112)" fill="#2e3552"/><path d="M1430.2,857.579a.3.3,0,1,1,.3.3.3.3,0,0,1-.3-.3" transform="translate(-1179.599 -707.069)" fill="#2e3552"/><path d="M1444.264,857.579a.3.3,0,1,1,.3.3.3.3,0,0,1-.3-.3" transform="translate(-1191.198 -707.069)" fill="#2e3552"/><path d="M1452.049,843.081c0-.164.079-.3.177-.3s.176.132.176.3-.079.3-.176.3-.177-.132-.177-.3" transform="translate(-1197.619 -695.112)" fill="#2e3552"/><path d="M1460.441,843.081c0-.164.079-.3.177-.3s.176.132.176.3-.079.3-.176.3-.177-.132-.177-.3" transform="translate(-1204.54 -695.112)" fill="#2e3552"/><path d="M1452.049,857.579c0-.163.079-.3.177-.3s.176.132.176.3-.079.3-.176.3-.177-.132-.177-.3" transform="translate(-1197.619 -707.069)" fill="#2e3552"/><path d="M1460.441,857.579c0-.163.079-.3.177-.3s.176.132.176.3-.079.3-.176.3-.177-.132-.177-.3" transform="translate(-1204.54 -707.069)" fill="#2e3552"/><rect width="3.942" height="3.942" transform="translate(229.525 147.247)" fill="#afcdfb"/><rect width="3.942" height="3.942" transform="translate(231.902 147.247)" fill="#fff"/><path d="M1333.632,850.221a.3.3,0,1,0-.3.3.3.3,0,0,0,.3-.3" transform="translate(-1099.464 -701.001)" fill="#2e3552"/><path d="M1340.663,843.081a.3.3,0,1,0-.3.3.3.3,0,0,0,.3-.3" transform="translate(-1105.263 -695.112)" fill="#2e3552"/><path d="M1326.6,843.081a.3.3,0,1,0-.3.3.3.3,0,0,0,.3-.3" transform="translate(-1093.664 -695.112)" fill="#2e3552"/><path d="M1340.663,857.579a.3.3,0,1,0-.3.3.3.3,0,0,0,.3-.3" transform="translate(-1105.263 -707.069)" fill="#2e3552"/><path d="M1326.6,857.579a.3.3,0,1,0-.3.3.3.3,0,0,0,.3-.3" transform="translate(-1093.664 -707.069)" fill="#2e3552"/><path d="M1319.939,843.081c0-.164-.079-.3-.176-.3s-.177.132-.177.3.079.3.177.3.176-.132.176-.3" transform="translate(-1088.366 -695.112)" fill="#2e3552"/><path d="M1311.546,843.081c0-.164-.079-.3-.176-.3s-.177.132-.177.3.079.3.177.3.176-.132.176-.3" transform="translate(-1081.444 -695.112)" fill="#2e3552"/><path d="M1319.939,857.579c0-.163-.079-.3-.176-.3s-.177.132-.177.3.079.3.177.3.176-.132.176-.3" transform="translate(-1088.366 -707.069)" fill="#2e3552"/><path d="M1311.546,857.579c0-.163-.079-.3-.176-.3s-.177.132-.177.3.079.3.177.3.176-.132.176-.3" transform="translate(-1081.444 -707.069)" fill="#2e3552"/><rect width="35.397" height="7.033" transform="translate(328.689 199.855)" fill="#f2ccaa"/><rect width="35.397" height="7.033" transform="translate(314.789 199.855)" fill="#f9ddbf"/><rect width="37.175" height="5.83" transform="translate(327.639 196.339)" fill="#fcd7b9"/><rect width="37.175" height="5.83" transform="translate(313.496 196.339)" fill="#ffead7"/><rect width="35.397" height="7.033" transform="translate(229.866 156.773)" fill="#f2ccaa"/><rect width="35.397" height="7.033" transform="translate(215.966 156.773)" fill="#f9ddbf"/><rect width="37.175" height="5.83" transform="translate(228.815 153.257)" fill="#fcd7b9"/><rect width="37.175" height="5.83" transform="translate(214.673 153.257)" fill="#ffead7"/><path d="M504.391,1181.836H.609a.611.611,0,0,1-.609-.609v-.3a.611.611,0,0,1,.609-.609H504.391a.611.611,0,0,1,.609.609v.3a.611.611,0,0,1-.609.609" transform="translate(0 -973.502)" fill="#2e3552"/></g></g></g></g></svg>